WIPSHDC-All-Traditional-Sans.glyphspackage
{
glyphname = uni3A90;
layers = (
{
layerId = m01;
shapes = (
{
closed = 1;
nodes = (
(363,411,l),
(402,391,o),
(444,360,o),
(466,336,c),
(485,358,l),
(463,381,o),
(421,410,o),
(383,430,c)
);
},
{
closed = 1;
nodes = (
(509,311,l),
(158,311,l),
(158,282,l),
(509,282,l)
);
},
{
closed = 1;
nodes = (
(334,440,l),
(305,440,l),
(305,354,ls),
(305,228,o),
(286,85,o),
(125,-25,c),
(132,-30,o),
(142,-39,o),
(147,-46,c),
(309,69,o),
(334,218,o),
(334,354,cs)
);
},
{
closed = 1;
nodes = (
(302,210,l),
(362,162,o),
(449,82,o),
(500,28,c),
(520,54,l),
(470,105,o),
(382,182,o),
(321,228,c)
);
},
{
closed = 1;
nodes = (
(499,657,l),
(113,657,l),
(113,627,l),
(470,627,l),
(470,505,l),
(113,505,l),
(113,475,l),
(499,475,l)
);
},
{
closed = 1;
nodes = (
(97,765,l),
(97,423,ls),
(97,284,o),
(92,95,o),
(36,-49,c),
(45,-53,o),
(56,-63,o),
(60,-69,c),
(119,84,o),
(127,281,o),
(127,423,cs),
(127,742,l),
(136,743,o),
(140,747,o),
(141,752,c)
);
},
{
closed = 1;
nodes = (
(445,807,l),
(370,784,o),
(227,765,o),
(108,753,c),
(113,745,o),
(117,734,o),
(119,727,c),
(239,738,o),
(383,758,o),
(473,783,c)
);
},
{
closed = 1;
nodes = (
(901,461,l),
(527,461,l),
(527,431,l),
(901,431,l)
);
},
{
closed = 1;
nodes = (
(895,461,l),
(889,461,l),
(889,453,l),
(829,184,o),
(654,22,o),
(470,-48,c),
(476,-54,o),
(484,-65,o),
(488,-71,c),
(678,5,o),
(855,168,o),
(919,454,c),
(901,463,l)
);
},
{
closed = 1;
nodes = (
(577,422,l),
(623,209,o),
(762,19,o),
(938,-70,c),
(944,-63,o),
(952,-53,o),
(960,-47,c),
(785,38,o),
(647,221,o),
(603,428,c)
);
},
{
closed = 1;
nodes = (
(952,658,l),
(725,658,l),
(725,628,l),
(952,628,l)
);
},
{
closed = 1;
nodes = (
(739,828,l),
(710,828,l),
(710,449,l),
(739,449,l)
);
}
);
vertWidth = 1000;
width = 1000;
},
{
layerId = "94DDBC6A-1627-4027-9125-871D02041BCD";
shapes = (
{
closed = 1;
nodes = (
(396,363,l),
(425,346,o),
(457,321,o),
(473,303,c),
(528,359,l),
(511,377,o),
(479,401,o),
(450,418,c)
);
},
{
closed = 1;
nodes = (
(520,318,l),
(197,318,l),
(197,212,l),
(520,212,l)
);
},
{
closed = 1;
nodes = (
(406,408,l),
(299,408,l),
(299,279,ls),
(299,198,o),
(281,79,o),
(150,-1,c),
(173,-21,o),
(210,-63,o),
(226,-88,c),
(380,13,o),
(406,167,o),
(406,276,cs)
);
},
{
closed = 1;
nodes = (
(322,148,l),
(362,106,o),
(417,42,o),
(447,3,c),
(533,90,l),
(497,124,o),
(438,174,o),
(399,203,c)
);
},
{
closed = 1;
nodes = (
(518,671,l),
(123,671,l),
(123,565,l),
(391,565,l),
(391,530,l),
(123,530,l),
(123,424,l),
(518,424,l)
);
},
{
closed = 1;
nodes = (
(74,807,l),
(74,499,ls),
(74,351,o),
(70,140,o),
(14,-14,c),
(45,-26,o),
(95,-64,o),
(114,-89,c),
(184,86,o),
(193,340,o),
(193,497,cs),
(193,747,l),
(211,750,o),
(219,756,o),
(220,765,c)
);
},
{
closed = 1;
nodes = (
(430,841,l),
(348,816,o),
(214,797,o),
(94,788,c),
(108,762,o),
(123,717,o),
(128,690,c),
(256,696,o),
(409,714,o),
(524,747,c)
);
},
{
closed = 1;
nodes = (
(848,504,l),
(541,504,l),
(541,380,l),
(848,380,l)
);
},
{
closed = 1;
nodes = (
(853,504,l),
(828,504,l),
(828,482,l),
(796,266,o),
(670,101,o),
(475,22,c),
(502,-6,o),
(537,-61,o),
(552,-96,c),
(775,8,o),
(922,215,o),
(961,481,c),
(876,508,l)
);
},
{
closed = 1;
nodes = (
(555,351,l),
(619,143,o),
(722,-14,o),
(902,-96,c),
(921,-62,o),
(961,-10,o),
(990,16,c),
(828,79,o),
(724,215,o),
(675,380,c)
);
},
{
closed = 1;
nodes = (
(975,728,l),
(709,728,l),
(709,604,l),
(975,604,l)
);
},
{
closed = 1;
nodes = (
(789,854,l),
(656,854,l),
(656,453,l),
(789,453,l)
);
}
);
vertWidth = 1000;
width = 1000;
}
);
note = cid04265;
unicode = 14992;
}
{
glyphname = uni3B39;
layers = (
{
layerId = m01;
shapes = (
{
closed = 1;
nodes = (
(330,792,l),
(132,792,l),
(132,763,l),
(330,763,l)
);
},
{
closed = 1;
nodes = (
(330,551,l),
(132,551,l),
(132,522,l),
(330,522,l)
);
},
{
closed = 1;
nodes = (
(332,304,l),
(129,304,l),
(129,275,l),
(332,275,l)
);
},
{
closed = 1;
nodes = (
(147,792,l),
(118,792,l),
(118,437,ls),
(118,289,o),
(112,89,o),
(40,-55,c),
(48,-58,o),
(60,-65,o),
(66,-71,c),
(138,76,o),
(147,286,o),
(147,437,cs)
);
},
{
closed = 1;
nodes = (
(347,792,l),
(318,792,l),
(318,-22,ls),
(318,-37,o),
(312,-41,o),
(298,-42,cs),
(285,-43,o),
(240,-43,o),
(184,-42,c),
(189,-51,o),
(194,-64,o),
(197,-70,c),
(265,-71,o),
(300,-70,o),
(320,-65,cs),
(338,-60,o),
(347,-48,o),
(347,-22,cs)
);
},
{
closed = 1;
nodes = (
(868,195,l),
(434,195,l),
(434,166,l),
(868,166,l)
);
},
{
closed = 1;
nodes = (
(961,361,l),
(378,361,l),
(378,331,l),
(961,331,l)
);
},
{
closed = 1;
nodes = (
(883,522,l),
(440,522,l),
(440,492,l),
(854,492,l),
(854,131,l),
(883,131,l)
);
},
{
closed = 1;
nodes = (
(673,501,l),
(644,501,l),
(644,-21,ls),
(644,-36,o),
(640,-40,o),
(624,-41,cs),
(608,-42,o),
(555,-42,o),
(488,-40,c),
(493,-50,o),
(498,-62,o),
(501,-70,c),
(576,-70,o),
(622,-70,o),
(644,-65,cs),
(666,-59,o),
(673,-48,o),
(673,-20,cs)
);
},
{
closed = 1;
nodes = (
(851,820,l),
(770,798,o),
(614,777,o),
(485,766,c),
(489,758,o),
(494,747,o),
(495,740,c),
(626,751,o),
(782,771,o),
(878,797,c)
);
},
{
closed = 1;
nodes = (
(482,774,l),
(458,686,o),
(417,600,o),
(368,539,c),
(376,535,o),
(388,525,o),
(393,522,c),
(441,583,o),
(484,675,o),
(512,768,c)
);
},
{
closed = 1;
nodes = (
(614,716,l),
(638,664,o),
(659,597,o),
(663,552,c),
(693,560,l),
(687,604,o),
(667,671,o),
(641,722,c)
);
},
{
closed = 1;
nodes = (
(790,736,l),
(844,675,o),
(902,592,o),
(927,536,c),
(954,552,l),
(928,606,o),
(870,688,o),
(816,749,c)
);
}
);
vertWidth = 1000;
width = 1000;
},
{
layerId = "94DDBC6A-1627-4027-9125-871D02041BCD";
shapes = (
{
closed = 1;
nodes = (
(336,821,l),
(133,821,l),
(133,690,l),
(336,690,l)
);
},
{
closed = 1;
nodes = (
(305,596,l),
(124,596,l),
(124,465,l),
(305,465,l)
);
},
{
closed = 1;
nodes = (
(305,367,l),
(124,367,l),
(124,233,l),
(305,233,l)
);
},
{
closed = 1;
nodes = (
(193,821,l),
(71,821,l),
(71,455,ls),
(71,309,o),
(68,106,o),
(19,-31,c),
(50,-42,o),
(106,-72,o),
(130,-92,c),
(185,58,o),
(193,295,o),
(193,455,cs)
);
},
{
closed = 1;
nodes = (
(373,821,l),
(245,821,l),
(245,54,ls),
(245,43,o),
(242,39,o),
(232,39,cs),
(222,39,o),
(195,39,o),
(172,40,c),
(188,5,o),
(203,-57,o),
(206,-94,c),
(262,-94,o),
(301,-90,o),
(333,-67,cs),
(366,-44,o),
(373,-6,o),
(373,52,cs)
);
},
{
closed = 1;
nodes = (
(877,226,l),
(430,226,l),
(430,110,l),
(877,110,l)
);
},
{
closed = 1;
nodes = (
(978,391,l),
(396,391,l),
(396,268,l),
(978,268,l)
);
},
{
closed = 1;
nodes = (
(920,549,l),
(438,549,l),
(438,433,l),
(789,433,l),
(789,78,l),
(920,78,l)
);
},
{
closed = 1;
nodes = (
(727,484,l),
(588,484,l),
(588,47,ls),
(588,35,o),
(583,31,o),
(569,31,cs),
(556,31,o),
(508,31,o),
(471,33,c),
(488,-3,o),
(505,-58,o),
(510,-95,c),
(581,-95,o),
(634,-93,o),
(675,-73,cs),
(716,-53,o),
(727,-19,o),
(727,44,cs)
);
},
{
closed = 1;
nodes = (
(843,856,l),
(749,820,o),
(596,791,o),
(456,776,c),
(471,748,o),
(489,699,o),
(494,669,c),
(643,683,o),
(816,710,o),
(946,756,c)
);
},
{
closed = 1;
nodes = (
(457,805,l),
(439,725,o),
(405,638,o),
(365,583,c),
(397,566,o),
(455,529,o),
(481,507,c),
(523,572,o),
(567,677,o),
(592,773,c)
);
},
{
closed = 1;
nodes = (
(595,663,l),
(610,623,o),
(622,569,o),
(623,534,c),
(744,569,l),
(740,604,o),
(726,656,o),
(709,694,c)
);
},
{
closed = 1;
nodes = (
(766,688,l),
(801,634,o),
(841,560,o),
(858,513,c),
(974,575,l),
(954,621,o),
(914,690,o),
(877,741,c)
);
}
);
vertWidth = 1000;
width = 1000;
}
);
note = cid04444;
unicode = 15161;
}
{
glyphname = uni40D7;
layers = (
{
layerId = m01;
shapes = (
{
closed = 1;
nodes = (
(549,153,l),
(607,110,o),
(667,51,o),
(695,10,c),
(716,30,l),
(686,72,o),
(626,129,o),
(570,170,c)
);
},
{
closed = 1;
nodes = (
(647,380,l),
(626,333,o),
(592,269,o),
(566,226,c),
(588,215,l),
(616,257,o),
(649,316,o),
(675,369,c)
);
},
{
closed = 1;
nodes = (
(772,707,l),
(742,707,l),
(742,146,l),
(772,146,l)
);
},
{
closed = 1;
nodes = (
(921,816,l),
(891,816,l),
(891,-17,ls),
(891,-32,o),
(887,-35,o),
(875,-36,cs),
(861,-36,o),
(816,-37,o),
(765,-35,c),
(771,-46,o),
(776,-62,o),
(779,-70,c),
(833,-70,o),
(874,-69,o),
(893,-64,cs),
(912,-58,o),
(921,-46,o),
(921,-16,cs)
);
},
{
closed = 1;
nodes = (
(322,765,l),
(56,765,l),
(56,735,l),
(322,735,l)
);
},
{
closed = 1;
nodes = (
(293,473,l),
(135,473,l),
(135,443,l),
(265,443,l),
(265,105,l),
(135,105,l),
(135,76,l),
(293,76,l)
);
},
{
closed = 1;
nodes = (
(173,755,l),
(149,564,o),
(108,382,o),
(35,264,c),
(43,259,o),
(56,250,o),
(61,245,c),
(133,370,o),
(175,551,o),
(202,751,c)
);
},
{
closed = 1;
nodes = (
(150,473,l),
(122,473,l),
(122,-17,l),
(150,-17,l)
);
},
{
closed = 1;
nodes = (
(357,365,l),
(391,318,o),
(423,255,o),
(436,212,c),
(461,225,l),
(447,267,o),
(415,329,o),
(382,375,c)
);
},
{
closed = 1;
nodes = (
(641,746,l),
(437,746,l),
(437,717,l),
(641,717,l)
);
},
{
closed = 1;
nodes = (
(623,594,l),
(398,594,l),
(398,565,l),
(623,565,l)
);
},
{
closed = 1;
nodes = (
(709,466,l),
(328,466,l),
(328,436,l),
(709,436,l)
);
},
{
closed = 1;
nodes = (
(533,461,l),
(504,461,l),
(504,-30,ls),
(504,-40,o),
(501,-42,o),
(492,-43,cs),
(482,-43,o),
(453,-43,o),
(415,-42,c),
(420,-51,o),
(426,-64,o),
(427,-72,c),
(470,-72,o),
(498,-71,o),
(512,-66,cs),
(528,-61,o),
(533,-51,o),
(533,-30,cs)
);
},
{
closed = 1;
nodes = (
(335,7,l),
(384,50,o),
(437,98,o),
(489,147,c),
(478,171,l),
(418,118,o),
(359,66,o),
(318,33,c)
);
},
{
closed = 1;
nodes = (
(436,830,l),
(419,737,o),
(392,605,o),
(370,528,c),
(401,523,l),
(420,600,o),
(449,729,o),
(466,826,c)
);
},
{
closed = 1;
nodes = (
(633,746,l),
(629,746,l),
(629,740,l),
(621,675,o),
(603,541,o),
(586,452,c),
(615,449,l),
(631,539,o),
(650,665,o),
(659,745,c),
(639,749,l)
);
}
);
vertWidth = 1000;
width = 1000;
},
{
layerId = "94DDBC6A-1627-4027-9125-871D02041BCD";
shapes = (
{
closed = 1;
nodes = (
(535,133,l),
(592,97,o),
(651,49,o),
(679,16,c),
(734,115,l),
(705,145,o),
(645,188,o),
(588,221,c)
);
},
{
closed = 1;
nodes = (
(610,404,l),
(595,359,o),
(571,302,o),
(552,267,c),
(631,226,l),
(653,260,o),
(684,311,o),
(710,357,c)
);
},
{
closed = 1;
nodes = (
(816,751,l),
(705,751,l),
(705,166,l),
(816,166,l)
);
},
{
closed = 1;
nodes = (
(957,840,l),
(840,840,l),
(840,46,ls),
(840,32,o),
(836,28,o),
(823,28,cs),
(809,28,o),
(769,28,o),
(731,29,c),
(746,-6,o),
(761,-60,o),
(765,-93,c),
(832,-93,o),
(881,-88,o),
(914,-68,cs),
(947,-48,o),
(957,-15,o),
(957,46,cs)
);
},
{
closed = 1;
nodes = (
(319,813,l),
(26,813,l),
(26,699,l),
(319,699,l)
);
},
{
closed = 1;
nodes = (
(309,501,l),
(128,501,l),
(128,390,l),
(213,390,l),
(213,138,l),
(128,138,l),
(128,27,l),
(309,27,l)
);
},
{
closed = 1;
nodes = (
(115,745,l),
(100,579,o),
(74,418,o),
(11,314,c),
(29,279,o),
(52,200,o),
(57,166,c),
(157,303,o),
(203,516,o),
(228,726,c)
);
},
{
closed = 1;
nodes = (
(181,501,l),
(81,501,l),
(81,-39,l),
(181,-39,l)
);
},
{
closed = 1;
nodes = (
(319,353,l),
(343,309,o),
(367,251,o),
(375,214,c),
(467,269,l),
(458,305,o),
(431,361,o),
(406,402,c)
);
},
{
closed = 1;
nodes = (
(595,808,l),
(432,808,l),
(432,703,l),
(595,703,l)
);
},
{
closed = 1;
nodes = (
(587,665,l),
(415,665,l),
(415,560,l),
(587,560,l)
);
},
{
closed = 1;
nodes = (
(689,529,l),
(326,529,l),
(326,418,l),
(689,418,l)
);
},
{
closed = 1;
nodes = (
(571,479,l),
(455,479,l),
(455,35,ls),
(455,24,o),
(452,22,o),
(442,22,cs),
(431,21,o),
(401,21,o),
(372,23,c),
(386,-12,o),
(400,-62,o),
(403,-96,c),
(458,-96,o),
(500,-93,o),
(531,-74,cs),
(564,-54,o),
(571,-21,o),
(571,33,cs)
);
},
{
closed = 1;
nodes = (
(334,3,l),
(384,43,o),
(437,87,o),
(486,130,c),
(445,223,l),
(384,180,o),
(324,138,o),
(282,114,c)
);
},
{
closed = 1;
nodes = (
(400,855,l),
(383,758,o),
(356,634,o),
(333,555,c),
(444,545,l),
(465,622,o),
(491,744,o),
(510,843,c)
);
},
{
closed = 1;
nodes = (
(584,808,l),
(575,808,l),
(575,795,l),
(567,722,o),
(547,586,o),
(527,483,c),
(636,470,l),
(655,571,o),
(676,697,o),
(687,803,c),
(605,813,l)
);
}
);
vertWidth = 1000;
width = 1000;
}
);
note = cid05986;
unicode = 16599;
}
{
glyphname = uni41F6;
layers = (
{
layerId = m01;
shapes = (
{
closed = 1;
nodes = (
(842,433,l),
(215,433,l),
(215,404,l),
(842,404,l)
);
},
{
closed = 1;
nodes = (
(829,293,l),
(207,293,l),
(207,263,l),
(829,263,l)
);
},
{
closed = 1;
nodes = (
(840,141,l),
(195,141,l),
(195,111,l),
(840,111,l)
);
},
{
closed = 1;
nodes = (
(231,433,l),
(201,433,l),
(201,257,ls),
(201,160,o),
(183,38,o),
(78,-52,c),
(84,-56,o),
(93,-67,o),
(98,-75,c),
(210,20,o),
(231,153,o),
(231,256,cs)
);
},
{
closed = 1;
nodes = (
(855,433,l),
(825,433,l),
(825,-17,ls),
(825,-35,o),
(820,-39,o),
(800,-40,cs),
(779,-42,o),
(713,-42,o),
(623,-40,c),
(628,-50,o),
(633,-61,o),
(636,-70,c),
(736,-70,o),
(794,-71,o),
(820,-65,cs),
(847,-59,o),
(855,-45,o),
(855,-17,cs)
);
},
{
closed = 1;
nodes = (
(530,421,l),
(501,421,l),
(501,126,l),
(530,126,l)
);
},
{
closed = 1;
nodes = (
(651,566,l),
(329,566,l),
(329,537,l),
(651,537,l)
);
},
{
closed = 1;
nodes = (
(362,629,l),
(309,548,o),
(210,444,o),
(80,369,c),
(87,365,o),
(97,357,o),
(103,350,c),
(235,429,o),
(334,534,o),
(396,623,c)
);
},
{
closed = 1;
nodes = (
(648,566,l),
(642,566,l),
(642,559,l),
(611,514,o),
(553,455,o),
(502,422,c),
(509,419,o),
(519,413,o),
(524,408,c),
(575,443,o),
(636,499,o),
(674,554,c),
(654,568,l)
);
},
{
closed = 1;
nodes = (
(488,747,l),
(157,747,l),
(157,718,l),
(488,718,l)
);
},
{
closed = 1;
nodes = (
(924,747,l),
(531,747,l),
(531,718,l),
(924,718,l)
);
},
{
closed = 1;
nodes = (
(191,832,l),
(160,751,o),
(108,672,o),
(49,618,c),
(57,614,o),
(70,604,o),
(75,600,c),
(131,656,o),
(185,739,o),
(220,825,c)
);
},
{
closed = 1;
nodes = (
(571,832,l),
(537,750,o),
(476,676,o),
(408,626,c),
(416,621,o),
(428,612,o),
(433,607,c),
(500,659,o),
(564,738,o),
(600,825,c)
);
},
{
closed = 1;
nodes = (
(231,726,l),
(253,689,o),
(275,640,o),
(283,609,c),
(312,619,l),
(303,648,o),
(280,697,o),
(259,733,c)
);
},
{
closed = 1;
nodes = (
(633,727,l),
(668,691,o),
(703,640,o),
(718,606,c),
(743,620,l),
(728,653,o),
(692,703,o),
(658,739,c)
);
}
);
vertWidth = 1000;
width = 1000;
},
{
layerId = "94DDBC6A-1627-4027-9125-871D02041BCD";
shapes = (
{
closed = 1;
nodes = (
(831,453,l),
(263,453,l),
(263,341,l),
(831,341,l)
);
},
{
closed = 1;
nodes = (
(815,313,l),
(270,313,l),
(270,205,l),
(815,205,l)
);
},
{
closed = 1;
nodes = (
(813,176,l),
(250,176,l),
(250,66,l),
(813,66,l)
);
},
{
closed = 1;
nodes = (
(319,453,l),
(179,453,l),
(179,258,ls),
(179,170,o),
(169,66,o),
(49,-6,c),
(77,-23,o),
(132,-71,o),
(152,-96,c),
(292,-11,o),
(319,139,o),
(319,256,cs)
);
},
{
closed = 1;
nodes = (
(890,453,l),
(746,453,l),
(746,42,ls),
(746,28,o),
(739,24,o),
(720,23,cs),
(702,23,o),
(630,23,o),
(578,26,c),
(598,-6,o),
(621,-60,o),
(628,-95,c),
(714,-96,o),
(778,-94,o),
(826,-75,cs),
(875,-56,o),
(890,-22,o),
(890,39,cs)
);
},
{
closed = 1;
nodes = (
(593,407,l),
(456,407,l),
(456,124,l),
(593,124,l)
);
},
{
closed = 1;
nodes = (
(605,585,l),
(318,585,l),
(318,480,l),
(605,480,l)
);
},
{
closed = 1;
nodes = (
(283,639,l),
(238,551,o),
(157,453,o),
(32,380,c),
(65,361,o),
(113,315,o),
(135,285,c),
(276,379,o),
(368,491,o),
(438,614,c)
);
},
{
closed = 1;
nodes = (
(587,585,l),
(554,585,l),
(554,561,l),
(536,519,o),
(490,445,o),
(450,399,c),
(480,384,o),
(525,357,o),
(551,339,c),
(603,390,o),
(669,472,o),
(709,532,c),
(610,590,l)
);
},
{
closed = 1;
nodes = (
(485,790,l),
(174,790,l),
(174,680,l),
(485,680,l)
);
},
{
closed = 1;
nodes = (
(962,790,l),
(583,790,l),
(583,680,l),
(962,680,l)
);
},
{
closed = 1;
nodes = (
(170,865,l),
(138,789,o),
(79,709,o),
(15,660,c),
(48,643,o),
(106,605,o),
(133,582,c),
(195,640,o),
(263,735,o),
(305,828,c)
);
},
{
closed = 1;
nodes = (
(575,865,l),
(548,792,o),
(495,718,o),
(434,672,c),
(469,657,o),
(531,627,o),
(561,605,c),
(617,658,o),
(678,744,o),
(713,831,c)
);
},
{
closed = 1;
nodes = (
(216,688,l),
(236,662,o),
(259,624,o),
(268,601,c),
(395,643,l),
(383,668,o),
(357,703,o),
(336,727,c)
);
},
{
closed = 1;
nodes = (
(660,702,l),
(688,666,o),
(720,615,o),
(733,583,c),
(867,619,l),
(851,652,o),
(816,700,o),
(787,735,c)
);
}
);
vertWidth = 1000;
width = 1000;
}
);
note = cid06289;
unicode = 16886;
}
{
glyphname = uni48A2;
layers = (
{
layerId = m01;
shapes = (
{
closed = 1;
nodes = (
(229,87,l),
(229,355,l),
(50,355,l),
(50,326,l),
(199,326,l),
(199,87,l)
);
},
{
closed = 1;
nodes = (
(202,103,l),
(151,53,o),
(91,1,o),
(45,-36,c),
(65,-63,l),
(115,-19,o),
(167,28,o),
(216,75,c),
(280,-5,o),
(378,-46,o),
(518,-50,cs),
(623,-54,o),
(840,-52,o),
(940,-49,c),
(942,-39,o),
(947,-25,o),
(952,-18,c),
(848,-23,o),
(620,-25,o),
(516,-22,cs),
(386,-17,o),
(284,23,o),
(229,103,c)
);
},
{
closed = 1;
nodes = (
(95,792,l),
(160,760,o),
(231,709,o),
(267,669,c),
(286,691,l),
(251,730,o),
(179,780,o),
(115,812,c)
);
},
{
closed = 1;
nodes = (
(58,587,l),
(126,558,o),
(203,508,o),
(240,468,c),
(260,491,l),
(223,531,o),
(145,579,o),
(78,608,c)
);
},
{
closed = 1;
nodes = (
(827,465,l),
(424,465,l),
(424,435,l),
(827,435,l)
);
},
{
closed = 1;
nodes = (
(843,564,l),
(413,564,l),
(413,534,l),
(813,534,l),
(813,363,l),
(413,363,l),
(413,333,l),
(843,333,l)
);
},
{
closed = 1;
nodes = (
(435,564,l),
(405,564,l),
(405,441,ls),
(405,337,o),
(384,194,o),
(278,85,c),
(285,81,o),
(297,71,o),
(301,63,c),
(412,178,o),
(435,331,o),
(435,441,cs)
);
},
{
closed = 1;
nodes = (
(470,94,l),
(470,236,l),
(829,236,l),
(829,94,l)
);
},
{
closed = 1;
nodes = (
(859,265,l),
(440,265,l),
(440,64,l),
(859,64,l)
);
},
{
closed = 1;
nodes = (
(695,717,o),
(823,642,o),
(936,598,c),
(940,604,o),
(948,616,o),
(954,622,c),
(842,662,o),
(710,739,o),
(630,830,c),
(601,830,l),
(541,746,o),
(418,663,o),
(293,613,c),
(300,606,o),
(308,596,o),
(311,589,c),
(435,643,o),
(552,724,o),
(618,803,c)
);
},
{
closed = 1;
nodes = (
(765,660,l),
(481,660,l),
(481,631,l),
(765,631,l)
);
}
);
vertWidth = 1000;
width = 1000;
},
{
layerId = "94DDBC6A-1627-4027-9125-871D02041BCD";
shapes = (
{
closed = 1;
nodes = (
(286,75,l),
(286,406,l),
(41,406,l),
(41,273,l),
(144,273,l),
(144,75,l)
);
},
{
closed = 1;
nodes = (
(156,153,l),
(111,120,o),
(60,89,o),
(15,64,c),
(84,-84,l),
(138,-41,o),
(182,-5,o),
(224,32,c),
(288,-45,o),
(368,-71,o),
(487,-77,cs),
(611,-82,o),
(812,-80,o),
(938,-73,c),
(945,-31,o),
(967,37,o),
(983,71,c),
(840,58,o),
(611,55,o),
(489,60,cs),
(391,65,o),
(324,90,o),
(286,153,c)
);
},
{
closed = 1;
nodes = (
(81,764,l),
(133,729,o),
(198,677,o),
(226,640,c),
(329,737,l),
(297,774,o),
(229,821,o),
(178,852,c)
);
},
{
closed = 1;
nodes = (
(40,561,l),
(96,527,o),
(167,475,o),
(198,438,c),
(300,540,l),
(264,577,o),
(190,624,o),
(135,654,c)
);
},
{
closed = 1;
nodes = (
(797,500,l),
(481,500,l),
(481,431,l),
(797,431,l)
);
},
{
closed = 1;
nodes = (
(890,602,l),
(488,602,l),
(488,527,l),
(754,527,l),
(754,403,l),
(483,403,l),
(483,328,l),
(890,328,l)
);
},
{
closed = 1;
nodes = (
(517,602,l),
(386,602,l),
(386,485,ls),
(386,387,o),
(376,262,o),
(279,174,c),
(308,159,o),
(365,115,o),
(387,91,c),
(493,191,o),
(517,358,o),
(517,483,cs)
);
},
{
closed = 1;
nodes = (
(582,176,l),
(582,211,l),
(770,211,l),
(770,176,l)
);
},
{
closed = 1;
nodes = (
(906,296,l),
(453,296,l),
(453,90,l),
(906,90,l)
);
},
{
closed = 1;
nodes = (
(694,683,o),
(803,614,o),
(921,572,c),
(936,605,o),
(967,657,o),
(992,691,c),
(886,720,o),
(761,792,o),
(708,855,c),
(562,855,l),
(514,790,o),
(394,716,o),
(290,686,c),
(312,657,o),
(339,606,o),
(352,570,c),
(472,612,o),
(582,682,o),
(638,751,c)
);
},
{
closed = 1;
nodes = (
(747,705,l),
(531,705,l),
(531,626,l),
(747,626,l)
);
}
);
vertWidth = 1000;
width = 1000;
}
);
note = cid08133;
unicode = 18594;
}
{
glyphname = uni4BCB;
layers = (
{
layerId = m01;
shapes = (
{
closed = 1;
nodes = (
(950,613,l),
(490,613,l),
(490,583,l),
(950,583,l)
);
},
{
closed = 1;
nodes = (
(737,799,l),
(784,762,o),
(835,709,o),
(859,671,c),
(880,690,l),
(857,726,o),
(805,778,o),
(758,815,c)
);
},
{
closed = 1;
nodes = (
(615,826,l),
(609,452,o),
(592,148,o),
(460,-44,c),
(467,-49,o),
(478,-59,o),
(484,-64,c),
(618,143,o),
(635,436,o),
(645,825,c)
);
},
{
closed = 1;
nodes = (
(842,500,l),
(803,253,o),
(720,71,o),
(560,-40,c),
(567,-46,o),
(577,-57,o),
(581,-63,c),
(743,57,o),
(828,238,o),
(871,496,c)
);
},
{
closed = 1;
nodes = (
(611,587,l),
(652,278,o),
(742,33,o),
(933,-70,c),
(938,-63,o),
(948,-53,o),
(955,-47,c),
(765,47,o),
(675,291,o),
(635,591,c)
);
},
{
closed = 1;
nodes = (
(406,273,l),
(149,273,l),
(149,243,l),
(406,243,l)
);
},
{
closed = 1;
nodes = (
(406,141,l),
(149,141,l),
(149,112,l),
(406,112,l)
);
},
{
closed = 1;
nodes = (
(408,400,l),
(136,400,l),
(136,-70,l),
(166,-70,l),
(166,371,l),
(408,371,l)
);
},
{
closed = 1;
nodes = (
(420,400,l),
(390,400,l),
(390,-30,ls),
(390,-40,o),
(387,-43,o),
(377,-44,cs),
(366,-45,o),
(331,-45,o),
(287,-44,c),
(292,-52,o),
(298,-64,o),
(300,-71,c),
(353,-71,o),
(381,-71,o),
(398,-65,cs),
(415,-60,o),
(420,-50,o),
(420,-30,cs)
);
},
{
closed = 1;
nodes = (
(421,791,l),
(135,791,l),
(135,506,l),
(165,506,l),
(165,762,l),
(391,762,l),
(391,506,l),
(421,506,l)
);
},
{
closed = 1;
nodes = (
(481,521,l),
(75,521,l),
(75,402,l),
(104,402,l),
(104,491,l),
(452,491,l),
(452,411,l),
(481,411,l)
);
},
{
closed = 1;
nodes = (
(411,673,l),
(256,673,l),
(256,505,l),
(285,505,l),
(285,644,l),
(411,644,l)
);
}
);
vertWidth = 1000;
width = 1000;
},
{
layerId = "94DDBC6A-1627-4027-9125-871D02041BCD";
shapes = (
{
closed = 1;
nodes = (
(958,666,l),
(492,666,l),
(492,545,l),
(958,545,l)
);
},
{
closed = 1;
nodes = (
(718,770,l),
(772,738,o),
(840,688,o),
(871,653,c),
(961,749,l),
(926,784,o),
(855,829,o),
(802,857,c)
);
},
{
closed = 1;
nodes = (
(579,852,l),
(584,487,o),
(571,175,o),
(440,0,c),
(473,-20,o),
(541,-70,o),
(562,-92,c),
(697,117,o),
(714,449,o),
(714,852,c)
);
},
{
closed = 1;
nodes = (
(810,501,l),
(786,280,o),
(722,104,o),
(584,5,c),
(614,-16,o),
(667,-65,o),
(687,-89,c),
(832,32,o),
(908,231,o),
(943,486,c)
);
},
{
closed = 1;
nodes = (
(597,541,l),
(638,246,o),
(711,19,o),
(905,-98,c),
(924,-63,o),
(964,-11,o),
(992,13,c),
(814,104,o),
(739,310,o),
(705,556,c)
);
},
{
closed = 1;
nodes = (
(391,290,l),
(174,290,l),
(174,198,l),
(391,198,l)
);
},
{
closed = 1;
nodes = (
(391,168,l),
(174,168,l),
(174,73,l),
(391,73,l)
);
},
{
closed = 1;
nodes = (
(392,414,l),
(107,414,l),
(107,-96,l),
(233,-96,l),
(233,319,l),
(392,319,l)
);
},
{
closed = 1;
nodes = (
(459,414,l),
(330,414,l),
(330,29,ls),
(330,20,o),
(327,17,o),
(318,17,cs),
(310,17,o),
(286,17,o),
(266,18,c),
(281,-13,o),
(296,-61,o),
(301,-95,c),
(349,-95,o),
(388,-94,o),
(419,-75,cs),
(451,-56,o),
(459,-25,o),
(459,27,cs)
);
},
{
closed = 1;
nodes = (
(463,826,l),
(102,826,l),
(102,492,l),
(211,492,l),
(211,725,l),
(349,725,l),
(349,492,l),
(463,492,l)
);
},
{
closed = 1;
nodes = (
(531,536,l),
(37,536,l),
(37,372,l),
(152,372,l),
(152,441,l),
(410,441,l),
(410,372,l),
(531,372,l)
);
},
{
closed = 1;
nodes = (
(417,698,l),
(238,698,l),
(238,505,l),
(317,505,l),
(317,619,l),
(417,619,l)
);
}
);
vertWidth = 1000;
width = 1000;
}
);
note = cid08985;
unicode = 19403;
}
{
glyphname = uni4E22;
layers = (
{
layerId = m01;
shapes = (
{
closed = 1;
nodes = (
(835,577,l),
(169,577,l),
(169,547,l),
(835,547,l)
);
},
{
closed = 1;
nodes = (
(939,374,l),
(65,374,l),
(65,344,l),
(939,344,l)
);
},
{
closed = 1;
nodes = (
(514,754,l),
(484,754,l),
(484,361,l),
(514,361,l)
);
},
{
closed = 1;
nodes = (
(382,355,l),
(342,251,o),
(269,96,o),
(212,3,c),
(240,-8,l),
(298,87,o),
(365,234,o),
(414,345,c)
);
},
{
closed = 1;
nodes = (
(86,-25,l),
(280,-17,o),
(579,-4,o),
(861,10,c),
(862,36,l),
(573,23,o),
(267,11,o),
(82,6,c)
);
},
{
closed = 1;
nodes = (
(657,228,l),
(748,134,o),
(858,5,o),
(912,-75,c),
(937,-57,l),
(885,21,o),
(774,149,o),
(681,243,c)
);
},
{
closed = 1;
nodes = (
(825,821,l),
(675,781,o),
(370,758,o),
(133,748,c),
(137,739,o),
(141,726,o),
(142,718,c),
(381,726,o),
(685,751,o),
(848,793,c)
);
}
);
width = 1000;
},
{
layerId = "94DDBC6A-1627-4027-9125-871D02041BCD";
shapes = (
{
closed = 1;
nodes = (
(859,622,l),
(154,622,l),
(154,496,l),
(859,496,l)
);
},
{
closed = 1;
nodes = (
(956,432,l),
(42,432,l),
(42,298,l),
(956,298,l)
);
},
{
closed = 1;
nodes = (
(572,751,l),
(417,751,l),
(417,368,l),
(572,368,l)
);
},
{
closed = 1;
nodes = (
(312,359,l),
(287,260,o),
(239,134,o),
(193,48,c),
(325,3,l),
(375,82,o),
(438,200,o),
(490,312,c)
);
},
{
closed = 1;
nodes = (
(84,-61,l),
(283,-52,o),
(573,-38,o),
(839,-22,c),
(846,117,l),
(568,108,o),
(260,98,o),
(66,95,c)
);
},
{
closed = 1;
nodes = (
(602,221,l),
(688,125,o),
(782,-9,o),
(821,-98,c),
(967,-17,l),
(921,71,o),
(829,194,o),
(739,286,c)
);
},
{
closed = 1;
nodes = (
(776,855,l),
(610,820,o),
(349,800,o),
(111,797,c),
(124,766,o),
(141,710,o),
(144,675,c),
(384,677,o),
(662,694,o),
(879,740,c)
);
}
);
width = 1000;
}
);
note = cid09530;
unicode = 20002;
}
{
glyphname = uni4E2B;
layers = (
{
layerId = m01;
shapes = (
{
closed = 1;
nodes = (
(485,508,l),
(485,-70,l),
(515,-70,l),
(515,508,l)
);
},
{
closed = 1;
nodes = (
(176,794,l),
(278,717,o),
(387,616,o),
(442,548,c),
(464,570,l),
(408,639,o),
(298,739,o),
(196,812,c)
);
},
{
closed = 1;
nodes = (
(814,813,l),
(729,704,o),
(596,573,o),
(492,497,c),
(512,477,l),
(617,557,o),
(744,680,o),
(841,796,c)
);
}
);
vertWidth = 1000;
width = 1000;
},
{
layerId = "94DDBC6A-1627-4027-9125-871D02041BCD";
shapes = (
{
closed = 1;
nodes = (
(422,502,l),
(422,-95,l),
(577,-95,l),
(577,502,l)
);
},
{
closed = 1;
nodes = (
(98,766,l),
(183,691,o),
(275,576,o),
(320,488,c),
(452,577,l),
(406,655,o),
(310,765,o),
(219,844,c)
);
},
{
closed = 1;
nodes = (
(755,843,l),
(680,719,o),
(553,567,o),
(447,473,c),
(560,375,l),
(671,479,o),
(802,629,o),
(901,765,c)
);
}
);
vertWidth = 1000;
width = 1000;
}
);
note = cid09542;
unicode = 20011;
}
{
glyphname = uni4E93;
layers = (
{
layerId = m01;
shapes = (
{
closed = 1;
nodes = (
(827,755,l),
(179,755,l),
(179,726,l),
(827,726,l)
);
},
{
closed = 1;
nodes = (
(917,493,l),
(86,493,l),
(86,464,l),
(917,464,l)
);
},
{
closed = 1;
nodes = (
(344,475,l),
(314,475,l),
(314,431,ls),
(314,296,o),
(301,97,o),
(81,-51,c),
(88,-57,o),
(96,-67,o),
(101,-73,c),
(324,80,o),
(344,287,o),
(344,431,cs)
);
},
{
closed = 1;
nodes = (
(693,475,l),
(664,475,l),
(664,-70,l),
(693,-70,l)
);
}
);
vertWidth = 1000;
width = 1000;
},
{
layerId = "94DDBC6A-1627-4027-9125-871D02041BCD";
shapes = (
{
closed = 1;
nodes = (
(857,796,l),
(154,796,l),
(154,651,l),
(857,651,l)
);
},
{
closed = 1;
nodes = (
(933,534,l),
(68,534,l),
(68,387,l),
(933,387,l)
);
},
{
closed = 1;
nodes = (
(405,435,l),
(253,435,l),
(253,346,ls),
(253,258,o),
(231,118,o),
(36,12,c),
(69,-13,o),
(122,-66,o),
(144,-98,c),
(364,28,o),
(405,219,o),
(405,342,cs)
);
},
{
closed = 1;
nodes = (
(754,427,l),
(599,427,l),
(599,-95,l),
(754,-95,l)
);
}
);
vertWidth = 1000;
width = 1000;
}
);
note = cid09704;
unicode = 20115;
}
{
glyphname = uni4F4D;
layers = (
{
layerId = m01;
shapes = (
{
closed = 1;
nodes = (
(627,820,l),
(598,820,l),
(598,600,l),
(627,600,l)
);
},
{
closed = 1;
nodes = (
(926,618,l),
(313,618,l),
(313,588,l),
(926,588,l)
);
},
{
closed = 1;
nodes = (
(409,496,l),
(450,358,o),
(487,176,o),
(497,73,c),
(525,80,l),
(516,180,o),
(477,361,o),
(435,500,c)
);
},
{
closed = 1;
nodes = (
(801,511,l),
(772,379,o),
(721,200,o),
(678,77,c),
(704,69,l),
(746,188,o),
(799,368,o),
(832,504,c)
);
},
{
closed = 1;
nodes = (
(956,10,l),
(284,10,l),
(284,-19,l),
(956,-19,l)
);
},
{
closed = 1;
nodes = (
(299,827,l),
(236,667,o),
(134,511,o),
(27,410,c),
(34,404,o),
(44,391,o),
(49,385,c),
(157,494,o),
(260,651,o),
(328,819,c)
);
},
{
closed = 1;
nodes = (
(187,-68,l),
(217,-68,l),
(217,615,l),
(215,616,l),
(187,588,l)
);
}
);
vertWidth = 1000;
width = 1000;
},
{
layerId = "94DDBC6A-1627-4027-9125-871D02041BCD";
shapes = (
{
closed = 1;
nodes = (
(722,841,l),
(575,841,l),
(575,602,l),
(722,602,l)
);
},
{
closed = 1;
nodes = (
(961,683,l),
(353,683,l),
(353,546,l),
(961,546,l)
);
},
{
closed = 1;
nodes = (
(415,489,l),
(444,363,o),
(466,201,o),
(468,103,c),
(611,133,l),
(606,232,o),
(578,389,o),
(546,512,c)
);
},
{
closed = 1;
nodes = (
(737,517,l),
(725,395,o),
(698,234,o),
(670,125,c),
(802,98,l),
(834,203,o),
(872,366,o),
(895,492,c)
);
},
{
closed = 1;
nodes = (
(979,82,l),
(335,82,l),
(335,-55,l),
(979,-55,l)
);
},
{
closed = 1;
nodes = (
(242,853,l),
(190,717,o),
(100,580,o),
(8,495,c),
(32,459,o),
(71,377,o),
(83,342,c),
(198,455,o),
(310,639,o),
(378,808,c)
);
},
{
closed = 1;
nodes = (
(150,-92,l),
(288,-92,l),
(288,703,l),
(288,704,l),
(150,566,l)
);
}
);
vertWidth = 1000;
width = 1000;
}
);
note = cid09979;
unicode = 20301;
}
{
glyphname = uni4FDE;
layers = (
{
layerId = m01;
shapes = (
{
closed = 1;
nodes = (
(713,572,l),
(280,572,l),
(280,543,l),
(713,543,l)
);
},
{
closed = 1;
nodes = (
(598,680,o),
(784,553,o),
(944,482,c),
(948,489,o),
(956,501,o),
(963,507,c),
(805,573,o),
(614,703,o),
(504,830,c),
(476,830,l),
(391,711,o),
(215,576,o),
(36,495,c),
(43,488,o),
(50,478,o),
(54,472,c),
(232,556,o),
(406,690,o),
(493,801,c)
);
},
{
closed = 1;
nodes = (
(618,416,l),
(588,416,l),
(588,98,l),
(618,98,l)
);
},
{
closed = 1;
nodes = (
(453,442,l),
(424,442,l),
(424,-24,ls),
(424,-33,o),
(421,-36,o),
(409,-37,cs),
(396,-38,o),
(355,-38,o),
(305,-36,c),
(311,-46,o),
(317,-60,o),
(320,-67,c),
(373,-67,o),
(410,-67,o),
(428,-62,cs),
(448,-56,o),
(453,-45,o),
(453,-23,cs)
);
},
{
closed = 1;
nodes = (
(829,458,l),
(800,458,l),
(800,-22,ls),
(800,-34,o),
(797,-37,o),
(780,-38,cs),
(763,-39,o),
(709,-40,o),
(644,-38,c),
(650,-48,o),
(657,-61,o),
(660,-69,c),
(731,-69,o),
(776,-69,o),
(799,-64,cs),
(822,-58,o),
(829,-47,o),
(829,-22,cs)
);
},
{
closed = 1;
nodes = (
(444,442,l),
(162,442,l),
(162,-68,l),
(191,-68,l),
(191,413,l),
(444,413,l)
);
},
{
closed = 1;
nodes = (
(442,298,l),
(176,298,l),
(176,269,l),
(442,269,l)
);
},
{
closed = 1;
nodes = (
(442,152,l),
(176,152,l),
(176,123,l),
(442,123,l)
);
}
);
vertWidth = 1000;
width = 1000;
},
{
layerId = "94DDBC6A-1627-4027-9125-871D02041BCD";
shapes = (
{
closed = 1;
nodes = (
(715,609,l),
(242,609,l),
(242,488,l),
(715,488,l)
);
},
{
closed = 1;
nodes = (
(578,629,o),
(751,525,o),
(891,470,c),
(916,513,o),
(949,566,o),
(984,603,c),
(826,645,o),
(674,729,o),
(560,853,c),
(408,853,l),
(329,756,o),
(170,647,o),
(6,592,c),
(35,561,o),
(73,504,o),
(90,469,c),
(246,530,o),
(404,630,o),
(490,725,c)
);
},
{
closed = 1;
nodes = (
(675,423,l),
(546,423,l),
(546,67,l),
(675,67,l)
);
},
{
closed = 1;
nodes = (
(498,442,l),
(370,442,l),
(370,21,ls),
(370,10,o),
(368,7,o),
(359,7,cs),
(345,7,o),
(304,7,o),
(276,9,c),
(291,-16,o),
(311,-66,o),
(317,-97,c),
(372,-97,o),
(418,-95,o),
(452,-78,cs),
(488,-59,o),
(498,-31,o),
(498,19,cs)
);
},
{
closed = 1;
nodes = (
(861,448,l),
(728,448,l),
(728,35,ls),
(728,23,o),
(724,19,o),
(709,19,cs),
(695,19,o),
(650,19,o),
(611,20,c),
(629,-12,o),
(648,-60,o),
(653,-94,c),
(719,-94,o),
(772,-93,o),
(811,-75,cs),
(851,-57,o),
(861,-27,o),
(861,32,cs)
);
},
{
closed = 1;
nodes = (
(446,442,l),
(126,442,l),
(126,-93,l),
(251,-93,l),
(251,330,l),
(446,330,l)
);
},
{
closed = 1;
nodes = (
(429,297,l),
(183,297,l),
(183,199,l),
(429,199,l)
);
},
{
closed = 1;
nodes = (
(433,164,l),
(187,164,l),
(187,66,l),
(433,66,l)
);
}
);
vertWidth = 1000;
width = 1000;
}
);
note = cid10212;
unicode = 20446;
}
{
color = 9;
glyphname = uni4FEC;
layers = (
{
layerId = m01;
shapes = (
{
closed = 1;
nodes = (
(717,804,l),
(694,566,o),
(647,217,o),
(605,11,c),
(632,3,l),
(674,214,o),
(722,560,o),
(748,798,c)
);
},
{
closed = 1;
nodes = (
(810,346,l),
(862,216,o),
(909,45,o),
(922,-66,c),
(950,-60,l),
(937,52,o),
(890,223,o),
(836,353,c)
);
},
{
closed = 1;
nodes = (
(551,-16,l),
(652,-1,o),
(785,22,o),
(916,44,c),
(915,69,l),
(778,47,o),
(639,27,o),
(543,14,c)
);
},
{
closed = 1;
nodes = (
(446,737,l),
(446,-65,l),
(476,-65,l),
(476,737,l)
);
},
{
closed = 1;
nodes = (
(279,538,l),
(279,509,l),
(623,509,l),
(623,538,l)
);
},
{
closed = 1;
nodes = (
(447,529,l),
(412,386,o),
(335,213,o),
(269,129,c),
(276,124,o),
(285,113,o),
(290,106,c),
(356,195,o),
(433,375,o),
(471,521,c)
);
},
{
closed = 1;
nodes = (
(590,803,l),
(526,765,o),
(401,728,o),
(297,704,c),
(302,696,o),
(307,686,o),
(309,679,c),
(415,704,o),
(540,739,o),
(615,780,c)
);
},
{
closed = 1;
nodes = (
(455,395,l),
(482,369,o),
(575,259,o),
(598,224,c),
(621,247,l),
(599,275,o),
(499,385,o),
(474,410,c)
);
},
{
closed = 1;
nodes = (
(246,830,l),
(203,673,o),
(133,521,o),
(48,421,c),
(55,415,o),
(66,403,o),
(70,397,c),
(155,505,o),
(228,660,o),
(275,823,c)
);
},
{
closed = 1;
nodes = (
(172,606,l),
(172,-67,l),
(201,-67,l),
(201,634,l),
(201,635,l)
);
}
);
width = 1000;
},
{
layerId = "94DDBC6A-1627-4027-9125-871D02041BCD";
shapes = (
{
closed = 1;
nodes = (
(663,842,l),
(656,580,o),
(622,253,o),
(581,41,c),
(710,17,l),
(755,225,o),
(796,544,o),
(815,820,c)
);
},
{
closed = 1;
nodes = (
(750,366,l),
(798,221,o),
(838,28,o),
(843,-97,c),
(984,-48,l),
(973,79,o),
(932,265,o),
(878,413,c)
);
},
{
closed = 1;
nodes = (
(556,-66,l),
(659,-47,o),
(787,-23,o),
(908,2,c),
(897,132,l),
(762,111,o),
(619,90,o),
(524,79,c)
);
},
{
closed = 1;
nodes = (
(379,756,l),
(379,-95,l),
(502,-95,l),
(502,756,l)
);
},
{
closed = 1;
nodes = (
(270,574,l),
(270,439,l),
(617,439,l),
(617,574,l)
);
},
{
closed = 1;
nodes = (
(385,519,l),
(359,409,o),
(305,297,o),
(238,228,c),
(256,189,o),
(282,129,o),
(292,86,c),
(370,171,o),
(425,331,o),
(459,485,c)
);
},
{
closed = 1;
nodes = (
(547,849,l),
(476,812,o),
(362,781,o),
(258,764,c),
(271,735,o),
(285,684,o),
(289,652,c),
(400,667,o),
(529,695,o),
(628,741,c)
);
},
{
closed = 1;
nodes = (
(428,376,l),
(458,329,o),
(507,239,o),
(530,186,c),
(602,286,l),
(584,311,o),
(510,406,o),
(486,429,c)
);
},
{
closed = 1;
nodes = (
(176,853,l),
(139,721,o),
(76,589,o),
(6,502,c),
(27,464,o),
(59,378,o),
(68,343,c),
(165,460,o),
(252,647,o),
(305,814,c)
);
},
{
closed = 1;
nodes = (
(109,544,l),
(109,-94,l),
(235,-94,l),
(235,666,l),
(233,668,l)
);
}
);
width = 1000;
}
);
note = cid10209;
unicode = 20460;
}
{
glyphname = uni503C;
layers = (
{
layerId = m01;
shapes = (
{
closed = 1;
nodes = (
(911,717,l),
(324,717,l),
(324,687,l),
(911,687,l)
);
},
{
closed = 1;
nodes = (
(949,-11,l),
(282,-11,l),
(282,-40,l),
(949,-40,l)
);
},
{
closed = 1;
nodes = (
(846,569,l),
(387,569,l),
(387,-20,l),
(417,-20,l),
(417,539,l),
(817,539,l),
(817,-20,l),
(846,-20,l)
);
},
{
closed = 1;
nodes = (
(830,425,l),
(402,425,l),
(402,396,l),
(830,396,l)
);
},
{
closed = 1;
nodes = (
(834,281,l),
(401,281,l),
(401,252,l),
(834,252,l)
);
},
{
closed = 1;
nodes = (
(832,136,l),
(404,136,l),
(404,107,l),
(832,107,l)
);
},
{
closed = 1;
nodes = (
(626,831,l),
(597,831,l),
(597,553,l),
(626,553,l)
);
},
{
closed = 1;
nodes = (
(291,827,l),
(230,666,o),
(130,508,o),
(23,405,c),
(30,400,o),
(40,387,o),
(44,381,c),
(152,491,o),
(253,650,o),
(320,819,c)
);
},
{
closed = 1;
nodes = (
(207,616,l),
(180,588,l),
(180,-68,l),
(209,-68,l),
(209,615,l)
);
}
);
vertWidth = 1000;
width = 1000;
},
{
layerId = "94DDBC6A-1627-4027-9125-871D02041BCD";
shapes = (
{
closed = 1;
nodes = (
(955,770,l),
(333,770,l),
(333,647,l),
(955,647,l)
);
},
{
closed = 1;
nodes = (
(973,39,l),
(293,39,l),
(293,-82,l),
(973,-82,l)
);
},
{
closed = 1;
nodes = (
(904,592,l),
(375,592,l),
(375,20,l),
(511,20,l),
(511,484,l),
(762,484,l),
(762,20,l),
(904,20,l)
);
},
{
closed = 1;
nodes = (
(792,450,l),
(472,450,l),
(472,349,l),
(792,349,l)
);
},
{
closed = 1;
nodes = (
(825,314,l),
(469,314,l),
(469,213,l),
(825,213,l)
);
},
{
closed = 1;
nodes = (
(794,177,l),
(465,177,l),
(465,76,l),
(794,76,l)
);
},
{
closed = 1;
nodes = (
(704,855,l),
(561,855,l),
(561,549,l),
(704,549,l)
);
},
{
closed = 1;
nodes = (
(222,851,l),
(174,714,o),
(91,576,o),
(5,488,c),
(29,452,o),
(68,371,o),
(81,336,c),
(190,451,o),
(295,638,o),
(359,808,c)
);
},
{
closed = 1;
nodes = (
(268,702,l),
(130,564,l),
(130,-94,l),
(268,-94,l),
(268,701,l)
);
}
);
vertWidth = 1000;
width = 1000;
}
);
note = cid10373;
unicode = 20540;
}
{
glyphname = uni5077;
layers = (
{
layerId = m01;
shapes = (
{
closed = 1;
nodes = (
(784,569,l),
(400,569,l),
(400,539,l),
(784,539,l)
);
},
{
closed = 1;
nodes = (
(570,437,l),
(540,437,l),
(540,-27,ls),
(540,-37,o),
(537,-40,o),
(526,-41,cs),
(516,-41,o),
(481,-41,o),
(438,-40,c),
(443,-49,o),
(449,-61,o),
(450,-69,c),
(501,-69,o),
(531,-68,o),
(548,-64,cs),
(565,-58,o),
(570,-48,o),
(570,-26,cs)
);
},
{
closed = 1;
nodes = (
(553,437,l),
(319,437,l),
(319,-70,l),
(348,-70,l),
(348,408,l),
(553,408,l)
);
},
{
closed = 1;
nodes = (
(706,420,l),
(676,420,l),
(676,84,l),
(706,84,l)
);
},
{
closed = 1;
nodes = (
(681,694,o),
(824,586,o),
(950,521,c),
(954,527,o),
(962,539,o),
(968,545,c),
(844,606,o),
(698,716,o),
(611,824,c),
(582,824,l),
(516,720,o),
(378,606,o),
(240,535,c),
(247,529,o),
(255,520,o),
(259,513,c),
(397,586,o),
(529,699,o),
(599,795,c)
);
},
{
closed = 1;
nodes = (
(884,449,l),
(855,449,l),
(855,-25,ls),
(855,-37,o),
(852,-41,o),
(838,-42,cs),
(825,-43,o),
(783,-43,o),
(728,-41,c),
(733,-51,o),
(739,-63,o),
(741,-71,c),
(803,-71,o),
(840,-71,o),
(859,-65,cs),
(877,-60,o),
(884,-50,o),
(884,-25,cs)
);
},
{
closed = 1;
nodes = (
(256,822,l),
(203,659,o),
(118,498,o),
(24,392,c),
(31,386,o),
(41,375,o),
(45,369,c),
(141,482,o),
(228,644,o),
(284,816,c)
);
},
{
closed = 1;
nodes = (
(202,634,l),
(174,606,l),
(174,-71,l),
(203,-71,l),
(203,632,l)
);
},
{
closed = 1;
nodes = (
(550,294,l),
(335,294,l),
(335,264,l),
(550,264,l)
);
},
{
closed = 1;
nodes = (
(551,148,l),
(336,148,l),
(336,119,l),
(551,119,l)
);
}
);
vertWidth = 1000;
width = 1000;
},
{
layerId = "94DDBC6A-1627-4027-9125-871D02041BCD";
shapes = (
{
closed = 1;
nodes = (
(804,597,l),
(434,597,l),
(434,483,l),
(804,483,l)
);
},
{
closed = 1;
nodes = (
(630,445,l),
(504,445,l),
(504,39,ls),
(504,30,o),
(501,27,o),
(492,27,cs),
(484,27,o),
(459,26,o),
(437,28,c),
(452,-6,o),
(466,-58,o),
(469,-93,c),
(520,-93,o),
(559,-92,o),
(591,-71,cs),
(623,-51,o),
(630,-17,o),
(630,36,cs)
);
},
{
closed = 1;
nodes = (
(550,445,l),
(305,445,l),
(305,-95,l),
(429,-95,l),
(429,337,l),
(550,337,l)
);
},
{
closed = 1;
nodes = (
(779,422,l),
(663,422,l),
(663,66,l),
(779,66,l)
);
},
{
closed = 1;
nodes = (
(684,642,o),
(805,537,o),
(909,480,c),
(931,523,o),
(963,574,o),
(992,609,c),
(877,655,o),
(764,752,o),
(682,856,c),
(546,856,l),
(489,769,o),
(372,658,o),
(254,601,c),
(280,570,o),
(314,516,o),
(330,480,c),
(444,541,o),
(555,642,o),
(619,726,c)
);
},
{
closed = 1;
nodes = (
(931,454,l),
(811,454,l),
(811,32,ls),
(811,21,o),
(807,18,o),
(796,18,cs),
(784,18,o),
(746,18,o),
(713,19,c),
(727,-13,o),
(742,-62,o),
(746,-95,c),
(807,-95,o),
(853,-93,o),
(887,-75,cs),
(922,-56,o),
(931,-25,o),
(931,30,cs)
);
},
{
closed = 1;
nodes = (
(197,855,l),
(156,713,o),
(85,571,o),
(7,480,c),
(30,441,o),
(65,356,o),
(76,320,c),
(180,442,o),
(274,639,o),
(330,815,c)
);
},
{
closed = 1;
nodes = (
(252,698,l),
(118,564,l),
(118,-94,l),
(256,-94,l),
(256,696,l)
);
},
{
closed = 1;
nodes = (
(566,307,l),
(396,307,l),
(396,206,l),
(566,206,l)
);
},
{
closed = 1;
nodes = (
(566,175,l),
(396,175,l),
(396,74,l),
(566,74,l)
);
}
);
vertWidth = 1000;
width = 1000;
}
);
note = cid10476;
unicode = 20599;
}
{
glyphname = uni507A;
layers = (
{
layerId = m01;
shapes = (
{
closed = 1;
nodes = (
(249,823,l),
(203,660,o),
(127,502,o),
(37,397,c),
(44,391,o),
(55,379,o),
(59,374,c),
(150,485,o),
(228,646,o),
(278,817,c)
);
},
{
closed = 1;
nodes = (
(171,587,l),
(171,-70,l),
(200,-70,l),
(200,616,l),
(200,617,l)
);
},
{
closed = 1;
nodes = (
(367,673,l),
(442,410,o),
(588,356,o),
(793,356,cs),
(912,356,l),
(947,356,l),
(948,364,o),
(954,376,o),
(960,384,c),
(934,384,o),
(811,384,o),
(793,384,cs),
(605,384,o),
(460,435,o),
(393,687,c)
);
},
{
closed = 1;
nodes = (
(434,830,l),
(397,722,o),
(334,622,o),
(261,555,c),
(269,550,o),
(282,540,o),
(287,535,c),
(359,606,o),
(425,710,o),
(465,823,c)
);
},
{
closed = 1;
nodes = (
(408,729,l),
(393,700,l),
(589,700,l),
(589,729,l)
);
},
{
closed = 1;
nodes = (
(575,729,l),
(575,721,l),
(529,527,o),
(412,399,o),
(274,332,c),
(280,327,o),
(290,316,o),
(295,309,c),
(435,380,o),
(556,512,o),
(608,721,c),
(589,731,l),
(582,729,l)
);
},
{
closed = 1;
nodes = (
(387,302,l),
(387,-70,l),
(417,-70,l),
(417,273,l),
(819,273,l),
(819,-67,l),
(849,-67,l),
(849,302,l)
);
},
{
closed = 1;
nodes = (
(403,-4,l),
(403,-33,l),
(836,-33,l),
(836,-4,l)
);
},
{
closed = 1;
nodes = (
(402,150,l),
(402,121,l),
(835,121,l),
(835,150,l)
);
},
{
closed = 1;
nodes = (
(716,647,l),
(782,586,o),
(851,498,o),
(883,435,c),
(908,454,l),
(875,515,o),
(806,601,o),
(740,662,c)
);
},
{
closed = 1;
nodes = (
(750,815,l),
(733,661,o),
(672,535,o),
(579,463,c),
(586,457,o),
(595,444,o),
(599,438,c),
(697,517,o),
(762,651,o),
(780,812,c)
);
}
);
vertWidth = 1000;
width = 1000;
},
{
layerId = "94DDBC6A-1627-4027-9125-871D02041BCD";
shapes = (
{
closed = 1;
nodes = (
(203,853,l),
(160,714,o),
(86,575,o),
(6,486,c),
(28,448,o),
(63,363,o),
(73,326,c),
(180,446,o),
(278,638,o),
(336,812,c)
);
},
{
closed = 1;
nodes = (
(122,562,l),
(122,-96,l),
(260,-96,l),
(260,698,l),
(259,699,l)
);
},
{
closed = 1;
nodes = (
(351,629,l),
(427,387,o),
(594,328,o),
(793,328,cs),
(911,328,l),
(946,328,l),
(952,362,o),
(968,418,o),
(984,446,c),
(942,444,o),
(846,444,o),
(804,444,cs),
(653,444,o),
(504,484,o),
(450,664,c)
);
},
{
closed = 1;
nodes = (
(410,856,l),
(378,749,o),
(317,647,o),
(240,585,c),
(268,568,o),
(318,530,o),
(339,510,c),
(417,584,o),
(488,702,o),
(529,829,c)
);
},
{
closed = 1;
nodes = (
(483,773,l),
(386,665,l),
(574,665,l),
(574,773,l)
);
},
{
closed = 1;
nodes = (
(553,773,l),
(553,752,l),
(516,585,o),
(403,442,o),
(263,383,c),
(288,363,o),
(329,311,o),
(345,282,c),
(496,354,o),
(623,532,o),
(674,742,c),
(598,777,l),
(577,773,l)
);
},
{
closed = 1;
nodes = (
(381,312,l),
(381,-94,l),
(512,-94,l),
(512,199,l),
(752,199,l),
(752,-94,l),
(890,-94,l),
(890,312,l)
);
},
{
closed = 1;
nodes = (
(458,38,l),
(458,-69,l),
(812,-69,l),
(812,38,l)
);
},
{
closed = 1;
nodes = (
(458,168,l),
(458,71,l),
(812,71,l),
(812,168,l)
);
},
{
closed = 1;
nodes = (
(723,614,l),
(785,564,o),
(867,492,o),
(903,444,c),
(980,550,l),
(941,596,o),
(856,662,o),
(795,708,c)
);
},
{
closed = 1;
nodes = (
(749,848,l),
(727,716,o),
(676,597,o),
(594,526,c),
(623,508,o),
(675,466,o),
(696,444,c),
(784,530,o),
(845,669,o),
(877,827,c)
);
}
);
vertWidth = 1000;
width = 1000;
}
);
note = cid10459;
unicode = 20602;
}
{
glyphname = uni50AF;
layers = (
{
layerId = m01;
shapes = (
{
closed = 1;
nodes = (
(396,694,l),
(853,694,l),
(853,326,l),
(396,326,l)
);
},
{
closed = 1;
nodes = (
(367,723,l),
(367,296,l),
(882,296,l),
(882,723,l)
);
},
{
closed = 1;
nodes = (
(598,833,l),
(587,800,o),
(565,747,o),
(548,715,c),
(573,706,l),
(590,736,o),
(612,782,o),
(629,822,c)
);
},
{
closed = 1;
nodes = (
(516,263,l),
(578,229,o),
(651,176,o),
(686,138,c),
(708,159,l),
(672,196,o),
(599,248,o),
(537,280,c)
);
},
{
closed = 1;
nodes = (
(797,180,l),
(851,121,o),
(907,37,o),
(929,-19,c),
(956,-5,l),
(933,51,o),
(877,133,o),
(820,194,c)
);
},
{
closed = 1;
nodes = (
(472,196,l),
(472,5,ls),
(472,-41,o),
(489,-49,o),
(553,-49,cs),
(567,-49,o),
(704,-49,o),
(719,-49,cs),
(772,-49,o),
(783,-27,o),
(787,65,c),
(778,68,o),
(767,72,o),
(759,78,c),
(756,-9,o),
(750,-19,o),
(716,-19,cs),
(687,-19,o),
(572,-19,o),
(552,-19,cs),
(508,-19,o),
(501,-15,o),
(501,5,cs),
(501,196,l)
);
},
{
closed = 1;
nodes = (
(582,623,l),
(568,594,l),
(761,594,l),
(761,623,l)
);
},
{
closed = 1;
nodes = (
(750,623,l),
(750,617,l),
(709,488,o),
(594,403,o),
(482,367,c),
(488,361,o),
(496,350,o),
(500,343,c),
(619,384,o),
(734,473,o),
(781,617,c),
(763,625,l),
(757,623,l)
);
},
{
closed = 1;
nodes = (
(511,539,l),
(605,493,o),
(709,416,o),
(765,352,c),
(788,374,l),
(730,436,o),
(625,512,o),
(534,558,c)
);
},
{
closed = 1;
nodes = (
(604,682,l),
(571,608,o),
(507,538,o),
(439,500,c),
(447,495,o),
(456,486,o),
(462,481,c),
(532,523,o),
(597,597,o),
(631,673,c)
);
},
{
closed = 1;
nodes = (
(373,182,l),
(357,112,o),
(325,33,o),
(268,-9,c),
(290,-28,l),
(351,18,o),
(382,101,o),
(399,174,c)
);
},
{
closed = 1;
nodes = (
(291,827,l),
(230,666,o),
(130,508,o),
(23,405,c),
(30,400,o),
(40,387,o),
(44,381,c),
(152,491,o),
(253,650,o),
(320,819,c)
);
},
{
closed = 1;
nodes = (
(180,588,l),
(180,-68,l),
(209,-68,l),
(209,615,l),
(207,616,l)
);
}
);
vertWidth = 1000;
width = 1000;
},
{
layerId = "94DDBC6A-1627-4027-9125-871D02041BCD";
shapes = (
{
closed = 1;
nodes = (
(472,651,l),
(809,651,l),
(809,371,l),
(472,371,l)
);
},
{
closed = 1;
nodes = (
(350,765,l),
(350,256,l),
(940,256,l),
(940,765,l)
);
},
{
closed = 1;
nodes = (
(590,860,l),
(585,823,o),
(573,773,o),
(562,735,c),
(696,720,l),
(711,752,o),
(730,797,o),
(750,849,c)
);
},
{
closed = 1;
nodes = (
(535,235,l),
(589,203,o),
(652,153,o),
(678,115,c),
(766,200,l),
(735,238,o),
(671,284,o),
(616,312,c)
);
},
{
closed = 1;
nodes = (
(766,150,l),
(810,85,o),
(850,-5,o),
(863,-64,c),
(983,-3,l),
(967,57,o),
(925,141,o),
(878,204,c)
);
},
{
closed = 1;
nodes = (
(472,200,l),
(472,65,ls),
(472,-43,o),
(495,-80,o),
(607,-80,cs),
(628,-80,o),
(677,-80,o),
(700,-80,cs),
(779,-80,o),
(813,-52,o),
(827,57,c),
(792,65,o),
(738,85,o),
(714,104,c),
(711,45,o),
(706,38,o),
(686,38,cs),
(673,38,o),
(637,38,o),
(626,38,cs),
(602,38,o),
(598,40,o),
(598,67,cs),
(598,200,l)
);
},
{
closed = 1;
nodes = (
(616,632,l),
(582,564,l),
(743,564,l),
(743,632,l)
);
},
{
closed = 1;
nodes = (
(712,632,l),
(712,618,l),
(686,535,o),
(611,467,o),
(504,430,c),
(522,415,o),
(547,384,o),
(559,364,c),
(676,405,o),
(764,494,o),
(804,612,c),
(745,635,l),
(728,632,l)
);
},
{
closed = 1;
nodes = (
(509,510,l),
(595,476,o),
(690,421,o),
(740,375,c),
(805,436,l),
(751,483,o),
(656,537,o),
(576,566,c)
);
},
{
closed = 1;
nodes = (
(583,677,l),
(563,618,o),
(515,567,o),
(459,544,c),
(481,527,o),
(506,501,o),
(517,483,c),
(584,517,o),
(641,584,o),
(664,657,c)
);
},
{
closed = 1;
nodes = (
(340,202,l),
(330,125,o),
(306,52,o),
(264,5,c),
(373,-65,l),
(425,-7,o),
(445,81,o),
(458,169,c)
);
},
{
closed = 1;
nodes = (
(222,851,l),
(174,713,o),
(91,575,o),
(5,488,c),
(29,452,o),
(68,371,o),
(81,335,c),
(190,451,o),
(295,637,o),
(359,808,c)
);
},
{
closed = 1;
nodes = (
(130,564,l),
(130,-94,l),
(268,-94,l),
(268,701,l),
(268,702,l)
);
}
);
vertWidth = 1000;
width = 1000;
}
);
note = cid10560;
unicode = 20655;
}
{
color = 9;
glyphname = uni519A;
layers = (
{
layerId = m01;
shapes = (
{
closed = 1;
nodes = (
(180,39,l),
(180,9,l),
(828,9,l),
(828,39,l)
);
},
{
closed = 1;
nodes = (
(165,435,l),
(165,-71,l),
(194,-71,l),
(194,435,l)
);
},
{
closed = 1;
nodes = (
(812,435,l),
(812,-67,l),
(841,-67,l),
(841,435,l)
);
},
{
closed = 1;
nodes = (
(485,613,l),
(485,22,l),
(515,22,l),
(515,613,l)
);
},
{
closed = 1;
nodes = (
(109,766,l),
(109,577,l),
(138,577,l),
(138,736,l),
(865,736,l),
(865,577,l),
(894,577,l),
(894,766,l)
);
}
);
vertWidth = 1000;
width = 1000;
},
{
layerId = "94DDBC6A-1627-4027-9125-871D02041BCD";
shapes = (
{
closed = 1;
nodes = (
(175,111,l),
(175,-31,l),
(826,-31,l),
(826,111,l)
);
},
{
closed = 1;
nodes = (
(104,421,l),
(104,-95,l),
(256,-95,l),
(256,421,l)
);
},
{
closed = 1;
nodes = (
(749,421,l),
(749,-95,l),
(901,-95,l),
(901,421,l)
);
},
{
closed = 1;
nodes = (
(421,593,l),
(421,47,l),
(573,47,l),
(573,593,l)
);
},
{
closed = 1;
nodes = (
(65,802,l),
(65,535,l),
(216,535,l),
(216,660,l),
(781,660,l),
(781,535,l),
(939,535,l),
(939,802,l)
);
}
);
vertWidth = 1000;
width = 1000;
}
);
note = cid10975;
unicode = 20890;
}
{
glyphname = uni51A2;
layers = (
{
layerId = m01;
shapes = (
{
closed = 1;
nodes = (
(919,774,l),
(90,774,l),
(90,585,l),
(120,585,l),
(120,745,l),
(890,745,l),
(890,585,l),
(919,585,l)
);
},
{
closed = 1;
nodes = (
(824,627,l),
(188,627,l),
(188,598,l),
(824,598,l)
);
},
{
closed = 1;
nodes = (
(318,485,l),
(578,327,o),
(638,65,o),
(525,-18,cs),
(495,-41,o),
(465,-42,o),
(430,-42,cs),
(409,-42,o),
(374,-41,o),
(336,-37,c),
(341,-45,o),
(344,-59,o),
(345,-67,c),
(381,-69,o),
(414,-70,o),
(438,-70,cs),
(479,-70,o),
(513,-65,o),
(547,-38,cs),
(674,54,o),
(611,341,o),
(337,503,c)
);
},
{
closed = 1;
nodes = (
(500,622,l),
(401,535,o),
(231,459,o),
(85,413,c),
(92,407,o),
(102,393,o),
(106,386,c),
(249,438,o),
(421,518,o),
(526,610,c)
);
},
{
closed = 1;
nodes = (
(438,409,l),
(359,333,o),
(198,246,o),
(79,206,c),
(85,200,o),
(93,188,o),
(96,180,c),
(218,227,o),
(377,316,o),
(461,393,c)
);
},
{
closed = 1;
nodes = (
(532,287,l),
(435,172,o),
(236,47,o),
(71,-5,c),
(77,-12,o),
(84,-22,o),
(87,-31,c),
(255,28,o),
(452,153,o),
(555,272,c)
);
},
{
closed = 1;
nodes = (
(519,614,l),
(575,323,o),
(698,108,o),
(922,17,c),
(927,26,o),
(936,36,o),
(943,42,c),
(721,125,o),
(600,338,o),
(545,620,c)
);
},
{
closed = 1;
nodes = (
(856,518,l),
(797,460,o),
(696,379,o),
(623,332,c),
(643,313,l),
(716,362,o),
(813,434,o),
(878,498,c)
);
},
{
closed = 1;
nodes = (
(177,346,l),
(279,254,o),
(386,129,o),
(437,42,c),
(461,61,l),
(409,148,o),
(301,272,o),
(199,362,c)
);
}
);
vertWidth = 1000;
width = 1000;
},
{
layerId = "94DDBC6A-1627-4027-9125-871D02041BCD";
shapes = (
{
closed = 1;
nodes = (
(940,808,l),
(62,808,l),
(62,564,l),
(202,564,l),
(202,683,l),
(793,683,l),
(793,564,l),
(940,564,l)
);
},
{
closed = 1;
nodes = (
(769,642,l),
(228,642,l),
(228,526,l),
(769,526,l)
);
},
{
closed = 1;
nodes = (
(277,414,l),
(525,274,o),
(533,94,o),
(465,51,c),
(448,36,o),
(427,34,o),
(401,34,cs),
(373,34,o),
(341,35,o),
(306,40,c),
(331,0,o),
(342,-55,o),
(343,-93,c),
(372,-95,o),
(402,-96,o),
(428,-96,cs),
(482,-95,o),
(516,-87,o),
(557,-58,c),
(691,25,o),
(692,311,o),
(379,483,c)
);
},
{
closed = 1;
nodes = (
(472,612,l),
(377,532,o),
(204,465,o),
(45,430,c),
(71,404,o),
(112,349,o),
(130,321,c),
(288,370,o),
(474,453,o),
(590,555,c)
);
},
{
closed = 1;
nodes = (
(402,407,l),
(324,349,o),
(167,285,o),
(49,260,c),
(77,232,o),
(109,187,o),
(127,154,c),
(244,194,o),
(403,271,o),
(492,339,c)
);
},
{
closed = 1;
nodes = (
(485,299,l),
(389,208,o),
(198,122,o),
(33,91,c),
(61,60,o),
(90,12,o),
(106,-24,c),
(270,23,o),
(467,122,o),
(577,226,c)
);
},
{
closed = 1;
nodes = (
(529,569,l),
(580,286,o),
(664,78,o),
(879,-27,c),
(900,13,o),
(945,74,o),
(978,103,c),
(779,181,o),
(690,361,o),
(648,588,c)
);
},
{
closed = 1;
nodes = (
(827,506,l),
(775,448,o),
(689,377,o),
(624,336,c),
(721,259,l),
(786,299,o),
(872,362,o),
(941,424,c)
);
},
{
closed = 1;
nodes = (
(153,312,l),
(235,226,o),
(317,114,o),
(353,39,c),
(474,101,l),
(433,175,o),
(345,284,o),
(263,364,c)
);
}
);
vertWidth = 1000;
width = 1000;
}
);
note = cid11010;
unicode = 20898;
}
{
glyphname = uni5241;
layers = (
{
layerId = m01;
name = ExtraLight;
shapes = (
{
closed = 1;
nodes = (
(68,363,l),
(68,333,l),
(584,333,l),
(584,363,l)
);
},
{
closed = 1;
nodes = (
(316,481,l),
(316,-70,l),
(345,-70,l),
(345,481,l)
);
},
{
closed = 1;
nodes = (
(315,357,l),
(262,234,o),
(159,104,o),
(47,20,c),
(55,14,o),
(64,4,o),
(70,-4,c),
(183,85,o),
(287,220,o),
(340,346,c)
);
},
{
closed = 1;
nodes = (
(671,718,l),
(671,166,l),
(701,166,l),
(701,718,l)
);
},
{
closed = 1;
nodes = (
(871,825,l),
(871,-18,ls),
(871,-35,o),
(865,-40,o),
(848,-41,cs),
(833,-42,o),
(780,-42,o),
(715,-40,c),
(721,-49,o),
(725,-63,o),
(728,-69,c),
(808,-70,o),
(848,-70,o),
(869,-65,cs),
(890,-59,o),
(902,-48,o),
(902,-17,cs),
(902,825,l)
);
},
{
closed = 1;
nodes = (
(211,795,l),
(211,766,l),
(441,766,l),
(441,795,l)
);
},
{
closed = 1;
nodes = (
(197,795,l),
(197,687,ls),
(197,617,o),
(174,529,o),
(68,464,c),
(75,460,o),
(84,449,o),
(87,441,c),
(200,512,o),
(227,609,o),
(227,687,cs),
(227,795,l)
);
},
{
closed = 1;
nodes = (
(322,266,l),
(400,208,o),
(486,137,o),
(567,60,c),
(587,82,l),
(503,158,o),
(417,228,o),
(341,284,c)
);
},
{
closed = 1;
nodes = (
(428,795,l),
(428,528,ls),
(428,483,o),
(442,475,o),
(490,475,cs),
(498,475,o),
(525,475,o),
(533,475,cs),
(582,475,o),
(591,505,o),
(593,597,c),
(584,600,o),
(573,604,o),
(564,611,c),
(562,520,o),
(558,505,o),
(530,505,cs),
(522,505,o),
(499,505,o),
(491,505,cs),
(462,505,o),
(457,509,o),
(457,528,cs),
(457,795,l)
);
}
);
vertWidth = 1000;
width = 1000;
},
{
layerId = "94DDBC6A-1627-4027-9125-871D02041BCD";
name = Heavy;
shapes = (
{
closed = 1;
nodes = (
(40,395,l),
(40,266,l),
(580,266,l),
(580,395,l)
);
},
{
closed = 1;
nodes = (
(233,471,l),
(233,-95,l),
(377,-95,l),
(377,471,l)
);
},
{
closed = 1;
nodes = (
(236,327,l),
(186,220,o),
(98,121,o),
(8,70,c),
(39,45,o),
(83,-6,o),
(104,-39,c),
(197,26,o),
(291,154,o),
(347,291,c)
);
},
{
closed = 1;
nodes = (
(619,746,l),
(619,179,l),
(754,179,l),
(754,746,l)
);
},
{
closed = 1;
nodes = (
(802,832,l),
(802,72,ls),
(802,55,o),
(796,50,o),
(779,50,cs),
(760,50,o),
(705,50,o),
(652,53,c),
(671,11,o),
(692,-55,o),
(697,-96,c),
(781,-96,o),
(845,-91,o),
(887,-67,cs),
(930,-43,o),
(943,-4,o),
(943,71,cs),
(943,832,l)
);
},
{
closed = 1;
nodes = (
(215,822,l),
(215,694,l),
(405,694,l),
(405,822,l)
);
},
{
closed = 1;
nodes = (
(134,822,l),
(134,720,ls),
(134,651,o),
(124,569,o),
(25,508,c),
(52,489,o),
(107,433,o),
(125,405,c),
(245,483,o),
(271,613,o),
(271,717,cs),
(271,822,l)
);
},
{
closed = 1;
nodes = (
(275,196,l),
(335,144,o),
(429,51,o),
(489,-16,c),
(588,88,l),
(520,142,o),
(422,216,o),
(365,256,c)
);
},
{
closed = 1;
nodes = (
(341,822,l),
(341,605,ls),
(341,487,o),
(372,450,o),
(465,450,cs),
(475,450,o),
(486,450,o),
(496,450,cs),
(553,450,o),
(587,490,o),
(596,633,c),
(564,640,o),
(526,661,o),
(498,687,c),
(496,588,o),
(493,573,o),
(483,573,cs),
(482,573,o),
(479,573,o),
(478,573,cs),
(471,573,o),
(467,577,o),
(467,607,cs),
(467,822,l)
);
}
);
vertWidth = 1000;
width = 1000;
}
);
note = cid11222;
unicode = 21057;
}
{
glyphname = uni53A9;
layers = (
{
layerId = m01;
shapes = (
{
closed = 1;
nodes = (
(943,354,l),
(585,354,l),
(585,325,l),
(943,325,l)
);
},
{
closed = 1;
nodes = (
(930,631,l),
(555,631,l),
(555,602,l),
(930,602,l)
);
},
{
closed = 1;
nodes = (
(946,767,l),
(151,767,l),
(151,737,l),
(946,737,l)
);
},
{
closed = 1;
nodes = (
(166,767,l),
(136,767,l),
(136,481,ls),
(136,325,o),
(129,108,o),
(48,-52,c),
(55,-55,o),
(68,-64,o),
(73,-69,c),
(155,94,o),
(166,322,o),
(166,480,cs)
);
},
{
closed = 1;
nodes = (
(256,351,l),
(256,455,l),
(486,455,l),
(486,351,l)
);
},
{
closed = 1;
nodes = (
(256,484,l),
(256,586,l),
(486,586,l),
(486,484,l)
);
},
{
closed = 1;
nodes = (
(516,616,l),
(227,616,l),
(227,322,l),
(516,322,l)
);
},
{
closed = 1;
nodes = (
(373,711,l),
(364,679,o),
(345,631,o),
(331,601,c),
(355,591,l),
(370,620,o),
(386,662,o),
(401,700,c)
);
},
{
closed = 1;
nodes = (
(263,294,l),
(233,294,l),
(233,23,ls),
(233,-24,o),
(250,-33,o),
(310,-33,cs),
(323,-33,o),
(448,-33,o),
(462,-33,cs),
(513,-33,o),
(524,-11,o),
(526,80,c),
(518,82,o),
(506,86,o),
(498,92,c),
(495,8,o),
(490,-4,o),
(459,-4,cs),
(433,-4,o),
(328,-4,o),
(309,-4,cs),
(270,-4,o),
(263,1,o),
(263,23,cs)
);
},
{
closed = 1;
nodes = (
(481,251,l),
(428,220,o),
(329,185,o),
(242,162,c),
(246,155,o),
(252,145,o),
(254,138,c),
(342,162,o),
(444,194,o),
(510,229,c)
);
},
{
closed = 1;
nodes = (
(777,610,l),
(769,268,o),
(721,65,o),
(505,-52,c),
(512,-58,o),
(524,-69,o),
(528,-75,c),
(744,55,o),
(797,252,o),
(809,609,c)
);
},
{
closed = 1;
nodes = (
(781,314,l),
(752,314,l),
(752,-5,ls),
(752,-51,o),
(765,-60,o),
(812,-60,cs),
(824,-60,o),
(886,-60,o),
(898,-60,cs),
(946,-60,o),
(954,-29,o),
(957,95,c),
(948,97,o),
(936,102,o),
(929,108,c),
(927,-13,o),
(922,-31,o),
(895,-31,cs),
(877,-31,o),
(826,-31,o),
(812,-31,cs),
(786,-31,o),
(781,-27,o),
(781,-5,cs)
);
},
{
closed = 1;
nodes = (
(605,557,l),
(593,464,o),
(574,347,o),
(559,274,c),
(588,269,l),
(603,343,o),
(622,461,o),
(634,554,c)
);
}
);
vertWidth = 1000;
width = 1000;
},
{
layerId = "94DDBC6A-1627-4027-9125-871D02041BCD";
shapes = (
{
closed = 1;
nodes = (
(961,389,l),
(647,389,l),
(647,274,l),
(961,274,l)
);
},
{
closed = 1;
nodes = (
(951,644,l),
(590,644,l),
(590,535,l),
(951,535,l)
);
},
{
closed = 1;
nodes = (
(962,808,l),
(174,808,l),
(174,687,l),
(962,687,l)
);
},
{
closed = 1;
nodes = (
(229,808,l),
(91,808,l),
(91,486,ls),
(91,335,o),
(86,121,o),
(14,-23,c),
(49,-35,o),
(111,-70,o),
(138,-92,c),
(217,65,o),
(229,318,o),
(229,486,cs)
);
},
{
closed = 1;
nodes = (
(369,375,l),
(369,415,l),
(451,415,l),
(451,375,l)
);
},
{
closed = 1;
nodes = (
(369,496,l),
(369,535,l),
(451,535,l),
(451,496,l)
);
},
{
closed = 1;
nodes = (
(568,622,l),
(257,622,l),
(257,288,l),
(568,288,l)
);
},
{
closed = 1;
nodes = (
(359,694,l),
(353,657,o),
(339,606,o),
(326,569,c),
(433,544,l),
(450,575,o),
(472,621,o),
(496,669,c)
);
},
{
closed = 1;
nodes = (
(376,272,l),
(254,272,l),
(254,77,ls),
(254,-27,o),
(277,-62,o),
(382,-62,cs),
(402,-62,o),
(450,-62,o),
(471,-62,cs),
(549,-62,o),
(581,-29,o),
(593,91,c),
(560,98,o),
(510,117,o),
(486,136,c),
(483,59,o),
(478,47,o),
(458,47,cs),
(446,47,o),
(411,47,o),
(402,47,cs),
(379,47,o),
(376,50,o),
(376,78,cs)
);
},
{
closed = 1;
nodes = (
(487,270,l),
(442,242,o),
(369,212,o),
(301,192,c),
(315,169,o),
(331,130,o),
(337,106,c),
(414,123,o),
(507,150,o),
(579,186,c)
);
},
{
closed = 1;
nodes = (
(762,556,l),
(754,275,o),
(702,89,o),
(519,-10,c),
(546,-29,o),
(597,-75,o),
(614,-96,c),
(802,27,o),
(867,232,o),
(883,551,c)
);
},
{
closed = 1;
nodes = (
(867,289,l),
(749,289,l),
(749,54,ls),
(749,-49,o),
(767,-84,o),
(849,-84,cs),
(864,-84,o),
(877,-84,o),
(891,-84,cs),
(960,-84,o),
(982,-47,o),
(987,89,c),
(957,98,o),
(919,119,o),
(900,137,c),
(897,30,o),
(895,16,o),
(885,16,cs),
(882,16,o),
(878,16,o),
(875,16,cs),
(868,16,o),
(867,19,o),
(867,55,cs)
);
},
{
closed = 1;
nodes = (
(611,516,l),
(602,425,o),
(587,317,o),
(574,253,c),
(685,241,l),
(697,304,o),
(713,413,o),
(724,506,c)
);
}
);
vertWidth = 1000;
width = 1000;
}
);
note = cid62160;
unicode = 21417;
}
{
glyphname = uni53F6;
layers = (
{
layerId = m01;
shapes = (
{
closed = 1;
nodes = (
(953,473,l),
(372,473,l),
(372,443,l),
(953,443,l)
);
},
{
closed = 1;
nodes = (
(667,812,l),
(637,812,l),
(637,-70,l),
(667,-70,l)
);
},
{
closed = 1;
nodes = (
(354,719,l),
(100,719,l),
(100,690,l),
(325,690,l),
(325,209,l),
(100,209,l),
(100,180,l),
(354,180,l)
);
},
{
closed = 1;
nodes = (
(112,719,l),
(83,719,l),
(83,97,l),
(112,97,l)
);
}
);
vertWidth = 1000;
width = 1000;
},
{
layerId = "94DDBC6A-1627-4027-9125-871D02041BCD";
shapes = (
{
closed = 1;
nodes = (
(977,535,l),
(421,535,l),
(421,392,l),
(977,392,l)
);
},
{
closed = 1;
nodes = (
(772,837,l),
(620,837,l),
(620,-95,l),
(772,-95,l)
);
},
{
closed = 1;
nodes = (
(403,757,l),
(138,757,l),
(138,623,l),
(265,623,l),
(265,296,l),
(138,296,l),
(138,162,l),
(403,162,l)
);
},
{
closed = 1;
nodes = (
(197,757,l),
(63,757,l),
(63,86,l),
(197,86,l)
);
}
);
vertWidth = 1000;
width = 1000;
}
);
note = cid11952;
unicode = 21494;
}
{
glyphname = uni5416;
layers = (
{
layerId = m01;
shapes = (
{
closed = 1;
nodes = (
(363,719,l),
(100,719,l),
(100,690,l),
(333,690,l),
(333,209,l),
(100,209,l),
(100,180,l),
(363,180,l)
);
},
{
closed = 1;
nodes = (
(112,719,l),
(83,719,l),
(83,84,l),
(112,84,l)
);
},
{
closed = 1;
nodes = (
(365,805,l),
(452,717,o),
(545,592,o),
(589,502,c),
(615,518,l),
(569,608,o),
(476,733,o),
(390,819,c)
);
},
{
closed = 1;
nodes = (
(924,825,l),
(849,707,o),
(729,564,o),
(634,479,c),
(656,461,l),
(753,549,o),
(867,684,o),
(952,811,c)
);
},
{
closed = 1;
nodes = (
(656,490,l),
(626,490,l),
(626,-70,l),
(656,-70,l)
);
}
);
vertWidth = 1000;
width = 1000;
},
{
layerId = "94DDBC6A-1627-4027-9125-871D02041BCD";
shapes = (
{
closed = 1;
nodes = (
(384,758,l),
(148,758,l),
(148,624,l),
(247,624,l),
(247,297,l),
(148,297,l),
(148,163,l),
(384,163,l)
);
},
{
closed = 1;
nodes = (
(192,758,l),
(59,758,l),
(59,87,l),
(192,87,l)
);
},
{
closed = 1;
nodes = (
(388,794,l),
(441,707,o),
(493,584,o),
(514,497,c),
(653,556,l),
(628,641,o),
(572,761,o),
(517,847,c)
);
},
{
closed = 1;
nodes = (
(824,851,l),
(782,728,o),
(701,564,o),
(629,456,c),
(748,389,l),
(818,496,o),
(905,653,o),
(973,798,c)
);
},
{
closed = 1;
nodes = (
(748,482,l),
(598,482,l),
(598,-94,l),
(748,-94,l)
);
}
);
vertWidth = 1000;
width = 1000;
}
);
note = cid11992;
unicode = 21526;
}
{
glyphname = uni5433;
layers = (
{
layerId = m01;
shapes = (
{
closed = 1;
nodes = (
(932,212,l),
(67,212,l),
(67,182,l),
(932,182,l)
);
},
{
closed = 1;
nodes = (
(807,399,l),
(186,399,l),
(186,749,l),
(157,749,l),
(157,370,l),
(777,370,l),
(777,196,l),
(807,196,l)
);
},
{
closed = 1;
nodes = (
(362,536,l),
(362,752,l),
(792,752,l),
(792,536,l)
);
},
{
closed = 1;
nodes = (
(821,781,l),
(332,781,l),
(332,507,l),
(821,507,l)
);
},
{
closed = 1;
nodes = (
(489,386,l),
(472,126,o),
(405,-1,o),
(51,-49,c),
(56,-56,o),
(63,-67,o),
(65,-74,c),
(425,-22,o),
(498,109,o),
(520,386,c)
);
},
{
closed = 1;
nodes = (
(518,196,l),
(567,30,o),
(708,-48,o),
(937,-72,c),
(941,-63,o),
(948,-53,o),
(955,-46,c),
(727,-27,o),
(589,46,o),
(543,202,c)
);
}
);
vertWidth = 1000;
width = 1000;
},
{
layerId = "94DDBC6A-1627-4027-9125-871D02041BCD";
shapes = (
{
closed = 1;
nodes = (
(958,263,l),
(44,263,l),
(44,131,l),
(958,131,l)
);
},
{
closed = 1;
nodes = (
(834,460,l),
(265,460,l),
(265,757,l),
(118,757,l),
(118,330,l),
(686,330,l),
(686,188,l),
(834,188,l)
);
},
{
closed = 1;
nodes = (
(468,623,l),
(468,690,l),
(706,690,l),
(706,623,l)
);
},
{
closed = 1;
nodes = (
(852,812,l),
(331,812,l),
(331,500,l),
(852,500,l)
);
},
{
closed = 1;
nodes = (
(415,345,l),
(402,145,o),
(382,68,o),
(22,24,c),
(47,-6,o),
(78,-61,o),
(87,-97,c),
(496,-35,o),
(543,89,o),
(560,345,c)
);
},
{
closed = 1;
nodes = (
(445,179,l),
(523,-1,o),
(635,-76,o),
(891,-99,c),
(909,-57,o),
(946,5,o),
(977,36,c),
(756,42,o),
(639,86,o),
(584,198,c)
);
}
);
vertWidth = 1000;
width = 1000;
}
);
note = cid12040;
unicode = 21555;
}
{
glyphname = uni5454;
layers = (
{
layerId = m01;
shapes = (
{
closed = 1;
nodes = (
(954,544,l),
(376,544,l),
(376,515,l),
(954,515,l)
);
},
{
closed = 1;
nodes = (
(569,120,l),
(628,76,o),
(695,10,o),
(727,-33,c),
(750,-10,l),
(717,31,o),
(650,94,o),
(589,140,c)
);
},
{
closed = 1;
nodes = (
(642,828,l),
(641,567,o),
(638,130,o),
(304,-51,c),
(311,-56,o),
(324,-65,o),
(329,-71,c),
(666,119,o),
(670,555,o),
(672,828,c)
);
},
{
closed = 1;
nodes = (
(636,529,l),
(685,265,o),
(783,40,o),
(939,-69,c),
(945,-62,o),
(955,-52,o),
(962,-46,c),
(808,54,o),
(711,277,o),
(664,535,c)
);
},
{
closed = 1;
nodes = (
(331,721,l),
(98,721,l),
(98,692,l),
(302,692,l),
(302,229,l),
(98,229,l),
(98,199,l),
(331,199,l)
);
},
{
closed = 1;
nodes = (
(113,721,l),
(84,721,l),
(84,117,l),
(113,117,l)
);
}
);
vertWidth = 1000;
width = 1000;
},
{
layerId = "94DDBC6A-1627-4027-9125-871D02041BCD";
shapes = (
{
closed = 1;
nodes = (
(963,609,l),
(384,609,l),
(384,469,l),
(963,469,l)
);
},
{
closed = 1;
nodes = (
(537,69,l),
(587,27,o),
(641,-30,o),
(667,-71,c),
(772,26,l),
(745,63,o),
(689,115,o),
(638,151,c)
);
},
{
closed = 1;
nodes = (
(590,855,l),
(586,568,o),
(603,206,o),
(267,16,c),
(307,-12,o),
(349,-57,o),
(371,-94,c),
(725,125,o),
(728,531,o),
(732,855,c)
);
},
{
closed = 1;
nodes = (
(600,509,l),
(650,249,o),
(733,33,o),
(892,-95,c),
(914,-58,o),
(960,-5,o),
(992,21,c),
(851,123,o),
(768,322,o),
(729,534,c)
);
},
{
closed = 1;
nodes = (
(360,758,l),
(141,758,l),
(141,623,l),
(238,623,l),
(238,296,l),
(141,296,l),
(141,162,l),
(360,162,l)
);
},
{
closed = 1;
nodes = (
(184,758,l),
(59,758,l),
(59,83,l),
(184,83,l)
);
}
);
vertWidth = 1000;
width = 1000;
}
);
note = cid12088;
unicode = 21588;
}
{
glyphname = uni5463;
layers = (
{
layerId = m01;
shapes = (
{
closed = 1;
nodes = (
(456,763,l),
(443,549,o),
(413,224,o),
(389,52,c),
(420,50,l),
(441,221,o),
(470,544,o),
(484,763,c)
);
},
{
closed = 1;
nodes = (
(863,763,l),
(465,763,l),
(465,733,l),
(863,733,l)
);
},
{
closed = 1;
nodes = (
(850,763,l),
(850,753,ls),
(836,204,o),
(819,16,o),
(787,-23,c),
(777,-38,o),
(768,-40,o),
(750,-40,cs),
(730,-40,o),
(681,-39,o),
(626,-35,c),
(631,-43,o),
(634,-56,o),
(635,-65,c),
(679,-69,o),
(725,-70,o),
(753,-69,cs),
(780,-68,o),
(798,-63,o),
(814,-40,cs),
(852,8,o),
(865,178,o),
(879,738,cs),
(879,744,o),
(879,763,o),
(879,763,c)
);
},
{
closed = 1;
nodes = (
(953,447,l),
(343,447,l),
(343,418,l),
(953,418,l)
);
},
{
closed = 1;
nodes = (
(939,130,l),
(414,130,l),
(410,100,l),
(939,100,l)
);
},
{
closed = 1;
nodes = (
(572,655,l),
(623,612,o),
(683,551,o),
(712,511,c),
(733,530,l),
(705,570,o),
(645,629,o),
(593,671,c)
);
},
{
closed = 1;
nodes = (
(554,328,l),
(611,287,o),
(677,227,o),
(710,186,c),
(730,208,l),
(698,247,o),
(631,305,o),
(574,346,c)
);
},
{
closed = 1;
nodes = (
(316,706,l),
(100,706,l),
(100,676,l),
(286,676,l),
(286,231,l),
(100,231,l),
(100,202,l),
(316,202,l)
);
},
{
closed = 1;
nodes = (
(114,706,l),
(84,706,l),
(84,115,l),
(114,115,l)
);
}
);
vertWidth = 1000;
width = 1000;
},
{
layerId = "94DDBC6A-1627-4027-9125-871D02041BCD";
shapes = (
{
closed = 1;
nodes = (
(433,812,l),
(428,551,o),
(405,226,o),
(379,19,c),
(514,10,l),
(535,215,o),
(556,545,o),
(566,812,c)
);
},
{
closed = 1;
nodes = (
(813,812,l),
(494,812,l),
(494,691,l),
(813,691,l)
);
},
{
closed = 1;
nodes = (
(789,812,l),
(789,776,ls),
(785,277,o),
(778,90,o),
(756,55,cs),
(747,38,o),
(731,33,o),
(715,33,cs),
(693,33,o),
(661,34,o),
(623,37,c),
(644,0,o),
(660,-58,o),
(662,-94,c),
(710,-95,o),
(758,-96,o),
(793,-87,cs),
(830,-78,o),
(854,-63,o),
(879,-20,cs),
(911,35,o),
(917,214,o),
(923,742,cs),
(923,760,o),
(923,812,o),
(923,812,c)
);
},
{
closed = 1;
nodes = (
(975,512,l),
(359,512,l),
(359,391,l),
(975,391,l)
);
},
{
closed = 1;
nodes = (
(961,207,l),
(471,207,l),
(455,83,l),
(961,83,l)
);
},
{
closed = 1;
nodes = (
(574,642,l),
(613,601,o),
(655,544,o),
(672,506,c),
(766,569,l),
(748,608,o),
(702,662,o),
(663,700,c)
);
},
{
closed = 1;
nodes = (
(553,331,l),
(597,292,o),
(647,236,o),
(668,198,c),
(757,271,l),
(734,309,o),
(681,361,o),
(637,397,c)
);
},
{
closed = 1;
nodes = (
(339,756,l),
(144,756,l),
(144,627,l),
(219,627,l),
(219,306,l),
(144,306,l),
(144,177,l),
(339,177,l)
);
},
{
closed = 1;
nodes = (
(176,756,l),
(60,756,l),
(60,94,l),
(176,94,l)
);
}
);
vertWidth = 1000;
width = 1000;
}
);
note = cid12107;
unicode = 21603;
}
{
glyphname = uni5478;
layers = (
{
layerId = m01;
shapes = (
{
closed = 1;
nodes = (
(935,748,l),
(375,748,l),
(375,719,l),
(935,719,l)
);
},
{
closed = 1;
nodes = (
(949,-6,l),
(344,-6,l),
(344,-35,l),
(949,-35,l)
);
},
{
closed = 1;
nodes = (
(701,726,l),
(623,547,o),
(489,396,o),
(334,301,c),
(342,295,o),
(354,284,o),
(358,278,c),
(511,379,o),
(646,531,o),
(729,718,c)
);
},
{
closed = 1;
nodes = (
(694,544,l),
(776,472,o),
(874,371,o),
(922,309,c),
(945,328,l),
(897,389,o),
(798,488,o),
(717,560,c)
);
},
{
closed = 1;
nodes = (
(646,590,l),
(623,568,l),
(623,41,l),
(653,41,l),
(653,587,l)
);
},
{
closed = 1;
nodes = (
(319,717,l),
(97,717,l),
(97,687,l),
(289,687,l),
(289,270,l),
(97,270,l),
(97,240,l),
(319,240,l)
);
},
{
closed = 1;
nodes = (
(111,717,l),
(82,717,l),
(82,152,l),
(111,152,l)
);
}
);
vertWidth = 1000;
width = 1000;
},
{
layerId = "94DDBC6A-1627-4027-9125-871D02041BCD";
shapes = (
{
closed = 1;
nodes = (
(954,805,l),
(391,805,l),
(391,670,l),
(954,670,l)
);
},
{
closed = 1;
nodes = (
(973,68,l),
(365,68,l),
(365,-67,l),
(973,-67,l)
);
},
{
closed = 1;
nodes = (
(637,714,l),
(579,580,o),
(470,460,o),
(347,390,c),
(377,363,o),
(428,305,o),
(449,275,c),
(579,364,o),
(703,511,o),
(777,672,c)
);
},
{
closed = 1;
nodes = (
(680,496,l),
(745,430,o),
(831,337,o),
(868,278,c),
(979,369,l),
(938,428,o),
(847,515,o),
(783,576,c)
);
},
{
closed = 1;
nodes = (
(653,611,l),
(582,540,l),
(582,89,l),
(724,89,l),
(724,607,l)
);
},
{
closed = 1;
nodes = (
(363,758,l),
(124,758,l),
(124,624,l),
(230,624,l),
(230,316,l),
(124,316,l),
(124,182,l),
(363,182,l)
);
},
{
closed = 1;
nodes = (
(184,758,l),
(53,758,l),
(53,96,l),
(184,96,l)
);
}
);
vertWidth = 1000;
width = 1000;
}
);
note = cid12142;
unicode = 21624;
}
{
glyphname = uni549A;
layers = (
{
layerId = m01;
shapes = (
{
closed = 1;
nodes = (
(819,717,l),
(819,709,l),
(735,512,o),
(530,374,o),
(327,305,c),
(334,300,o),
(343,288,o),
(348,280,c),
(552,355,o),
(760,495,o),
(852,707,c),
(834,719,l),
(827,717,l)
);
},
{
closed = 1;
nodes = (
(438,-42,l),
(556,-7,o),
(720,44,o),
(874,93,c),
(869,120,l),
(705,70,o),
(534,18,o),
(424,-13,c)
);
},
{
closed = 1;
nodes = (
(534,293,l),
(605,257,o),
(692,204,o),
(737,168,c),
(758,192,l),
(711,227,o),
(624,278,o),
(554,312,c)
);
},
{
closed = 1;
nodes = (
(558,830,l),
(516,708,o),
(434,588,o),
(346,518,c),
(355,513,o),
(368,502,o),
(373,497,c),
(460,571,o),
(543,697,o),
(587,823,c)
);
},
{
closed = 1;
nodes = (
(483,661,l),
(553,525,o),
(715,357,o),
(941,274,c),
(945,282,o),
(953,293,o),
(960,299,c),
(734,377,o),
(571,545,o),
(502,684,c)
);
},
{
closed = 1;
nodes = (
(518,717,l),
(518,687,l),
(831,687,l),
(831,717,l)
);
},
{
closed = 1;
nodes = (
(102,721,l),
(102,692,l),
(280,692,l),
(280,247,l),
(102,247,l),
(102,218,l),
(310,218,l),
(310,721,l)
);
},
{
closed = 1;
nodes = (
(84,721,l),
(84,113,l),
(114,113,l),
(114,721,l)
);
}
);
width = 1000;
},
{
layerId = "94DDBC6A-1627-4027-9125-871D02041BCD";
shapes = (
{
closed = 1;
nodes = (
(792,765,l),
(792,740,l),
(722,559,o),
(538,427,o),
(323,365,c),
(350,339,o),
(391,276,o),
(406,241,c),
(632,320,o),
(837,481,o),
(934,719,c),
(844,770,l),
(820,765,l)
);
},
{
closed = 1;
nodes = (
(478,-75,l),
(607,-46,o),
(776,-7,o),
(917,27,c),
(901,156,l),
(756,124,o),
(571,86,o),
(420,57,c)
);
},
{
closed = 1;
nodes = (
(524,234,l),
(592,198,o),
(667,151,o),
(705,119,c),
(789,223,l),
(746,254,o),
(670,297,o),
(604,327,c)
);
},
{
closed = 1;
nodes = (
(541,856,l),
(494,744,o),
(405,632,o),
(310,565,c),
(342,543,o),
(398,495,o),
(422,469,c),
(522,554,o),
(622,691,o),
(681,824,c)
);
},
{
closed = 1;
nodes = (
(435,636,l),
(515,489,o),
(677,323,o),
(900,246,c),
(920,284,o),
(964,343,o),
(994,372,c),
(774,429,o),
(612,569,o),
(540,696,c)
);
},
{
closed = 1;
nodes = (
(515,769,l),
(515,646,l),
(835,642,l),
(835,765,l)
);
},
{
closed = 1;
nodes = (
(130,758,l),
(130,624,l),
(222,624,l),
(222,316,l),
(130,316,l),
(130,182,l),
(350,182,l),
(350,758,l)
);
},
{
closed = 1;
nodes = (
(55,758,l),
(55,96,l),
(182,96,l),
(182,758,l)
);
}
);
width = 1000;
}
);
note = cid12165;
unicode = 21658;
}
{
glyphname = uni54B4;
layers = (
{
layerId = m01;
shapes = (
{
closed = 1;
nodes = (
(314,720,l),
(98,720,l),
(98,691,l),
(284,691,l),
(284,246,l),
(98,246,l),
(98,217,l),
(314,217,l)
);
},
{
closed = 1;
nodes = (
(113,720,l),
(84,720,l),
(84,130,l),
(113,130,l)
);
},
{
closed = 1;
nodes = (
(950,698,l),
(344,698,l),
(344,669,l),
(950,669,l)
);
},
{
closed = 1;
nodes = (
(462,829,l),
(433,829,l),
(433,578,ls),
(433,374,o),
(421,140,o),
(288,-57,c),
(296,-60,o),
(307,-67,o),
(312,-73,c),
(449,128,o),
(462,366,o),
(462,579,cs)
);
},
{
closed = 1;
nodes = (
(716,611,l),
(687,611,l),
(687,360,ls),
(687,301,o),
(658,66,o),
(422,-48,c),
(429,-55,o),
(438,-65,o),
(442,-71,c),
(635,28,o),
(692,202,o),
(701,273,c),
(711,203,o),
(766,23,o),
(937,-71,c),
(941,-65,o),
(951,-53,o),
(957,-46,c),
(745,63,o),
(716,304,o),
(716,360,cs)
);
},
{
closed = 1;
nodes = (
(558,472,l),
(550,390,o),
(532,304,o),
(489,253,c),
(517,240,l),
(560,292,o),
(576,381,o),
(586,466,c)
);
},
{
closed = 1;
nodes = (
(894,475,l),
(874,413,o),
(837,317,o),
(808,261,c),
(833,251,l),
(864,307,o),
(899,396,o),
(925,465,c)
);
}
);
vertWidth = 1000;
width = 1000;
},
{
layerId = "94DDBC6A-1627-4027-9125-871D02041BCD";
shapes = (
{
closed = 1;
nodes = (
(339,757,l),
(144,757,l),
(144,628,l),
(219,628,l),
(219,301,l),
(144,301,l),
(144,172,l),
(339,172,l)
);
},
{
closed = 1;
nodes = (
(171,757,l),
(55,757,l),
(55,86,l),
(171,86,l)
);
},
{
closed = 1;
nodes = (
(975,760,l),
(357,760,l),
(357,629,l),
(975,629,l)
);
},
{
closed = 1;
nodes = (
(540,855,l),
(407,855,l),
(407,595,ls),
(407,427,o),
(398,154,o),
(278,-16,c),
(312,-32,o),
(367,-71,o),
(393,-95,c),
(527,98,o),
(540,401,o),
(540,595,cs)
);
},
{
closed = 1;
nodes = (
(813,595,l),
(685,595,l),
(685,348,ls),
(685,264,o),
(644,108,o),
(482,14,c),
(506,-12,o),
(540,-65,o),
(555,-96,c),
(667,-30,o),
(734,95,o),
(749,163,c),
(763,95,o),
(816,-32,o),
(913,-96,c),
(932,-63,o),
(966,-10,o),
(990,20,c),
(849,113,o),
(813,266,o),
(813,348,cs)
);
},
{
closed = 1;
nodes = (
(578,466,l),
(568,388,o),
(546,305,o),
(509,252,c),
(606,208,l),
(646,264,o),
(664,355,o),
(676,439,c)
);
},
{
closed = 1;
nodes = (
(868,479,l),
(857,410,o),
(832,314,o),
(810,254,c),
(908,231,l),
(931,288,o),
(958,376,o),
(982,456,c)
);
}
);
vertWidth = 1000;
width = 1000;
}
);
note = cid12228;
unicode = 21684;
}
{
glyphname = uni54CF;
layers = (
{
layerId = m01;
shapes = (
{
closed = 1;
nodes = (
(414,782,l),
(414,-19,l),
(443,-12,l),
(443,782,l)
);
},
{
closed = 1;
nodes = (
(429,782,l),
(429,753,l),
(854,753,l),
(854,393,l),
(429,393,l),
(429,364,l),
(883,364,l),
(883,782,l)
);
},
{
closed = 1;
nodes = (
(430,586,l),
(430,557,l),
(867,557,l),
(867,586,l)
);
},
{
closed = 1;
nodes = (
(319,-51,l),
(424,-31,o),
(578,-3,o),
(721,25,c),
(719,52,l),
(564,24,o),
(405,-6,o),
(307,-22,c)
);
},
{
closed = 1;
nodes = (
(591,368,l),
(648,165,o),
(767,1,o),
(931,-72,c),
(936,-64,o),
(945,-54,o),
(953,-47,c),
(790,19,o),
(671,180,o),
(617,376,c)
);
},
{
closed = 1;
nodes = (
(904,316,l),
(850,268,o),
(757,203,o),
(691,164,c),
(711,142,l),
(777,182,o),
(865,241,o),
(926,296,c)
);
},
{
closed = 1;
nodes = (
(99,719,l),
(99,689,l),
(303,689,l),
(303,226,l),
(99,226,l),
(99,196,l),
(332,196,l),
(332,719,l)
);
},
{
closed = 1;
nodes = (
(84,719,l),
(84,114,l),
(114,114,l),
(114,719,l)
);
}
);
width = 1000;
},
{
layerId = "94DDBC6A-1627-4027-9125-871D02041BCD";
shapes = (
{
closed = 1;
nodes = (
(414,809,l),
(414,-9,l),
(562,25,l),
(562,809,l)
);
},
{
closed = 1;
nodes = (
(478,809,l),
(478,683,l),
(761,683,l),
(761,446,l),
(478,446,l),
(478,321,l),
(909,321,l),
(909,809,l)
);
},
{
closed = 1;
nodes = (
(478,627,l),
(478,506,l),
(822,506,l),
(822,627,l)
);
},
{
closed = 1;
nodes = (
(367,-81,l),
(461,-66,o),
(580,-46,o),
(690,-26,c),
(681,104,l),
(555,85,o),
(423,66,o),
(332,55,c)
);
},
{
closed = 1;
nodes = (
(603,356,l),
(648,140,o),
(720,-16,o),
(891,-94,c),
(911,-55,o),
(954,4,o),
(986,32,c),
(836,87,o),
(763,215,o),
(729,376,c)
);
},
{
closed = 1;
nodes = (
(861,308,l),
(821,264,o),
(754,208,o),
(706,176,c),
(797,101,l),
(846,132,o),
(912,180,o),
(964,229,c)
);
},
{
closed = 1;
nodes = (
(142,769,l),
(142,635,l),
(235,635,l),
(235,299,l),
(142,299,l),
(142,165,l),
(372,165,l),
(372,769,l)
);
},
{
closed = 1;
nodes = (
(59,769,l),
(59,80,l),
(192,80,l),
(192,769,l)
);
}
);
width = 1000;
}
);
note = cid12242;
unicode = 21711;
}
{
glyphname = uni54D6;
layers = (
{
layerId = m01;
shapes = (
{
closed = 1;
nodes = (
(545,834,l),
(506,703,o),
(446,574,o),
(369,489,c),
(377,485,o),
(391,477,o),
(397,473,c),
(469,561,o),
(533,690,o),
(574,828,c)
);
},
{
closed = 1;
nodes = (
(924,692,l),
(504,692,l),
(490,663,l),
(924,663,l)
);
},
{
closed = 1;
nodes = (
(904,472,l),
(477,472,l),
(477,180,l),
(507,180,l),
(507,442,l),
(904,442,l)
);
},
{
closed = 1;
nodes = (
(950,195,l),
(366,195,l),
(366,166,l),
(950,166,l)
);
},
{
closed = 1;
nodes = (
(711,683,l),
(681,683,l),
(681,-71,l),
(711,-71,l)
);
},
{
closed = 1;
nodes = (
(326,721,l),
(98,721,l),
(98,692,l),
(296,692,l),
(296,229,l),
(98,229,l),
(98,199,l),
(326,199,l)
);
},
{
closed = 1;
nodes = (
(113,721,l),
(84,721,l),
(84,117,l),
(113,117,l)
);
}
);
vertWidth = 1000;
width = 1000;
},
{
layerId = "94DDBC6A-1627-4027-9125-871D02041BCD";
shapes = (
{
closed = 1;
nodes = (
(489,859,l),
(462,742,o),
(401,617,o),
(331,534,c),
(363,506,o),
(407,458,o),
(431,424,c),
(515,538,o),
(589,693,o),
(623,826,c)
);
},
{
closed = 1;
nodes = (
(956,751,l),
(528,751,l),
(460,616,l),
(956,616,l)
);
},
{
closed = 1;
nodes = (
(927,518,l),
(456,518,l),
(456,188,l),
(589,188,l),
(589,383,l),
(927,383,l)
);
},
{
closed = 1;
nodes = (
(974,259,l),
(379,259,l),
(379,119,l),
(974,119,l)
);
},
{
closed = 1;
nodes = (
(792,679,l),
(648,679,l),
(648,-95,l),
(792,-95,l)
);
},
{
closed = 1;
nodes = (
(347,758,l),
(134,758,l),
(134,627,l),
(225,627,l),
(225,300,l),
(134,300,l),
(134,168,l),
(347,168,l)
);
},
{
closed = 1;
nodes = (
(180,758,l),
(59,758,l),
(59,87,l),
(180,87,l)
);
}
);
vertWidth = 1000;
width = 1000;
}
);
note = cid12272;
unicode = 21718;
}
{
glyphname = uni54DE;
layers = (
{
layerId = "94DDBC6A-1627-4027-9125-871D02041BCD";
shapes = (
{
closed = 1;
nodes = (
(349,770,l),
(136,770,l),
(136,639,l),
(227,639,l),
(227,312,l),
(136,312,l),
(136,180,l),
(349,180,l)
);
},
{
closed = 1;
nodes = (
(175,770,l),
(54,770,l),
(54,108,l),
(175,108,l)
);
},
{
closed = 1;
nodes = (
(975,213,l),
(360,213,l),
(360,84,l),
(975,84,l)
);
},
{
closed = 1;
nodes = (
(536,857,l),
(518,782,o),
(483,682,o),
(449,614,c),
(560,581,l),
(599,642,o),
(650,737,o),
(693,824,c)
);
},
{
closed = 1;
nodes = (
(396,528,l),
(519,532,o),
(689,538,o),
(847,546,c),
(849,671,l),
(683,663,o),
(502,655,o),
(376,651,c)
);
},
{
closed = 1;
nodes = (
(441,510,l),
(424,421,o),
(389,326,o),
(346,267,c),
(380,253,o),
(440,221,o),
(469,200,c),
(512,268,o),
(555,377,o),
(578,481,c)
);
},
{
closed = 1;
nodes = (
(942,419,l),
(488,419,l),
(450,293,l),
(942,293,l)
);
},
{
closed = 1;
nodes = (
(742,517,l),
(599,517,l),
(599,-95,l),
(742,-95,l)
);
},
{
closed = 1;
nodes = (
(693,725,l),
(759,655,o),
(830,558,o),
(857,492,c),
(977,563,l),
(946,631,o),
(870,722,o),
(804,788,c)
);
}
);
width = 1000;
},
{
layerId = m01;
name = ExtraLight;
shapes = (
{
closed = 1;
nodes = (
(331,732,l),
(98,732,l),
(98,703,l),
(302,703,l),
(302,267,l),
(98,267,l),
(98,237,l),
(331,237,l)
);
},
{
closed = 1;
nodes = (
(113,732,l),
(84,732,l),
(84,145,l),
(113,145,l)
);
},
{
closed = 1;
nodes = (
(952,199,l),
(343,199,l),
(343,170,l),
(952,170,l)
);
},
{
closed = 1;
nodes = (
(598,831,l),
(565,762,o),
(504,657,o),
(456,596,c),
(480,586,l),
(528,647,o),
(587,745,o),
(628,820,c)
);
},
{
closed = 1;
nodes = (
(380,572,l),
(506,577,o),
(693,586,o),
(874,596,c),
(875,624,l),
(688,615,o),
(497,607,o),
(377,603,c)
);
},
{
closed = 1;
nodes = (
(487,525,l),
(457,427,o),
(412,325,o),
(361,254,c),
(369,251,o),
(384,244,o),
(389,240,c),
(437,311,o),
(484,417,o),
(517,519,c)
);
},
{
closed = 1;
nodes = (
(909,401,l),
(455,401,l),
(440,372,l),
(909,372,l)
);
},
{
closed = 1;
nodes = (
(668,547,l),
(638,547,l),
(638,-70,l),
(668,-70,l)
);
},
{
closed = 1;
nodes = (
(712,730,l),
(792,672,o),
(884,589,o),
(928,533,c),
(950,553,l),
(906,608,o),
(813,690,o),
(732,747,c)
);
}
);
width = 1000;
}
);
note = cid12257;
unicode = 21726;
}
{
glyphname = uni54E7;
layers = (
{
layerId = m01;
shapes = (
{
closed = 1;
nodes = (
(650,831,l),
(621,831,l),
(621,478,l),
(650,478,l)
);
},
{
closed = 1;
nodes = (
(935,483,l),
(352,483,l),
(352,454,l),
(935,454,l)
);
},
{
closed = 1;
nodes = (
(880,690,l),
(408,690,l),
(408,661,l),
(880,661,l)
);
},
{
closed = 1;
nodes = (
(546,472,l),
(540,193,o),
(520,35,o),
(351,-49,c),
(358,-54,o),
(368,-63,o),
(373,-69,c),
(546,21,o),
(570,182,o),
(575,472,c)
);
},
{
closed = 1;
nodes = (
(798,360,l),
(847,283,o),
(895,180,o),
(913,113,c),
(940,124,l),
(922,191,o),
(874,293,o),
(823,370,c)
);
},
{
closed = 1;
nodes = (
(419,365,l),
(404,266,o),
(362,166,o),
(309,108,c),
(317,104,o),
(329,95,o),
(334,90,c),
(386,152,o),
(430,257,o),
(448,361,c)
);
},
{
closed = 1;
nodes = (
(736,469,l),
(707,469,l),
(707,-28,ls),
(707,-39,o),
(703,-43,o),
(690,-43,cs),
(678,-44,o),
(638,-44,o),
(588,-43,c),
(593,-51,o),
(599,-63,o),
(601,-70,c),
(662,-70,o),
(695,-70,o),
(713,-65,cs),
(729,-60,o),
(736,-50,o),
(736,-27,cs)
);
},
{
closed = 1;
nodes = (
(320,720,l),
(98,720,l),
(98,691,l),
(290,691,l),
(290,246,l),
(98,246,l),
(98,217,l),
(320,217,l)
);
},
{
closed = 1;
nodes = (
(113,720,l),
(84,720,l),
(84,130,l),
(113,130,l)
);
}
);
vertWidth = 1000;
width = 1000;
},
{
layerId = "94DDBC6A-1627-4027-9125-871D02041BCD";
shapes = (
{
closed = 1;
nodes = (
(718,855,l),
(573,855,l),
(573,481,l),
(718,481,l)
);
},
{
closed = 1;
nodes = (
(957,534,l),
(362,534,l),
(362,402,l),
(957,402,l)
);
},
{
closed = 1;
nodes = (
(909,742,l),
(391,742,l),
(391,615,l),
(909,615,l)
);
},
{
closed = 1;
nodes = (
(517,454,l),
(513,232,o),
(508,94,o),
(363,9,c),
(393,-16,o),
(431,-66,o),
(447,-100,c),
(622,8,o),
(639,190,o),
(644,454,c)
);
},
{
closed = 1;
nodes = (
(787,323,l),
(822,246,o),
(849,144,o),
(853,77,c),
(963,120,l),
(956,187,o),
(927,287,o),
(889,363,c)
);
},
{
closed = 1;
nodes = (
(392,360,l),
(379,273,o),
(353,188,o),
(307,134,c),
(332,116,o),
(375,77,o),
(393,57,c),
(449,124,o),
(486,230,o),
(505,340,c)
);
},
{
closed = 1;
nodes = (
(796,470,l),
(671,470,l),
(671,44,ls),
(671,33,o),
(668,30,o),
(656,30,cs),
(644,30,o),
(609,30,o),
(577,31,c),
(592,-6,o),
(607,-60,o),
(611,-96,c),
(671,-96,o),
(717,-93,o),
(752,-73,cs),
(788,-52,o),
(796,-17,o),
(796,42,cs)
);
},
{
closed = 1;
nodes = (
(343,757,l),
(139,757,l),
(139,626,l),
(221,626,l),
(221,311,l),
(139,311,l),
(139,179,l),
(343,179,l)
);
},
{
closed = 1;
nodes = (
(175,757,l),
(55,757,l),
(55,95,l),
(175,95,l)
);
}
);
vertWidth = 1000;
width = 1000;
}
);
note = cid12293;
unicode = 21735;
}
{
glyphname = uni5511;
layers = (
{
layerId = m01;
shapes = (
{
closed = 1;
nodes = (
(895,239,l),
(387,239,l),
(387,209,l),
(895,209,l)
);
},
{
closed = 1;
nodes = (
(950,-11,l),
(336,-11,l),
(336,-40,l),
(950,-40,l)
);
},
{
closed = 1;
nodes = (
(657,830,l),
(627,830,l),
(627,-25,l),
(657,-25,l)
);
},
{
closed = 1;
nodes = (
(475,730,l),
(457,562,o),
(418,421,o),
(333,329,c),
(340,325,o),
(353,317,o),
(358,312,c),
(442,410,o),
(484,550,o),
(504,727,c)
);
},
{
closed = 1;
nodes = (
(819,731,l),
(799,570,o),
(759,436,o),
(674,349,c),
(682,345,o),
(695,337,o),
(700,333,c),
(783,426,o),
(826,560,o),
(848,727,c)
);
},
{
closed = 1;
nodes = (
(449,555,l),
(473,521,o),
(548,398,o),
(571,357,c),
(594,377,l),
(576,407,o),
(490,541,o),
(470,571,c)
);
},
{
closed = 1;
nodes = (
(784,547,l),
(814,510,o),
(905,377,o),
(931,332,c),
(955,352,l),
(931,386,o),
(831,530,o),
(806,562,c)
);
},
{
closed = 1;
nodes = (
(313,731,l),
(98,731,l),
(98,702,l),
(283,702,l),
(283,257,l),
(98,257,l),
(98,228,l),
(313,228,l)
);
},
{
closed = 1;
nodes = (
(113,731,l),
(84,731,l),
(84,135,l),
(113,135,l)
);
}
);
vertWidth = 1000;
width = 1000;
},
{
layerId = "94DDBC6A-1627-4027-9125-871D02041BCD";
shapes = (
{
closed = 1;
nodes = (
(923,297,l),
(424,297,l),
(424,170,l),
(923,170,l)
);
},
{
closed = 1;
nodes = (
(974,59,l),
(366,59,l),
(366,-70,l),
(974,-70,l)
);
},
{
closed = 1;
nodes = (
(739,856,l),
(604,856,l),
(604,-17,l),
(739,-17,l)
);
},
{
closed = 1;
nodes = (
(436,792,l),
(430,636,o),
(410,495,o),
(339,411,c),
(365,393,o),
(412,350,o),
(430,329,c),
(515,433,o),
(546,595,o),
(557,783,c)
);
},
{
closed = 1;
nodes = (
(794,793,l),
(788,646,o),
(769,512,o),
(698,432,c),
(724,411,o),
(768,364,o),
(784,341,c),
(874,442,o),
(906,601,o),
(918,783,c)
);
},
{
closed = 1;
nodes = (
(454,545,l),
(478,500,o),
(518,413,o),
(538,359,c),
(629,458,l),
(616,480,o),
(554,581,o),
(536,604,c)
);
},
{
closed = 1;
nodes = (
(786,570,l),
(816,515,o),
(866,413,o),
(889,349,c),
(992,435,l),
(976,462,o),
(897,593,o),
(875,622,c)
);
},
{
closed = 1;
nodes = (
(354,758,l),
(141,758,l),
(141,627,l),
(232,627,l),
(232,312,l),
(141,312,l),
(141,181,l),
(354,181,l)
);
},
{
closed = 1;
nodes = (
(180,758,l),
(59,758,l),
(59,96,l),
(180,96,l)
);
}
);
vertWidth = 1000;
width = 1000;
}
);
note = cid12361;
unicode = 21777;
}
{
glyphname = uni551E;
layers = (
{
layerId = m01;
shapes = (
{
closed = 1;
nodes = (
(824,829,l),
(824,-70,l),
(854,-70,l),
(854,829,l)
);
},
{
closed = 1;
nodes = (
(570,186,l),
(576,159,l),
(962,240,l),
(956,267,l)
);
},
{
closed = 1;
nodes = (
(614,493,l),
(668,444,o),
(723,375,o),
(747,327,c),
(771,345,l),
(748,392,o),
(691,461,o),
(636,509,c)
);
},
{
closed = 1;
nodes = (
(624,738,l),
(678,693,o),
(734,628,o),
(759,583,c),
(781,602,l),
(758,646,o),
(701,710,o),
(647,754,c)
);
},
{
closed = 1;
nodes = (
(98,720,l),
(98,691,l),
(264,691,l),
(264,228,l),
(98,228,l),
(98,198,l),
(293,198,l),
(293,720,l)
);
},
{
closed = 1;
nodes = (
(83,720,l),
(83,116,l),
(112,116,l),
(112,720,l)
);
},
{
closed = 1;
nodes = (
(328,619,l),
(328,589,l),
(582,589,l),
(582,619,l)
);
},
{
closed = 1;
nodes = (
(333,257,l),
(405,286,o),
(498,327,o),
(588,365,c),
(582,391,l),
(485,351,o),
(387,310,o),
(319,284,c)
);
},
{
closed = 1;
nodes = (
(446,828,l),
(446,-23,ls),
(446,-36,o),
(443,-40,o),
(431,-40,cs),
(419,-40,o),
(381,-41,o),
(337,-39,c),
(342,-49,o),
(346,-64,o),
(348,-71,c),
(401,-71,o),
(434,-70,o),
(450,-65,cs),
(468,-60,o),
(476,-49,o),
(476,-22,cs),
(476,828,l)
);
}
);
vertWidth = 1000;
width = 1000;
},
{
layerId = "94DDBC6A-1627-4027-9125-871D02041BCD";
shapes = (
{
closed = 1;
nodes = (
(755,850,l),
(755,-95,l),
(889,-95,l),
(889,850,l)
);
},
{
closed = 1;
nodes = (
(550,230,l),
(581,102,l),
(984,198,l),
(953,326,l)
);
},
{
closed = 1;
nodes = (
(555,477,l),
(602,428,o),
(649,360,o),
(665,313,c),
(772,384,l),
(753,433,o),
(702,496,o),
(654,542,c)
);
},
{
closed = 1;
nodes = (
(560,725,l),
(605,677,o),
(650,609,o),
(666,563,c),
(773,633,l),
(754,680,o),
(706,743,o),
(659,788,c)
);
},
{
closed = 1;
nodes = (
(127,757,l),
(127,628,l),
(200,628,l),
(200,298,l),
(127,298,l),
(127,169,l),
(320,169,l),
(320,757,l)
);
},
{
closed = 1;
nodes = (
(49,757,l),
(49,77,l),
(167,77,l),
(167,757,l)
);
},
{
closed = 1;
nodes = (
(329,662,l),
(329,536,l),
(576,536,l),
(576,662,l)
);
},
{
closed = 1;
nodes = (
(347,225,l),
(423,253,o),
(512,286,o),
(594,319,c),
(572,436,l),
(475,406,o),
(377,376,o),
(310,359,c)
);
},
{
closed = 1;
nodes = (
(396,852,l),
(396,47,ls),
(396,35,o),
(392,31,o),
(381,31,cs),
(370,31,o),
(340,31,o),
(310,32,c),
(327,-3,o),
(344,-60,o),
(347,-94,c),
(406,-95,o),
(448,-88,o),
(479,-67,cs),
(511,-45,o),
(520,-11,o),
(520,47,cs),
(520,852,l)
);
}
);
vertWidth = 1000;
width = 1000;
}
);
note = cid12354;
unicode = 21790;
}
{
glyphname = uni5525;
layers = (
{
layerId = m01;
shapes = (
{
closed = 1;
nodes = (
(85,720,l),
(85,130,l),
(114,130,l),
(114,691,l),
(266,691,l),
(266,246,l),
(99,246,l),
(99,217,l),
(295,217,l),
(295,720,l)
);
},
{
closed = 1;
nodes = (
(308,787,l),
(359,727,o),
(406,654,o),
(430,597,c),
(456,614,l),
(430,671,o),
(382,742,o),
(332,799,c)
);
},
{
closed = 1;
nodes = (
(303,-15,l),
(353,78,o),
(419,221,o),
(464,332,c),
(441,349,l),
(393,232,o),
(323,86,o),
(275,3,c)
);
},
{
closed = 1;
nodes = (
(573,526,l),
(573,497,l),
(859,497,l),
(859,526,l)
);
},
{
closed = 1;
nodes = (
(768,695,o),
(864,585,o),
(955,512,c),
(959,519,o),
(967,529,o),
(974,536,c),
(885,602,o),
(784,715,o),
(725,827,c),
(694,827,l),
(649,718,o),
(554,598,o),
(456,525,c),
(463,520,o),
(472,510,o),
(476,504,c),
(574,580,o),
(665,697,o),
(712,797,c)
);
},
{
closed = 1;
nodes = (
(502,368,l),
(502,338,l),
(889,338,l),
(889,368,l)
);
},
{
closed = 1;
nodes = (
(658,355,l),
(658,-68,l),
(688,-68,l),
(688,355,l)
);
},
{
closed = 1;
nodes = (
(870,368,l),
(870,94,ls),
(870,84,o),
(868,82,o),
(856,81,cs),
(844,80,o),
(805,80,o),
(755,81,c),
(760,73,o),
(766,62,o),
(767,54,c),
(827,54,o),
(861,54,o),
(878,60,cs),
(895,65,o),
(900,75,o),
(900,94,cs),
(900,368,l)
);
}
);
vertWidth = 1000;
width = 1000;
},
{
layerId = "94DDBC6A-1627-4027-9125-871D02041BCD";
shapes = (
{
closed = 1;
nodes = (
(55,757,l),
(55,95,l),
(166,95,l),
(166,628,l),
(206,628,l),
(206,308,l),
(116,308,l),
(116,179,l),
(318,179,l),
(318,757,l)
);
},
{
closed = 1;
nodes = (
(285,779,l),
(325,720,o),
(366,646,o),
(383,599,c),
(503,674,l),
(484,721,o),
(441,791,o),
(398,845,c)
);
},
{
closed = 1;
nodes = (
(378,-42,l),
(413,48,o),
(464,202,o),
(493,296,c),
(377,384,l),
(339,258,o),
(289,126,o),
(252,42,c)
);
},
{
closed = 1;
nodes = (
(558,552,l),
(558,431,l),
(851,431,l),
(851,552,l)
);
},
{
closed = 1;
nodes = (
(749,617,o),
(833,516,o),
(920,453,c),
(938,496,o),
(965,548,o),
(990,584,c),
(900,641,o),
(811,745,o),
(759,854,c),
(635,854,l),
(594,744,o),
(510,636,o),
(417,572,c),
(442,540,o),
(471,486,o),
(483,450,c),
(571,515,o),
(655,617,o),
(701,716,c)
);
},
{
closed = 1;
nodes = (
(476,374,l),
(476,253,l),
(846,253,l),
(846,374,l)
);
},
{
closed = 1;
nodes = (
(582,325,l),
(582,-94,l),
(715,-94,l),
(715,325,l)
);
},
{
closed = 1;
nodes = (
(806,374,l),
(806,128,ls),
(806,118,o),
(803,116,o),
(793,116,cs),
(783,116,o),
(751,116,o),
(725,117,c),
(741,81,o),
(756,26,o),
(759,-12,c),
(814,-12,o),
(857,-11,o),
(893,10,cs),
(929,31,o),
(937,68,o),
(937,124,cs),
(937,374,l)
);
}
);
vertWidth = 1000;
width = 1000;
}
);
note = cid12361;
unicode = 21797;
}
{
glyphname = uni552C;
layers = (
{
layerId = m01;
shapes = (
{
closed = 1;
nodes = (
(623,822,l),
(623,593,l),
(653,593,l),
(653,822,l)
);
},
{
closed = 1;
nodes = (
(639,726,l),
(639,697,l),
(904,697,l),
(904,726,l)
);
},
{
closed = 1;
nodes = (
(396,611,l),
(396,581,l),
(917,581,l),
(917,611,l)
);
},
{
closed = 1;
nodes = (
(908,611,l),
(908,605,l),
(892,556,o),
(869,500,o),
(852,463,c),
(877,454,l),
(897,491,o),
(919,552,o),
(940,604,c),
(921,613,l),
(914,611,l)
);
},
{
closed = 1;
nodes = (
(435,440,l),
(439,412,l),
(819,451,l),
(815,479,l)
);
},
{
closed = 1;
nodes = (
(379,611,l),
(379,332,ls),
(379,213,o),
(366,63,o),
(258,-46,c),
(266,-50,o),
(276,-59,o),
(280,-65,c),
(392,46,o),
(409,208,o),
(409,332,cs),
(409,611,l)
);
},
{
closed = 1;
nodes = (
(592,556,l),
(592,350,ls),
(592,304,o),
(609,296,o),
(674,296,cs),
(688,296,o),
(838,296,o),
(852,296,cs),
(902,296,o),
(914,315,o),
(918,390,c),
(908,392,o),
(897,396,o),
(889,402,c),
(887,333,o),
(881,325,o),
(849,325,cs),
(820,325,o),
(693,325,o),
(672,325,cs),
(628,325,o),
(621,329,o),
(621,350,cs),
(621,556,l)
);
},
{
closed = 1;
nodes = (
(562,254,l),
(555,81,o),
(519,-3,o),
(370,-49,c),
(377,-54,o),
(386,-64,o),
(390,-70,c),
(543,-20,o),
(583,69,o),
(593,254,c)
);
},
{
closed = 1;
nodes = (
(722,255,l),
(722,-8,ls),
(722,-52,o),
(736,-60,o),
(785,-60,cs),
(796,-60,o),
(879,-60,o),
(890,-60,cs),
(937,-60,o),
(947,-33,o),
(950,84,c),
(941,87,o),
(929,91,o),
(921,97,c),
(919,-18,o),
(914,-32,o),
(887,-32,cs),
(868,-32,o),
(800,-32,o),
(786,-32,cs),
(757,-32,o),
(752,-28,o),
(752,-8,cs),
(752,255,l)
);
},
{
closed = 1;
nodes = (
(98,720,l),
(98,691,l),
(284,691,l),
(284,246,l),
(98,246,l),
(98,217,l),
(314,217,l),
(314,720,l)
);
},
{
closed = 1;
nodes = (
(84,720,l),
(84,130,l),
(113,130,l),
(113,720,l)
);
}
);
vertWidth = 1000;
width = 1000;
},
{
layerId = "94DDBC6A-1627-4027-9125-871D02041BCD";
shapes = (
{
closed = 1;
nodes = (
(565,856,l),
(565,617,l),
(708,617,l),
(708,856,l)
);
},
{
closed = 1;
nodes = (
(634,802,l),
(634,690,l),
(918,690,l),
(918,802,l)
);
},
{
closed = 1;
nodes = (
(432,657,l),
(432,545,l),
(878,545,l),
(878,657,l)
);
},
{
closed = 1;
nodes = (
(834,657,l),
(834,641,l),
(827,589,o),
(813,522,o),
(802,479,c),
(920,447,l),
(938,497,o),
(960,571,o),
(976,637,c),
(875,662,l),
(854,657,l)
);
},
{
closed = 1;
nodes = (
(507,477,l),
(520,375,l),
(815,416,l),
(801,514,l)
);
},
{
closed = 1;
nodes = (
(375,657,l),
(375,365,ls),
(375,246,o),
(369,91,o),
(287,-14,c),
(317,-30,o),
(375,-74,o),
(397,-98,c),
(493,22,o),
(509,222,o),
(509,364,cs),
(509,657,l)
);
},
{
closed = 1;
nodes = (
(571,554,l),
(571,399,ls),
(571,299,o),
(598,269,o),
(714,269,cs),
(738,269,o),
(814,269,o),
(838,269,cs),
(919,269,o),
(951,294,o),
(963,387,c),
(931,395,o),
(885,415,o),
(860,433,c),
(856,379,o),
(850,370,o),
(825,370,cs),
(806,370,o),
(747,370,o),
(732,370,cs),
(699,370,o),
(693,373,o),
(693,400,cs),
(693,554,l)
);
},
{
closed = 1;
nodes = (
(549,255,l),
(545,129,o),
(535,49,o),
(424,1,c),
(450,-22,o),
(483,-68,o),
(496,-98,c),
(645,-30,o),
(668,87,o),
(674,255,c)
);
},
{
closed = 1;
nodes = (
(710,255,l),
(710,55,ls),
(710,-51,o),
(728,-88,o),
(822,-88,cs),
(839,-88,o),
(852,-88,o),
(869,-88,cs),
(937,-88,o),
(968,-53,o),
(978,86,c),
(945,94,o),
(893,114,o),
(869,134,c),
(867,38,o),
(864,25,o),
(854,25,cs),
(852,25,o),
(849,25,o),
(847,25,cs),
(841,25,o),
(840,28,o),
(840,56,cs),
(840,255,l)
);
},
{
closed = 1;
nodes = (
(142,757,l),
(142,628,l),
(217,628,l),
(217,301,l),
(142,301,l),
(142,172,l),
(339,172,l),
(339,757,l)
);
},
{
closed = 1;
nodes = (
(60,757,l),
(60,86,l),
(178,86,l),
(178,757,l)
);
}
);
vertWidth = 1000;
width = 1000;
}
);
note = cid12373;
unicode = 21804;
}
{
glyphname = uni552D;
layers = (
{
layerId = m01;
shapes = (
{
closed = 1;
nodes = (
(939,678,l),
(384,678,l),
(384,649,l),
(939,649,l)
);
},
{
closed = 1;
nodes = (
(809,526,l),
(507,526,l),
(507,497,l),
(809,497,l)
);
},
{
closed = 1;
nodes = (
(809,372,l),
(507,372,l),
(507,342,l),
(809,342,l)
);
},
{
closed = 1;
nodes = (
(955,216,l),
(361,216,l),
(361,186,l),
(955,186,l)
);
},
{
closed = 1;
nodes = (
(520,831,l),
(491,831,l),
(491,200,l),
(520,200,l)
);
},
{
closed = 1;
nodes = (
(827,831,l),
(798,831,l),
(798,200,l),
(827,200,l)
);
},
{
closed = 1;
nodes = (
(745,124,l),
(817,65,o),
(893,-15,o),
(930,-70,c),
(955,-54,l),
(917,1,o),
(840,80,o),
(768,138,c)
);
},
{
closed = 1;
nodes = (
(549,138,l),
(503,70,o),
(427,-3,o),
(352,-49,c),
(359,-55,o),
(370,-65,o),
(375,-71,c),
(449,-22,o),
(529,54,o),
(582,126,c)
);
},
{
closed = 1;
nodes = (
(335,715,l),
(100,715,l),
(100,685,l),
(306,685,l),
(306,222,l),
(100,222,l),
(100,192,l),
(335,192,l)
);
},
{
closed = 1;
nodes = (
(112,715,l),
(83,715,l),
(83,92,l),
(112,92,l)
);
}
);
vertWidth = 1000;
width = 1000;
},
{
layerId = "94DDBC6A-1627-4027-9125-871D02041BCD";
shapes = (
{
closed = 1;
nodes = (
(964,730,l),
(397,730,l),
(397,601,l),
(964,601,l)
);
},
{
closed = 1;
nodes = (
(804,562,l),
(543,562,l),
(543,453,l),
(804,453,l)
);
},
{
closed = 1;
nodes = (
(804,412,l),
(543,412,l),
(543,303,l),
(804,303,l)
);
},
{
closed = 1;
nodes = (
(976,262,l),
(377,262,l),
(377,133,l),
(976,133,l)
);
},
{
closed = 1;
nodes = (
(610,854,l),
(472,854,l),
(472,210,l),
(610,210,l)
);
},
{
closed = 1;
nodes = (
(882,854,l),
(741,854,l),
(741,210,l),
(882,210,l)
);
},
{
closed = 1;
nodes = (
(697,78,l),
(758,27,o),
(836,-47,o),
(871,-94,c),
(985,-12,l),
(946,35,o),
(864,104,o),
(804,151,c)
);
},
{
closed = 1;
nodes = (
(532,158,l),
(490,106,o),
(407,35,o),
(333,0,c),
(366,-26,o),
(411,-69,o),
(436,-97,c),
(513,-58,o),
(604,16,o),
(658,79,c)
);
},
{
closed = 1;
nodes = (
(360,758,l),
(124,758,l),
(124,624,l),
(227,624,l),
(227,294,l),
(124,294,l),
(124,160,l),
(360,160,l)
);
},
{
closed = 1;
nodes = (
(186,758,l),
(56,758,l),
(56,75,l),
(186,75,l)
);
}
);
vertWidth = 1000;
width = 1000;
}
);
note = cid12397;
unicode = 21805;
}
{
glyphname = uni5530;
layers = (
{
layerId = m01;
shapes = (
{
closed = 1;
nodes = (
(772,714,l),
(743,714,l),
(743,159,l),
(772,159,l)
);
},
{
closed = 1;
nodes = (
(915,810,l),
(885,810,l),
(885,-24,ls),
(885,-36,o),
(880,-40,o),
(868,-41,cs),
(857,-41,o),
(819,-41,o),
(772,-40,c),
(777,-49,o),
(782,-62,o),
(784,-70,c),
(841,-70,o),
(871,-69,o),
(889,-64,cs),
(906,-58,o),
(915,-48,o),
(915,-24,cs)
);
},
{
closed = 1;
nodes = (
(299,720,l),
(98,720,l),
(98,691,l),
(270,691,l),
(270,246,l),
(98,246,l),
(98,217,l),
(299,217,l)
);
},
{
closed = 1;
nodes = (
(113,720,l),
(84,720,l),
(84,133,l),
(113,133,l)
);
},
{
closed = 1;
nodes = (
(661,410,l),
(417,410,l),
(417,27,l),
(446,27,l),
(446,380,l),
(661,380,l)
);
},
{
closed = 1;
nodes = (
(687,410,l),
(658,410,l),
(658,78,ls),
(658,69,o),
(656,67,o),
(647,66,cs),
(638,66,o),
(614,66,o),
(579,67,c),
(584,57,o),
(590,45,o),
(591,37,c),
(629,37,o),
(655,37,o),
(670,43,cs),
(683,49,o),
(687,58,o),
(687,78,cs)
);
},
{
closed = 1;
nodes = (
(387,788,l),
(358,788,l),
(358,504,ls),
(358,346,o),
(348,131,o),
(249,-26,c),
(256,-29,o),
(269,-37,o),
(274,-42,c),
(375,118,o),
(387,343,o),
(387,504,cs)
);
},
{
closed = 1;
nodes = (
(684,788,l),
(366,788,l),
(366,759,l),
(655,759,l),
(655,590,l),
(366,590,l),
(366,561,l),
(684,561,l)
);
},
{
closed = 1;
nodes = (
(562,529,l),
(531,529,l),
(531,388,l),
(531,388,l),
(531,-68,l),
(562,-68,l),
(562,388,l),
(562,388,l)
);
}
);
vertWidth = 1000;
width = 1000;
},
{
layerId = "94DDBC6A-1627-4027-9125-871D02041BCD";
name = Heavy;
shapes = (
{
closed = 1;
nodes = (
(812,761,l),
(708,761,l),
(708,151,l),
(812,151,l)
);
},
{
closed = 1;
nodes = (
(950,838,l),
(836,838,l),
(836,44,ls),
(836,30,o),
(832,26,o),
(819,26,cs),
(805,26,o),
(765,26,o),
(727,27,c),
(742,-8,o),
(757,-62,o),
(761,-95,c),
(827,-95,o),
(876,-90,o),
(908,-70,cs),
(940,-50,o),
(950,-17,o),
(950,44,cs)
);
},
{
closed = 1;
nodes = (
(288,768,l),
(113,768,l),
(113,639,l),
(183,639,l),
(183,249,l),
(113,249,l),
(113,120,l),
(288,120,l)
);
},
{
closed = 1;
nodes = (
(158,768,l),
(53,768,l),
(53,48,l),
(158,48,l)
);
},
{
closed = 1;
nodes = (
(651,427,l),
(399,427,l),
(399,0,l),
(481,0,l),
(481,319,l),
(651,319,l)
);
},
{
closed = 1;
nodes = (
(694,427,l),
(610,427,l),
(610,118,ls),
(610,111,o),
(609,109,o),
(604,109,cs),
(600,109,o),
(591,109,o),
(579,109,c),
(593,80,o),
(605,35,o),
(607,5,c),
(634,5,o),
(652,9,o),
(672,28,cs),
(691,47,o),
(694,79,o),
(694,114,cs)
);
},
{
closed = 1;
nodes = (
(427,816,l),
(310,816,l),
(310,523,ls),
(310,364,o),
(302,139,o),
(205,-15,c),
(234,-26,o),
(286,-56,o),
(309,-74,c),
(411,90,o),
(427,349,o),
(427,523,cs)
);
},
{
closed = 1;
nodes = (
(690,816,l),
(391,816,l),
(391,707,l),
(569,707,l),
(569,641,l),
(391,641,l),
(391,531,l),
(690,531,l)
);
},
{
closed = 1;
nodes = (
(599,514,l),
(491,514,l),
(491,351,l),
(502,351,l),
(502,-96,l),
(588,-96,l),
(588,351,l),
(599,351,l)
);
}
);
vertWidth = 1000;
width = 1000;
}
);
note = cid12402;
unicode = 21808;
}
{
color = 9;
glyphname = uni5537;
layers = (
{
layerId = m01;
shapes = (
{
closed = 1;
nodes = (
(94,727,l),
(94,698,l),
(278,698,l),
(278,229,l),
(94,229,l),
(94,199,l),
(307,199,l),
(307,727,l)
);
},
{
closed = 1;
nodes = (
(84,727,l),
(84,96,l),
(114,96,l),
(114,727,l)
);
},
{
closed = 1;
nodes = (
(338,714,l),
(338,684,l),
(955,684,l),
(955,714,l)
);
},
{
closed = 1;
nodes = (
(444,267,l),
(444,237,l),
(855,237,l),
(855,267,l)
);
},
{
closed = 1;
nodes = (
(444,129,l),
(444,99,l),
(860,99,l),
(860,129,l)
);
},
{
closed = 1;
nodes = (
(622,831,l),
(622,699,l),
(651,699,l),
(651,831,l)
);
},
{
closed = 1;
nodes = (
(549,697,l),
(528,639,o),
(486,551,o),
(454,499,c),
(479,490,l),
(512,541,o),
(550,622,o),
(579,687,c)
);
},
{
closed = 1;
nodes = (
(350,479,l),
(481,483,o),
(677,491,o),
(867,499,c),
(868,527,l),
(672,520,o),
(472,514,o),
(346,511,c)
);
},
{
closed = 1;
nodes = (
(728,633,l),
(799,572,o),
(879,483,o),
(917,427,c),
(942,445,l),
(904,501,o),
(822,587,o),
(753,648,c)
);
},
{
closed = 1;
nodes = (
(430,400,l),
(430,-70,l),
(459,-70,l),
(459,371,l),
(859,371,l),
(859,400,l)
);
},
{
closed = 1;
nodes = (
(837,400,l),
(837,-21,ls),
(837,-34,o),
(834,-39,o),
(819,-39,cs),
(803,-41,o),
(755,-41,o),
(689,-39,c),
(694,-49,o),
(700,-62,o),
(702,-70,c),
(773,-70,o),
(818,-70,o),
(839,-65,cs),
(861,-58,o),
(867,-46,o),
(867,-21,cs),
(867,400,l)
);
}
);
width = 1000;
},
{
layerId = "94DDBC6A-1627-4027-9125-871D02041BCD";
shapes = (
{
closed = 1;
nodes = (
(135,773,l),
(135,640,l),
(224,640,l),
(224,298,l),
(135,298,l),
(135,165,l),
(345,165,l),
(345,773,l)
);
},
{
closed = 1;
nodes = (
(59,773,l),
(59,80,l),
(178,80,l),
(178,773,l)
);
},
{
closed = 1;
nodes = (
(362,767,l),
(362,644,l),
(972,644,l),
(972,767,l)
);
},
{
closed = 1;
nodes = (
(501,271,l),
(501,175,l),
(817,175,l),
(817,271,l)
);
},
{
closed = 1;
nodes = (
(501,145,l),
(501,49,l),
(817,49,l),
(817,145,l)
);
},
{
closed = 1;
nodes = (
(590,854,l),
(590,705,l),
(734,705,l),
(734,854,l)
);
},
{
closed = 1;
nodes = (
(506,700,l),
(496,646,o),
(474,574,o),
(454,525,c),
(565,481,l),
(589,523,o),
(618,588,o),
(651,650,c)
);
},
{
closed = 1;
nodes = (
(374,431,l),
(508,437,o),
(694,447,o),
(869,458,c),
(872,571,l),
(687,564,o),
(490,558,o),
(360,555,c)
);
},
{
closed = 1;
nodes = (
(730,620,l),
(782,554,o),
(837,464,o),
(856,405,c),
(982,467,l),
(959,529,o),
(899,613,o),
(846,676,c)
);
},
{
closed = 1;
nodes = (
(428,407,l),
(428,-97,l),
(559,-97,l),
(559,300,l),
(824,300,l),
(824,407,l)
);
},
{
closed = 1;
nodes = (
(759,407,l),
(759,29,ls),
(759,18,o),
(755,15,o),
(742,14,cs),
(732,14,o),
(691,14,o),
(661,16,c),
(677,-15,o),
(693,-62,o),
(698,-96,c),
(761,-96,o),
(811,-95,o),
(848,-77,cs),
(886,-59,o),
(897,-30,o),
(897,28,cs),
(897,407,l)
);
}
);
width = 1000;
}
);
note = cid12393;
unicode = 21815;
}
{
glyphname = uni5543;
layers = (
{
layerId = m01;
shapes = (
{
closed = 1;
nodes = (
(328,721,l),
(100,721,l),
(100,692,l),
(298,692,l),
(298,229,l),
(100,229,l),
(100,199,l),
(328,199,l)
);
},
{
closed = 1;
nodes = (
(112,721,l),
(83,721,l),
(83,113,l),
(112,113,l)
);
},
{
closed = 1;
nodes = (
(681,830,l),
(652,830,l),
(652,548,l),
(681,548,l)
);
},
{
closed = 1;
nodes = (
(506,766,l),
(476,766,l),
(476,554,l),
(506,554,l)
);
},
{
closed = 1;
nodes = (
(872,441,l),
(443,441,l),
(443,-70,l),
(472,-70,l),
(472,412,l),
(872,412,l)
);
},
{
closed = 1;
nodes = (
(888,441,l),
(858,441,l),
(858,-23,ls),
(858,-36,o),
(855,-40,o),
(841,-41,cs),
(826,-42,o),
(781,-42,o),
(721,-41,c),
(726,-50,o),
(732,-62,o),
(734,-70,c),
(802,-70,o),
(842,-70,o),
(861,-65,cs),
(882,-59,o),
(888,-47,o),
(888,-23,cs)
);
},
{
closed = 1;
nodes = (
(873,301,l),
(458,301,l),
(458,272,l),
(873,272,l)
);
},
{
closed = 1;
nodes = (
(873,156,l),
(458,156,l),
(458,127,l),
(873,127,l)
);
},
{
closed = 1;
nodes = (
(898,719,l),
(667,719,l),
(667,690,l),
(898,690,l)
);
},
{
closed = 1;
nodes = (
(953,568,l),
(360,568,l),
(360,538,l),
(953,538,l)
);
}
);
vertWidth = 1000;
width = 1000;
},
{
layerId = "94DDBC6A-1627-4027-9125-871D02041BCD";
shapes = (
{
closed = 1;
nodes = (
(359,758,l),
(135,758,l),
(135,624,l),
(228,624,l),
(228,297,l),
(135,297,l),
(135,163,l),
(359,163,l)
);
},
{
closed = 1;
nodes = (
(185,758,l),
(57,758,l),
(57,87,l),
(185,87,l)
);
},
{
closed = 1;
nodes = (
(765,856,l),
(624,856,l),
(624,550,l),
(765,550,l)
);
},
{
closed = 1;
nodes = (
(571,800,l),
(441,800,l),
(441,548,l),
(571,548,l)
);
},
{
closed = 1;
nodes = (
(862,470,l),
(423,470,l),
(423,-94,l),
(562,-94,l),
(562,356,l),
(862,356,l)
);
},
{
closed = 1;
nodes = (
(925,470,l),
(785,470,l),
(785,48,ls),
(785,34,o),
(779,30,o),
(763,30,cs),
(748,30,o),
(688,29,o),
(646,32,c),
(663,-2,o),
(682,-56,o),
(687,-93,c),
(766,-93,o),
(824,-92,o),
(868,-72,cs),
(912,-52,o),
(925,-18,o),
(925,46,cs)
);
},
{
closed = 1;
nodes = (
(856,323,l),
(477,323,l),
(477,220,l),
(856,220,l)
);
},
{
closed = 1;
nodes = (
(860,186,l),
(477,186,l),
(477,76,l),
(860,76,l)
);
},
{
closed = 1;
nodes = (
(934,786,l),
(708,786,l),
(708,672,l),
(934,672,l)
);
},
{
closed = 1;
nodes = (
(974,622,l),
(374,622,l),
(374,502,l),
(974,502,l)
);
}
);
vertWidth = 1000;
width = 1000;
}
);
note = cid12441;
unicode = 21827;
}
{
glyphname = uni5544;
layers = (
{
layerId = m01;
shapes = (
{
closed = 1;
nodes = (
(299,713,l),
(98,713,l),
(98,683,l),
(270,683,l),
(270,280,l),
(98,280,l),
(98,251,l),
(299,251,l)
);
},
{
closed = 1;
nodes = (
(113,713,l),
(84,713,l),
(84,157,l),
(113,157,l)
);
},
{
closed = 1;
nodes = (
(952,763,l),
(316,763,l),
(316,733,l),
(952,733,l)
);
},
{
closed = 1;
nodes = (
(496,599,l),
(704,395,o),
(695,41,o),
(608,-22,cs),
(584,-40,o),
(562,-42,o),
(531,-42,cs),
(512,-42,o),
(474,-41,o),
(436,-37,c),
(441,-46,o),
(444,-59,o),
(444,-68,c),
(478,-70,o),
(517,-71,o),
(537,-71,cs),
(578,-70,o),
(602,-65,o),
(631,-42,cs),
(731,33,o),
(734,407,o),
(519,614,c)
);
},
{
closed = 1;
nodes = (
(618,757,l),
(549,652,o),
(431,558,o),
(317,498,c),
(325,492,o),
(335,479,o),
(339,474,c),
(452,539,o),
(573,636,o),
(645,747,c)
);
},
{
closed = 1;
nodes = (
(636,748,l),
(676,423,o),
(759,162,o),
(931,33,c),
(937,41,o),
(948,51,o),
(955,57,c),
(784,175,o),
(703,435,o),
(665,752,c)
);
},
{
closed = 1;
nodes = (
(913,598,l),
(863,538,o),
(776,458,o),
(715,408,c),
(735,389,l),
(798,440,o),
(879,514,o),
(936,579,c)
);
},
{
closed = 1;
nodes = (
(589,491,l),
(526,414,o),
(409,327,o),
(321,288,c),
(328,282,o),
(336,273,o),
(341,266,c),
(428,309,o),
(549,398,o),
(613,478,c)
);
},
{
closed = 1;
nodes = (
(650,342,l),
(562,216,o),
(388,91,o),
(241,37,c),
(248,32,o),
(257,22,o),
(262,14,c),
(407,74,o),
(582,198,o),
(673,330,c)
);
},
{
closed = 1;
nodes = (
(376,433,l),
(449,333,o),
(525,186,o),
(560,76,c),
(587,87,l),
(550,197,o),
(474,344,o),
(401,443,c)
);
}
);
vertWidth = 1000;
width = 1000;
},
{
layerId = "94DDBC6A-1627-4027-9125-871D02041BCD";
shapes = (
{
closed = 1;
nodes = (
(333,761,l),
(136,761,l),
(136,632,l),
(211,632,l),
(211,305,l),
(136,305,l),
(136,176,l),
(333,176,l)
);
},
{
closed = 1;
nodes = (
(174,761,l),
(54,761,l),
(54,90,l),
(174,90,l)
);
},
{
closed = 1;
nodes = (
(962,813,l),
(349,813,l),
(349,679,l),
(962,679,l)
);
},
{
closed = 1;
nodes = (
(452,576,l),
(633,429,o),
(631,127,o),
(590,65,cs),
(572,38,o),
(555,33,o),
(533,33,cs),
(513,33,o),
(482,34,o),
(454,38,c),
(476,-1,o),
(484,-55,o),
(485,-94,c),
(511,-95,o),
(542,-95,o),
(564,-95,cs),
(619,-94,o),
(661,-74,o),
(698,-30,cs),
(784,74,o),
(778,458,o),
(552,639,c)
);
},
{
closed = 1;
nodes = (
(551,749,l),
(504,661,o),
(407,590,o),
(300,549,c),
(326,522,o),
(369,463,o),
(385,435,c),
(507,493,o),
(619,591,o),
(683,711,c)
);
},
{
closed = 1;
nodes = (
(656,730,l),
(684,429,o),
(732,177,o),
(886,33,c),
(908,72,o),
(955,129,o),
(988,156,c),
(850,268,o),
(800,497,o),
(777,744,c)
);
},
{
closed = 1;
nodes = (
(876,607,l),
(847,554,o),
(793,483,o),
(756,442,c),
(830,361,l),
(873,396,o),
(923,454,o),
(980,503,c)
);
},
{
closed = 1;
nodes = (
(546,501,l),
(497,437,o),
(400,376,o),
(306,344,c),
(333,320,o),
(371,274,o),
(390,245,c),
(492,288,o),
(594,371,o),
(655,458,c)
);
},
{
closed = 1;
nodes = (
(604,352,l),
(538,266,o),
(404,181,o),
(256,132,c),
(286,104,o),
(329,51,o),
(350,17,c),
(497,78,o),
(640,189,o),
(722,305,c)
);
},
{
closed = 1;
nodes = (
(354,408,l),
(415,303,o),
(465,154,o),
(476,47,c),
(593,97,l),
(580,197,o),
(525,343,o),
(460,451,c)
);
}
);
vertWidth = 1000;
width = 1000;
}
);
note = cid62176;
unicode = 21828;
}
{
glyphname = uni555D;
layers = (
{
layerId = m01;
shapes = (
{
closed = 1;
nodes = (
(910,729,l),
(672,729,l),
(672,-56,l),
(701,-56,l),
(701,700,l),
(880,700,l),
(880,-40,l),
(910,-40,l)
);
},
{
closed = 1;
nodes = (
(897,56,l),
(689,56,l),
(689,27,l),
(897,27,l)
);
},
{
closed = 1;
nodes = (
(615,806,l),
(552,773,o),
(433,739,o),
(334,716,c),
(338,708,o),
(343,698,o),
(345,691,c),
(446,714,o),
(566,747,o),
(639,783,c)
);
},
{
closed = 1;
nodes = (
(640,524,l),
(336,524,l),
(336,495,l),
(640,495,l)
);
},
{
closed = 1;
nodes = (
(509,747,l),
(480,735,l),
(480,-72,l),
(509,-72,l)
);
},
{
closed = 1;
nodes = (
(476,515,l),
(438,351,o),
(360,186,o),
(273,89,c),
(279,84,o),
(288,73,o),
(293,65,c),
(384,167,o),
(465,338,o),
(502,507,c)
);
},
{
closed = 1;
nodes = (
(299,720,l),
(98,720,l),
(98,691,l),
(270,691,l),
(270,228,l),
(98,228,l),
(98,198,l),
(299,198,l)
);
},
{
closed = 1;
nodes = (
(113,720,l),
(84,720,l),
(84,116,l),
(113,116,l)
);
},
{
closed = 1;
nodes = (
(487,386,l),
(516,361,o),
(602,274,o),
(626,242,c),
(646,266,l),
(625,289,o),
(533,381,o),
(507,403,c)
);
}
);
vertWidth = 1000;
width = 1000;
},
{
layerId = "94DDBC6A-1627-4027-9125-871D02041BCD";
shapes = (
{
closed = 1;
nodes = (
(956,782,l),
(659,782,l),
(659,-83,l),
(782,-83,l),
(782,655,l),
(826,655,l),
(826,-74,l),
(956,-74,l)
);
},
{
closed = 1;
nodes = (
(902,113,l),
(708,113,l),
(708,-13,l),
(902,-13,l)
);
},
{
closed = 1;
nodes = (
(568,842,l),
(503,815,o),
(403,788,o),
(312,771,c),
(327,744,o),
(346,698,o),
(352,669,c),
(453,682,o),
(573,706,o),
(670,739,c)
);
},
{
closed = 1;
nodes = (
(643,567,l),
(327,567,l),
(327,440,l),
(643,440,l)
);
},
{
closed = 1;
nodes = (
(556,802,l),
(427,747,l),
(427,-94,l),
(556,-94,l)
);
},
{
closed = 1;
nodes = (
(433,485,l),
(400,346,o),
(335,203,o),
(265,115,c),
(288,79,o),
(322,22,o),
(336,-20,c),
(415,92,o),
(488,275,o),
(526,453,c)
);
},
{
closed = 1;
nodes = (
(312,757,l),
(133,757,l),
(133,628,l),
(203,628,l),
(203,292,l),
(133,292,l),
(133,163,l),
(312,163,l)
);
},
{
closed = 1;
nodes = (
(162,757,l),
(55,757,l),
(55,77,l),
(162,77,l)
);
},
{
closed = 1;
nodes = (
(491,363,l),
(522,316,o),
(575,222,o),
(599,166,c),
(677,289,l),
(659,311,o),
(576,405,o),
(552,427,c)
);
}
);
vertWidth = 1000;
width = 1000;
}
);
note = cid12484;
unicode = 21853;
}
{
glyphname = uni556A;
layers = (
{
layerId = m01;
shapes = (
{
closed = 1;
nodes = (
(899,20,l),
(624,20,l),
(624,-10,l),
(899,-10,l)
);
},
{
closed = 1;
nodes = (
(899,338,l),
(624,338,l),
(624,309,l),
(899,309,l)
);
},
{
closed = 1;
nodes = (
(906,647,l),
(617,647,l),
(617,-71,l),
(646,-71,l),
(646,618,l),
(876,618,l),
(876,-65,l),
(906,-65,l)
);
},
{
closed = 1;
nodes = (
(765,833,l),
(750,775,o),
(721,688,o),
(699,635,c),
(724,625,l),
(748,678,o),
(773,759,o),
(794,822,c)
);
},
{
closed = 1;
nodes = (
(290,720,l),
(98,720,l),
(98,691,l),
(261,691,l),
(261,227,l),
(98,227,l),
(98,198,l),
(290,198,l)
);
},
{
closed = 1;
nodes = (
(113,720,l),
(84,720,l),
(84,116,l),
(113,116,l)
);
},
{
closed = 1;
nodes = (
(582,619,l),
(322,619,l),
(322,589,l),
(582,589,l)
);
},
{
closed = 1;
nodes = (
(328,251,l),
(401,278,o),
(496,315,o),
(588,351,c),
(583,377,l),
(484,339,o),
(383,302,o),
(315,278,c)
);
},
{
closed = 1;
nodes = (
(470,828,l),
(440,828,l),
(440,-23,ls),
(440,-36,o),
(436,-39,o),
(425,-40,cs),
(413,-40,o),
(375,-41,o),
(331,-39,c),
(336,-49,o),
(340,-64,o),
(342,-71,c),
(395,-71,o),
(428,-70,o),
(444,-65,cs),
(462,-60,o),
(470,-49,o),
(470,-22,cs)
);
}
);
vertWidth = 1000;
width = 1000;
},
{
layerId = "94DDBC6A-1627-4027-9125-871D02041BCD";
shapes = (
{
closed = 1;
nodes = (
(882,84,l),
(678,84,l),
(678,-50,l),
(882,-50,l)
);
},
{
closed = 1;
nodes = (
(882,379,l),
(678,379,l),
(678,252,l),
(882,252,l)
);
},
{
closed = 1;
nodes = (
(944,676,l),
(618,676,l),
(618,-95,l),
(733,-95,l),
(733,542,l),
(823,542,l),
(823,-87,l),
(944,-87,l)
);
},
{
closed = 1;
nodes = (
(719,859,l),
(716,792,o),
(704,701,o),
(692,641,c),
(812,624,l),
(826,678,o),
(840,761,o),
(856,842,c)
);
},
{
closed = 1;
nodes = (
(322,757,l),
(131,757,l),
(131,628,l),
(203,628,l),
(203,298,l),
(131,298,l),
(131,169,l),
(322,169,l)
);
},
{
closed = 1;
nodes = (
(169,757,l),
(52,757,l),
(52,77,l),
(169,77,l)
);
},
{
closed = 1;
nodes = (
(605,672,l),
(335,672,l),
(335,539,l),
(605,539,l)
);
},
{
closed = 1;
nodes = (
(356,227,l),
(434,253,o),
(534,289,o),
(616,321,c),
(595,442,l),
(504,415,o),
(398,386,o),
(320,366,c)
);
},
{
closed = 1;
nodes = (
(536,855,l),
(407,855,l),
(407,55,ls),
(407,41,o),
(402,37,o),
(389,36,cs),
(376,36,o),
(338,36,o),
(300,38,c),
(318,1,o),
(337,-58,o),
(341,-94,c),
(407,-94,o),
(456,-88,o),
(491,-66,cs),
(525,-44,o),
(536,-8,o),
(536,54,cs)
);
}
);
vertWidth = 1000;
width = 1000;
}
);
note = cid12502;
unicode = 21866;
}
{
glyphname = uni5575;
layers = (
{
layerId = m01;
shapes = (
{
closed = 1;
nodes = (
(285,725,l),
(99,725,l),
(99,696,l),
(256,696,l),
(256,232,l),
(99,232,l),
(99,203,l),
(285,203,l)
);
},
{
closed = 1;
nodes = (
(114,725,l),
(84,725,l),
(84,121,l),
(114,121,l)
);
},
{
closed = 1;
nodes = (
(349,806,l),
(395,773,o),
(447,724,o),
(472,691,c),
(493,711,l),
(469,745,o),
(416,792,o),
(370,823,c)
);
},
{
closed = 1;
nodes = (
(313,530,l),
(361,503,o),
(416,462,o),
(444,432,c),
(463,455,l),
(436,484,o),
(379,524,o),
(331,550,c)
);
},
{
closed = 1;
nodes = (
(313,-59,l),
(362,31,o),
(425,167,o),
(468,272,c),
(445,290,l),
(399,179,o),
(332,40,o),
(286,-39,c)
);
},
{
closed = 1;
nodes = (
(552,681,l),
(522,681,l),
(522,412,ls),
(522,271,o),
(509,84,o),
(397,-51,c),
(404,-54,o),
(416,-63,o),
(421,-69,c),
(535,70,o),
(552,266,o),
(552,412,cs)
);
},
{
closed = 1;
nodes = (
(917,681,l),
(533,681,l),
(533,652,l),
(917,652,l)
);
},
{
closed = 1;
nodes = (
(914,681,l),
(909,681,l),
(909,674,l),
(895,619,o),
(875,551,o),
(858,509,c),
(884,502,l),
(902,544,o),
(922,616,o),
(940,675,c),
(921,683,l)
);
},
{
closed = 1;
nodes = (
(740,833,l),
(711,833,l),
(711,427,l),
(740,427,l)
);
},
{
closed = 1;
nodes = (
(891,442,l),
(533,442,l),
(533,413,l),
(891,413,l)
);
},
{
closed = 1;
nodes = (
(888,442,l),
(882,442,l),
(882,434,l),
(825,195,o),
(664,27,o),
(506,-42,c),
(513,-48,o),
(520,-59,o),
(524,-65,c),
(687,11,o),
(850,180,o),
(912,436,c),
(894,444,l)
);
},
{
closed = 1;
nodes = (
(570,427,l),
(631,199,o),
(759,13,o),
(939,-68,c),
(945,-61,o),
(954,-51,o),
(961,-44,c),
(781,30,o),
(655,213,o),
(596,435,c)
);
}
);
vertWidth = 1000;
width = 1000;
},
{
layerId = "94DDBC6A-1627-4027-9125-871D02041BCD";
shapes = (
{
closed = 1;
nodes = (
(318,757,l),
(132,757,l),
(132,628,l),
(202,628,l),
(202,298,l),
(132,298,l),
(132,169,l),
(318,169,l)
);
},
{
closed = 1;
nodes = (
(165,757,l),
(50,757,l),
(50,77,l),
(165,77,l)
);
},
{
closed = 1;
nodes = (
(332,742,l),
(378,720,o),
(436,684,o),
(464,656,c),
(546,763,l),
(515,790,o),
(456,821,o),
(409,840,c)
);
},
{
closed = 1;
nodes = (
(296,486,l),
(342,464,o),
(398,429,o),
(425,403,c),
(505,511,l),
(474,537,o),
(416,566,o),
(370,584,c)
);
},
{
closed = 1;
nodes = (
(404,-77,l),
(439,32,o),
(475,152,o),
(503,263,c),
(394,324,l),
(360,200,o),
(313,67,o),
(280,-19,c)
);
},
{
closed = 1;
nodes = (
(650,725,l),
(521,725,l),
(521,462,ls),
(521,323,o),
(515,124,o),
(443,-11,c),
(475,-29,o),
(520,-65,o),
(547,-93,c),
(635,60,o),
(650,303,o),
(650,462,cs)
);
},
{
closed = 1;
nodes = (
(896,725,l),
(576,725,l),
(576,605,l),
(896,605,l)
);
},
{
closed = 1;
nodes = (
(878,725,l),
(861,725,l),
(861,709,ls),
(857,649,o),
(849,572,o),
(840,525,c),
(939,504,l),
(956,556,o),
(971,640,o),
(978,714,c),
(896,728,l)
);
},
{
closed = 1;
nodes = (
(817,851,l),
(688,851,l),
(688,441,l),
(817,441,l)
);
},
{
closed = 1;
nodes = (
(883,484,l),
(554,484,l),
(554,366,l),
(883,366,l)
);
},
{
closed = 1;
nodes = (
(860,484,l),
(837,484,l),
(837,462,l),
(806,267,o),
(705,85,o),
(560,12,c),
(586,-13,o),
(622,-61,o),
(639,-93,c),
(809,8,o),
(919,200,o),
(963,461,c),
(882,488,l)
);
},
{
closed = 1;
nodes = (
(585,410,l),
(636,173,o),
(721,-4,o),
(903,-95,c),
(922,-60,o),
(961,-8,o),
(990,17,c),
(825,86,o),
(739,241,o),
(699,431,c)
);
}
);
vertWidth = 1000;
width = 1000;
}
);
note = cid12513;
unicode = 21877;
}
{
glyphname = uni5576;
layers = (
{
layerId = m01;
shapes = (
{
closed = 1;
nodes = (
(320,720,l),
(98,720,l),
(98,691,l),
(290,691,l),
(290,246,l),
(98,246,l),
(98,217,l),
(320,217,l)
);
},
{
closed = 1;
nodes = (
(113,720,l),
(84,720,l),
(84,130,l),
(113,130,l)
);
},
{
closed = 1;
nodes = (
(654,830,l),
(624,830,l),
(624,684,l),
(654,684,l)
);
},
{
closed = 1;
nodes = (
(918,699,l),
(371,699,l),
(371,547,l),
(401,547,l),
(401,670,l),
(889,670,l),
(889,547,l),
(918,547,l)
);
},
{
closed = 1;
nodes = (
(891,505,l),
(392,505,l),
(392,475,l),
(891,475,l)
);
},
{
closed = 1;
nodes = (
(879,273,l),
(636,273,l),
(636,243,l),
(879,243,l)
);
},
{
closed = 1;
nodes = (
(653,496,l),
(623,496,l),
(623,-16,l),
(653,-25,l)
);
},
{
closed = 1;
nodes = (
(427,225,l),
(492,-8,o),
(623,-50,o),
(798,-50,cs),
(903,-50,l),
(937,-50,l),
(938,-42,o),
(944,-28,o),
(950,-20,c),
(925,-20,o),
(814,-20,o),
(799,-20,cs),
(640,-20,o),
(508,17,o),
(450,236,c)
);
},
{
closed = 1;
nodes = (
(443,374,l),
(425,184,o),
(380,40,o),
(275,-52,c),
(283,-57,o),
(296,-66,o),
(302,-71,c),
(405,28,o),
(454,172,o),
(473,371,c)
);
}
);
vertWidth = 1000;
width = 1000;
},
{
layerId = "94DDBC6A-1627-4027-9125-871D02041BCD";
shapes = (
{
closed = 1;
nodes = (
(345,757,l),
(141,757,l),
(141,626,l),
(223,626,l),
(223,311,l),
(141,311,l),
(141,179,l),
(345,179,l)
);
},
{
closed = 1;
nodes = (
(177,757,l),
(57,757,l),
(57,95,l),
(177,95,l)
);
},
{
closed = 1;
nodes = (
(730,856,l),
(587,856,l),
(587,689,l),
(730,689,l)
);
},
{
closed = 1;
nodes = (
(961,744,l),
(369,744,l),
(369,542,l),
(501,542,l),
(501,620,l),
(822,620,l),
(822,542,l),
(961,542,l)
);
},
{
closed = 1;
nodes = (
(906,526,l),
(424,526,l),
(424,395,l),
(906,395,l)
);
},
{
closed = 1;
nodes = (
(886,308,l),
(656,308,l),
(656,179,l),
(886,179,l)
);
},
{
closed = 1;
nodes = (
(728,469,l),
(589,469,l),
(589,33,l),
(728,-15,l)
);
},
{
closed = 1;
nodes = (
(426,212,l),
(486,-31,o),
(600,-73,o),
(765,-73,cs),
(903,-73,l),
(944,-73,l),
(950,-35,o),
(967,28,o),
(985,59,c),
(934,57,o),
(814,56,o),
(773,56,cs),
(658,57,o),
(567,78,o),
(523,240,c)
);
},
{
closed = 1;
nodes = (
(412,351,l),
(401,196,o),
(363,66,o),
(271,-8,c),
(302,-28,o),
(358,-74,o),
(380,-98,c),
(480,-3,o),
(529,149,o),
(548,339,c)
);
}
);
vertWidth = 1000;
width = 1000;
}
);
note = cid12514;
unicode = 21878;
}
{
glyphname = uni5577;
layers = (
{
layerId = m01;
shapes = (
{
closed = 1;
nodes = (
(299,720,l),
(98,720,l),
(98,691,l),
(270,691,l),
(270,228,l),
(98,228,l),
(98,198,l),
(299,198,l)
);
},
{
closed = 1;
nodes = (
(113,720,l),
(84,720,l),
(84,116,l),
(113,116,l)
);
},
{
closed = 1;
nodes = (
(511,832,l),
(481,832,l),
(481,709,l),
(511,709,l)
);
},
{
closed = 1;
nodes = (
(630,722,l),
(377,722,l),
(377,693,l),
(601,693,l),
(601,388,l),
(377,388,l),
(377,359,l),
(630,359,l)
);
},
{
closed = 1;
nodes = (
(921,780,l),
(694,780,l),
(694,-70,l),
(723,-70,l),
(723,751,l),
(921,751,l)
);
},
{
closed = 1;
nodes = (
(915,780,l),
(910,780,l),
(910,776,l),
(882,689,o),
(842,569,o),
(797,450,c),
(879,343,o),
(916,269,o),
(916,199,cs),
(916,162,o),
(909,118,o),
(889,103,cs),
(880,97,o),
(867,94,o),
(852,93,cs),
(833,92,o),
(804,92,o),
(772,95,c),
(779,86,o),
(784,75,o),
(785,66,c),
(810,65,o),
(839,64,o),
(861,66,cs),
(879,68,o),
(897,74,o),
(909,82,cs),
(933,100,o),
(944,154,o),
(944,199,cs),
(944,272,o),
(908,349,o),
(827,453,c),
(868,564,o),
(909,678,o),
(939,769,c),
(920,783,l)
);
},
{
closed = 1;
nodes = (
(607,558,l),
(377,558,l),
(377,528,l),
(607,528,l)
);
},
{
closed = 1;
nodes = (
(304,0,l),
(380,32,o),
(480,74,o),
(577,114,c),
(572,142,l),
(468,99,o),
(364,55,o),
(293,29,c)
);
},
{
closed = 1;
nodes = (
(459,276,l),
(526,190,o),
(596,73,o),
(626,-4,c),
(652,10,l),
(623,85,o),
(551,202,o),
(482,288,c)
);
},
{
closed = 1;
nodes = (
(631,303,l),
(607,270,o),
(560,219,o),
(527,188,c),
(548,173,l),
(581,202,o),
(624,245,o),
(656,285,c)
);
},
{
closed = 1;
nodes = (
(390,722,l),
(361,722,l),
(361,36,l),
(390,49,l)
);
}
);
vertWidth = 1000;
width = 1000;
},
{
layerId = "94DDBC6A-1627-4027-9125-871D02041BCD";
name = Heavy;
shapes = (
{
closed = 1;
nodes = (
(309,757,l),
(130,757,l),
(130,628,l),
(200,628,l),
(200,292,l),
(130,292,l),
(130,163,l),
(309,163,l)
);
},
{
closed = 1;
nodes = (
(162,757,l),
(55,757,l),
(55,77,l),
(162,77,l)
);
},
{
closed = 1;
nodes = (
(551,853,l),
(432,853,l),
(432,695,l),
(551,695,l)
);
},
{
closed = 1;
nodes = (
(639,752,l),
(388,752,l),
(388,644,l),
(525,644,l),
(525,444,l),
(388,444,l),
(388,336,l),
(639,336,l)
);
},
{
closed = 1;
nodes = (
(869,788,l),
(664,788,l),
(664,-94,l),
(784,-94,l),
(784,667,l),
(869,667,l)
);
},
{
closed = 1;
nodes = (
(859,788,l),
(838,788,l),
(838,776,l),
(828,683,o),
(811,567,o),
(789,441,c),
(834,347,o),
(849,296,o),
(849,248,cs),
(849,214,o),
(845,189,o),
(835,179,c),
(829,175,o),
(821,173,o),
(811,173,cs),
(801,173,o),
(786,173,o),
(772,174,c),
(792,138,o),
(803,83,o),
(804,47,c),
(827,46,o),
(851,47,o),
(868,49,cs),
(890,54,o),
(910,62,o),
(926,74,cs),
(962,105,o),
(979,160,o),
(979,241,cs),
(979,297,o),
(960,364,o),
(911,459,c),
(936,562,o),
(957,656,o),
(976,743,c),
(875,793,l)
);
},
{
closed = 1;
nodes = (
(560,599,l),
(390,599,l),
(390,493,l),
(560,493,l)
);
},
{
closed = 1;
nodes = (
(301,-58,l),
(387,-30,o),
(492,3,o),
(588,36,c),
(567,161,l),
(459,128,o),
(347,94,o),
(270,75,c)
);
},
{
closed = 1;
nodes = (
(446,254,l),
(497,166,o),
(548,46,o),
(567,-31,c),
(671,32,l),
(650,109,o),
(597,223,o),
(544,311,c)
);
},
{
closed = 1;
nodes = (
(600,307,l),
(581,280,o),
(544,240,o),
(520,219,c),
(583,148,l),
(608,167,o),
(643,197,o),
(675,227,c)
);
},
{
closed = 1;
nodes = (
(452,752,l),
(333,752,l),
(333,31,l),
(452,84,l)
);
}
);
vertWidth = 1000;
width = 1000;
}
);
note = cid12515;
unicode = 21879;
}
{
glyphname = uni55B3;
layers = (
{
layerId = m01;
shapes = (
{
closed = 1;
nodes = (
(342,0,l),
(342,-29,l),
(952,-29,l),
(952,0,l)
);
},
{
closed = 1;
nodes = (
(448,403,l),
(448,101,l),
(856,101,l),
(856,403,l)
);
},
{
closed = 1;
nodes = (
(478,237,l),
(827,237,l),
(827,131,l),
(478,131,l)
);
},
{
closed = 1;
nodes = (
(478,374,l),
(827,374,l),
(827,267,l),
(478,267,l)
);
},
{
closed = 1;
nodes = (
(366,697,l),
(366,668,l),
(940,668,l),
(940,697,l)
);
},
{
closed = 1;
nodes = (
(635,831,l),
(635,435,l),
(665,435,l),
(665,831,l)
);
},
{
closed = 1;
nodes = (
(614,689,l),
(557,587,o),
(445,484,o),
(348,437,c),
(355,431,o),
(364,423,o),
(369,415,c),
(466,467,o),
(579,572,o),
(638,678,c)
);
},
{
closed = 1;
nodes = (
(662,678,l),
(720,574,o),
(836,469,o),
(935,419,c),
(940,426,o),
(949,436,o),
(956,441,c),
(856,487,o),
(743,588,o),
(686,689,c)
);
},
{
closed = 1;
nodes = (
(98,721,l),
(98,692,l),
(287,692,l),
(287,232,l),
(98,232,l),
(98,203,l),
(317,203,l),
(317,721,l)
);
},
{
closed = 1;
nodes = (
(84,721,l),
(84,126,l),
(113,126,l),
(113,721,l)
);
}
);
vertWidth = 1000;
width = 1000;
},
{
layerId = "94DDBC6A-1627-4027-9125-871D02041BCD";
shapes = (
{
closed = 1;
nodes = (
(329,41,l),
(329,-75,l),
(975,-75,l),
(975,41,l)
);
},
{
closed = 1;
nodes = (
(432,426,l),
(432,67,l),
(881,67,l),
(881,426,l)
);
},
{
closed = 1;
nodes = (
(562,193,l),
(745,193,l),
(745,162,l),
(562,162,l)
);
},
{
closed = 1;
nodes = (
(562,317,l),
(745,317,l),
(745,288,l),
(562,288,l)
);
},
{
closed = 1;
nodes = (
(374,755,l),
(374,634,l),
(955,634,l),
(955,755,l)
);
},
{
closed = 1;
nodes = (
(590,856,l),
(590,446,l),
(732,446,l),
(732,856,l)
);
},
{
closed = 1;
nodes = (
(555,714,l),
(508,633,o),
(415,553,o),
(318,511,c),
(349,485,o),
(391,434,o),
(412,401,c),
(518,459,o),
(612,562,o),
(669,674,c)
);
},
{
closed = 1;
nodes = (
(658,670,l),
(715,570,o),
(809,467,o),
(899,408,c),
(921,442,o),
(965,493,o),
(996,518,c),
(908,561,o),
(814,639,o),
(764,712,c)
);
},
{
closed = 1;
nodes = (
(128,758,l),
(128,627,l),
(219,627,l),
(219,300,l),
(128,300,l),
(128,168,l),
(341,168,l),
(341,758,l)
);
},
{
closed = 1;
nodes = (
(55,758,l),
(55,87,l),
(176,87,l),
(176,758,l)
);
}
);
vertWidth = 1000;
width = 1000;
}
);
note = cid12602;
unicode = 21939;
}
{
glyphname = uni55BA;
layers = (
{
layerId = m01;
shapes = (
{
closed = 1;
nodes = (
(492,831,l),
(449,670,o),
(378,516,o),
(289,414,c),
(297,408,o),
(309,398,o),
(313,392,c),
(401,500,o),
(474,657,o),
(521,825,c)
);
},
{
closed = 1;
nodes = (
(296,720,l),
(98,720,l),
(98,691,l),
(267,691,l),
(267,228,l),
(98,228,l),
(98,198,l),
(296,198,l)
);
},
{
closed = 1;
nodes = (
(113,720,l),
(84,720,l),
(84,112,l),
(113,112,l)
);
},
{
closed = 1;
nodes = (
(449,650,l),
(423,622,l),
(423,-70,l),
(452,-70,l),
(452,648,l)
);
},
{
closed = 1;
nodes = (
(751,324,l),
(721,324,l),
(721,-73,l),
(751,-73,l)
);
},
{
closed = 1;
nodes = (
(513,296,l),
(623,302,o),
(770,312,o),
(917,322,c),
(917,347,l),
(767,338,o),
(613,331,o),
(508,327,c)
);
},
{
closed = 1;
nodes = (
(851,674,l),
(785,565,o),
(671,413,o),
(586,321,c),
(609,307,l),
(695,399,o),
(804,545,o),
(877,660,c)
);
},
{
closed = 1;
nodes = (
(723,767,l),
(693,709,o),
(638,623,o),
(598,574,c),
(620,560,l),
(661,608,o),
(714,688,o),
(751,749,c)
);
},
{
closed = 1;
nodes = (
(824,222,l),
(871,150,o),
(917,53,o),
(933,-8,c),
(961,5,l),
(945,65,o),
(898,160,o),
(850,231,c)
);
},
{
closed = 1;
nodes = (
(825,448,l),
(872,388,o),
(920,307,o),
(939,255,c),
(962,268,l),
(944,320,o),
(896,400,o),
(848,459,c)
);
},
{
closed = 1;
nodes = (
(539,599,l),
(601,554,o),
(670,489,o),
(703,444,c),
(722,462,l),
(690,507,o),
(621,571,o),
(558,615,c)
);
},
{
closed = 1;
nodes = (
(609,229,l),
(586,142,o),
(549,57,o),
(503,-3,c),
(511,-7,o),
(524,-16,o),
(528,-20,c),
(573,41,o),
(613,131,o),
(638,223,c)
);
},
{
closed = 1;
nodes = (
(890,822,l),
(809,794,o),
(651,767,o),
(520,750,c),
(524,743,o),
(529,733,o),
(531,726,c),
(665,742,o),
(822,768,o),
(921,800,c)
);
}
);
width = 1000;
},
{
layerId = "94DDBC6A-1627-4027-9125-871D02041BCD";
shapes = (
{
closed = 1;
nodes = (
(436,853,l),
(405,716,o),
(347,585,o),
(270,502,c),
(293,473,o),
(331,406,o),
(345,376,c),
(443,483,o),
(519,654,o),
(562,823,c)
);
},
{
closed = 1;
nodes = (
(316,757,l),
(133,757,l),
(133,628,l),
(203,628,l),
(203,267,l),
(133,267,l),
(133,138,l),
(316,138,l)
);
},
{
closed = 1;
nodes = (
(167,757,l),
(55,757,l),
(55,68,l),
(167,68,l)
);
},
{
closed = 1;
nodes = (
(488,684,l),
(377,573,l),
(377,-93,l),
(501,-93,l),
(501,679,l)
);
},
{
closed = 1;
nodes = (
(806,324,l),
(679,324,l),
(679,-95,l),
(806,-95,l)
);
},
{
closed = 1;
nodes = (
(535,236,l),
(642,244,o),
(779,256,o),
(911,269,c),
(911,375,l),
(766,368,o),
(618,361,o),
(520,358,c)
);
},
{
closed = 1;
nodes = (
(828,664,l),
(766,556,o),
(662,420,o),
(579,336,c),
(669,285,l),
(754,368,o),
(859,496,o),
(941,608,c)
);
},
{
closed = 1;
nodes = (
(686,738,l),
(664,680,o),
(624,603,o),
(590,553,c),
(681,512,l),
(718,557,o),
(763,627,o),
(806,691,c)
);
},
{
closed = 1;
nodes = (
(808,179,l),
(837,109,o),
(863,17,o),
(871,-41,c),
(982,-4,l),
(973,54,o),
(943,143,o),
(911,212,c)
);
},
{
closed = 1;
nodes = (
(797,435,l),
(832,365,o),
(867,272,o),
(877,214,c),
(984,263,l),
(972,321,o),
(934,410,o),
(896,478,c)
);
},
{
closed = 1;
nodes = (
(533,537,l),
(588,490,o),
(657,425,o),
(687,380,c),
(760,479,l),
(728,521,o),
(656,582,o),
(601,624,c)
);
},
{
closed = 1;
nodes = (
(563,207,l),
(551,133,o),
(528,56,o),
(495,5,c),
(524,-10,o),
(574,-41,o),
(597,-60,c),
(633,-1,o),
(665,92,o),
(682,182,c)
);
},
{
closed = 1;
nodes = (
(854,844,l),
(776,814,o),
(649,788,o),
(526,775,c),
(540,746,o),
(557,698,o),
(561,667,c),
(697,679,o),
(848,708,o),
(953,743,c)
);
}
);
width = 1000;
}
);
note = cid12636;
unicode = 21946;
}
{
glyphname = uni55BB;
layers = (
{
layerId = m01;
shapes = (
{
closed = 1;
nodes = (
(303,721,l),
(99,721,l),
(99,692,l),
(274,692,l),
(274,247,l),
(99,247,l),
(99,218,l),
(303,218,l)
);
},
{
closed = 1;
nodes = (
(113,721,l),
(84,721,l),
(84,126,l),
(113,126,l)
);
},
{
closed = 1;
nodes = (
(815,565,l),
(470,565,l),
(470,535,l),
(815,535,l)
);
},
{
closed = 1;
nodes = (
(594,289,l),
(395,289,l),
(395,260,l),
(594,260,l)
);
},
{
closed = 1;
nodes = (
(594,139,l),
(395,139,l),
(395,110,l),
(594,110,l)
);
},
{
closed = 1;
nodes = (
(608,437,l),
(579,437,l),
(579,-27,ls),
(579,-37,o),
(576,-40,o),
(565,-41,cs),
(555,-41,o),
(520,-41,o),
(477,-40,c),
(482,-49,o),
(488,-61,o),
(489,-69,c),
(540,-69,o),
(570,-68,o),
(587,-64,cs),
(604,-58,o),
(608,-48,o),
(608,-26,cs)
);
},
{
closed = 1;
nodes = (
(598,437,l),
(381,437,l),
(381,-70,l),
(411,-70,l),
(411,408,l),
(598,408,l)
);
},
{
closed = 1;
nodes = (
(724,420,l),
(695,420,l),
(695,84,l),
(724,84,l)
);
},
{
closed = 1;
nodes = (
(705,695,o),
(828,588,o),
(939,521,c),
(943,527,o),
(951,539,o),
(957,545,c),
(849,607,o),
(721,716,o),
(646,824,c),
(616,824,l),
(559,720,o),
(439,607,o),
(318,536,c),
(325,530,o),
(333,521,o),
(337,514,c),
(459,588,o),
(573,699,o),
(633,795,c)
);
},
{
closed = 1;
nodes = (
(893,449,l),
(863,449,l),
(863,-25,ls),
(863,-37,o),
(860,-41,o),
(847,-42,cs),
(834,-43,o),
(792,-43,o),
(737,-41,c),
(742,-51,o),
(748,-63,o),
(750,-71,c),
(811,-71,o),
(849,-71,o),
(867,-65,cs),
(886,-60,o),
(893,-50,o),
(893,-25,cs)
);
}
);
width = 1000;
},
{
layerId = "94DDBC6A-1627-4027-9125-871D02041BCD";
shapes = (
{
closed = 1;
nodes = (
(346,758,l),
(134,758,l),
(134,626,l),
(221,626,l),
(221,300,l),
(134,300,l),
(134,168,l),
(346,168,l)
);
},
{
closed = 1;
nodes = (
(178,758,l),
(54,758,l),
(54,87,l),
(178,87,l)
);
},
{
closed = 1;
nodes = (
(811,597,l),
(486,597,l),
(486,483,l),
(811,483,l)
);
},
{
closed = 1;
nodes = (
(608,305,l),
(450,305,l),
(450,204,l),
(608,204,l)
);
},
{
closed = 1;
nodes = (
(608,168,l),
(450,168,l),
(450,67,l),
(608,67,l)
);
},
{
closed = 1;
nodes = (
(654,445,l),
(541,445,l),
(541,20,ls),
(541,12,o),
(539,9,o),
(532,9,cs),
(525,9,o),
(508,9,o),
(493,10,c),
(506,-19,o),
(518,-65,o),
(520,-95,c),
(562,-95,o),
(594,-94,o),
(621,-76,cs),
(649,-58,o),
(654,-29,o),
(654,18,cs)
);
},
{
closed = 1;
nodes = (
(606,445,l),
(374,445,l),
(374,-95,l),
(485,-95,l),
(485,337,l),
(606,337,l)
);
},
{
closed = 1;
nodes = (
(784,422,l),
(679,422,l),
(679,75,l),
(784,75,l)
);
},
{
closed = 1;
nodes = (
(705,643,o),
(811,539,o),
(906,482,c),
(928,525,o),
(958,576,o),
(987,611,c),
(882,657,o),
(781,757,o),
(709,858,c),
(576,858,l),
(526,772,o),
(421,659,o),
(315,602,c),
(340,571,o),
(373,518,o),
(388,481,c),
(492,542,o),
(590,643,o),
(647,726,c)
);
},
{
closed = 1;
nodes = (
(931,454,l),
(811,454,l),
(811,32,ls),
(811,21,o),
(807,18,o),
(796,18,cs),
(784,18,o),
(746,18,o),
(713,19,c),
(727,-13,o),
(742,-62,o),
(746,-95,c),
(807,-95,o),
(853,-93,o),
(887,-75,cs),
(922,-56,o),
(931,-25,o),
(931,30,cs)
);
}
);
width = 1000;
}
);
note = cid12615;
unicode = 21947;
}
{
glyphname = uni55D6;
layers = (
{
layerId = m01;
shapes = (
{
closed = 1;
nodes = (
(559,785,l),
(525,762,o),
(461,735,o),
(407,717,c),
(411,710,o),
(416,700,o),
(419,694,c),
(475,712,o),
(540,737,o),
(586,764,c)
);
},
{
closed = 1;
nodes = (
(428,720,l),
(399,730,l),
(399,407,l),
(428,407,l)
);
},
{
closed = 1;
nodes = (
(869,426,l),
(709,426,l),
(709,397,l),
(899,397,l),
(899,738,l),
(710,738,l),
(710,709,l),
(869,709,l)
);
},
{
closed = 1;
nodes = (
(568,585,l),
(413,585,l),
(413,556,l),
(568,556,l)
);
},
{
closed = 1;
nodes = (
(576,426,l),
(399,426,l),
(399,397,l),
(576,397,l)
);
},
{
closed = 1;
nodes = (
(882,585,l),
(719,585,l),
(719,556,l),
(882,556,l)
);
},
{
closed = 1;
nodes = (
(662,830,l),
(632,830,l),
(632,271,l),
(662,271,l)
);
},
{
closed = 1;
nodes = (
(871,291,l),
(373,291,l),
(373,262,l),
(871,262,l)
);
},
{
closed = 1;
nodes = (
(870,291,l),
(864,291,l),
(864,284,l),
(779,91,o),
(546,-8,o),
(327,-43,c),
(333,-50,o),
(340,-63,o),
(343,-70,c),
(569,-29,o),
(805,72,o),
(897,281,c),
(877,293,l)
);
},
{
closed = 1;
nodes = (
(450,253,l),
(537,91,o),
(723,-34,o),
(932,-71,c),
(937,-62,o),
(945,-51,o),
(953,-44,c),
(743,-11,o),
(559,108,o),
(477,264,c)
);
},
{
closed = 1;
nodes = (
(313,720,l),
(100,720,l),
(100,691,l),
(283,691,l),
(283,246,l),
(100,246,l),
(100,217,l),
(313,217,l)
);
},
{
closed = 1;
nodes = (
(113,720,l),
(84,720,l),
(84,138,l),
(113,138,l)
);
}
);
vertWidth = 1000;
width = 1000;
},
{
layerId = "94DDBC6A-1627-4027-9125-871D02041BCD";
shapes = (
{
closed = 1;
nodes = (
(521,842,l),
(491,814,o),
(443,783,o),
(398,762,c),
(413,736,o),
(430,694,o),
(437,668,c),
(493,686,o),
(561,713,o),
(619,748,c)
);
},
{
closed = 1;
nodes = (
(497,757,l),
(372,796,l),
(372,421,l),
(497,421,l)
);
},
{
closed = 1;
nodes = (
(807,485,l),
(737,485,l),
(737,372,l),
(935,372,l),
(935,801,l),
(739,801,l),
(739,688,l),
(807,688,l)
);
},
{
closed = 1;
nodes = (
(562,642,l),
(426,642,l),
(426,541,l),
(562,541,l)
);
},
{
closed = 1;
nodes = (
(562,488,l),
(372,488,l),
(372,375,l),
(562,375,l)
);
},
{
closed = 1;
nodes = (
(876,642,l),
(740,642,l),
(740,541,l),
(876,541,l)
);
},
{
closed = 1;
nodes = (
(716,855,l),
(587,855,l),
(587,310,l),
(716,310,l)
);
},
{
closed = 1;
nodes = (
(860,325,l),
(367,325,l),
(367,207,l),
(860,207,l)
);
},
{
closed = 1;
nodes = (
(832,325,l),
(805,325,l),
(805,307,l),
(737,137,o),
(541,53,o),
(293,25,c),
(316,-5,o),
(343,-60,o),
(355,-95,c),
(632,-49,o),
(849,51,o),
(944,290,c),
(855,330,l)
);
},
{
closed = 1;
nodes = (
(408,185,l),
(511,30,o),
(674,-59,o),
(902,-95,c),
(920,-57,o),
(959,2,o),
(990,32,c),
(781,54,o),
(614,119,o),
(537,226,c)
);
},
{
closed = 1;
nodes = (
(339,757,l),
(142,757,l),
(142,628,l),
(217,628,l),
(217,307,l),
(142,307,l),
(142,178,l),
(339,178,l)
);
},
{
closed = 1;
nodes = (
(178,757,l),
(60,757,l),
(60,95,l),
(178,95,l)
);
}
);
vertWidth = 1000;
width = 1000;
}
);
note = cid12691;
unicode = 21974;
}
{
glyphname = uni55E1;
layers = (
{
layerId = m01;
shapes = (
{
closed = 1;
nodes = (
(97,696,l),
(97,666,l),
(267,666,l),
(267,225,l),
(97,225,l),
(97,195,l),
(296,195,l),
(296,696,l)
);
},
{
closed = 1;
nodes = (
(85,696,l),
(85,94,l),
(115,94,l),
(115,696,l)
);
},
{
closed = 1;
nodes = (
(337,382,l),
(337,353,l),
(598,353,l),
(598,382,l)
);
},
{
closed = 1;
nodes = (
(575,382,l),
(575,-25,ls),
(575,-36,o),
(572,-40,o),
(560,-40,cs),
(548,-41,o),
(510,-41,o),
(458,-40,c),
(463,-50,o),
(469,-62,o),
(471,-70,c),
(527,-70,o),
(562,-70,o),
(581,-65,cs),
(600,-59,o),
(604,-48,o),
(604,-25,cs),
(604,382,l)
);
},
{
closed = 1;
nodes = (
(381,479,l),
(497,485,o),
(666,495,o),
(828,505,c),
(829,532,l),
(659,523,o),
(486,516,o),
(375,512,c)
);
},
{
closed = 1;
nodes = (
(512,795,l),
(474,725,o),
(402,663,o),
(332,621,c),
(338,616,o),
(348,603,o),
(352,598,c),
(423,643,o),
(498,713,o),
(539,788,c)
);
},
{
closed = 1;
nodes = (
(570,690,l),
(546,637,o),
(501,557,o),
(467,509,c),
(491,497,l),
(527,545,o),
(568,619,o),
(599,678,c)
);
},
{
closed = 1;
nodes = (
(691,605,l),
(758,561,o),
(838,492,o),
(877,447,c),
(902,465,l),
(864,509,o),
(782,575,o),
(715,620,c)
);
},
{
closed = 1;
nodes = (
(720,801,l),
(720,780,l),
(733,780,l),
(773,703,o),
(862,641,o),
(941,607,c),
(946,616,o),
(956,625,o),
(964,630,c),
(884,661,o),
(793,723,o),
(756,801,c)
);
},
{
closed = 1;
nodes = (
(581,801,l),
(581,771,l),
(749,771,l),
(749,801,l)
);
},
{
closed = 1;
nodes = (
(489,361,l),
(449,301,o),
(385,240,o),
(323,203,c),
(330,198,o),
(342,185,o),
(346,180,c),
(410,223,o),
(476,289,o),
(517,352,c)
);
},
{
closed = 1;
nodes = (
(551,246,l),
(499,154,o),
(406,64,o),
(312,12,c),
(320,6,o),
(333,-6,o),
(338,-12,c),
(433,46,o),
(526,142,o),
(579,238,c)
);
},
{
closed = 1;
nodes = (
(644,382,l),
(644,353,l),
(916,353,l),
(916,382,l)
);
},
{
closed = 1;
nodes = (
(890,382,l),
(890,-25,ls),
(890,-36,o),
(888,-40,o),
(876,-40,cs),
(863,-41,o),
(826,-41,o),
(775,-40,c),
(781,-50,o),
(786,-62,o),
(788,-70,c),
(842,-70,o),
(879,-70,o),
(896,-65,cs),
(915,-59,o),
(920,-48,o),
(920,-25,cs),
(920,382,l)
);
},
{
closed = 1;
nodes = (
(793,361,l),
(756,304,o),
(694,243,o),
(632,203,c),
(640,198,o),
(650,186,o),
(655,180,c),
(717,224,o),
(781,290,o),
(822,352,c)
);
},
{
closed = 1;
nodes = (
(865,248,l),
(819,161,o),
(731,72,o),
(638,18,c),
(646,12,o),
(657,0,o),
(661,-6,c),
(755,51,o),
(844,146,o),
(894,240,c)
);
}
);
width = 1000;
},
{
layerId = "94DDBC6A-1627-4027-9125-871D02041BCD";
shapes = (
{
closed = 1;
nodes = (
(117,731,l),
(117,601,l),
(200,601,l),
(200,285,l),
(117,285,l),
(117,155,l),
(312,155,l),
(312,731,l)
);
},
{
closed = 1;
nodes = (
(55,731,l),
(55,77,l),
(167,77,l),
(167,731,l)
);
},
{
closed = 1;
nodes = (
(331,408,l),
(331,291,l),
(575,291,l),
(575,408,l)
);
},
{
closed = 1;
nodes = (
(515,408,l),
(515,25,ls),
(515,14,o),
(511,11,o),
(502,11,cs),
(492,11,o),
(449,11,o),
(424,12,c),
(438,-17,o),
(452,-63,o),
(455,-95,c),
(511,-95,o),
(556,-94,o),
(590,-76,cs),
(623,-58,o),
(633,-30,o),
(633,23,cs),
(633,408,l)
);
},
{
closed = 1;
nodes = (
(390,439,l),
(509,446,o),
(671,456,o),
(825,467,c),
(827,572,l),
(664,565,o),
(492,558,o),
(378,555,c)
);
},
{
closed = 1;
nodes = (
(447,815,l),
(417,750,o),
(360,687,o),
(296,648,c),
(324,630,o),
(373,591,o),
(395,569,c),
(461,619,o),
(528,699,o),
(568,783,c)
);
},
{
closed = 1;
nodes = (
(528,703,l),
(515,649,o),
(489,575,o),
(464,525,c),
(568,500,l),
(597,545,o),
(634,614,o),
(667,681,c)
);
},
{
closed = 1;
nodes = (
(648,607,l),
(705,556,o),
(774,477,o),
(807,425,c),
(913,486,l),
(879,534,o),
(811,607,o),
(750,657,c)
);
},
{
closed = 1;
nodes = (
(661,829,l),
(661,768,l),
(685,768,l),
(730,694,o),
(811,619,o),
(903,571,c),
(921,604,o),
(962,655,o),
(988,680,c),
(905,711,o),
(829,767,o),
(793,829,c)
);
},
{
closed = 1;
nodes = (
(575,829,l),
(575,721,l),
(755,721,l),
(755,829,l)
);
},
{
closed = 1;
nodes = (
(410,314,l),
(382,276,o),
(333,236,o),
(284,211,c),
(305,191,o),
(336,155,o),
(353,131,c),
(405,164,o),
(463,220,o),
(502,276,c)
);
},
{
closed = 1;
nodes = (
(495,228,l),
(449,154,o),
(366,85,o),
(281,50,c),
(306,27,o),
(340,-13,o),
(358,-40,c),
(450,8,o),
(543,95,o),
(600,185,c)
);
},
{
closed = 1;
nodes = (
(652,408,l),
(652,291,l),
(904,291,l),
(904,408,l)
);
},
{
closed = 1;
nodes = (
(832,408,l),
(832,25,ls),
(832,15,o),
(828,11,o),
(817,11,cs),
(806,11,o),
(771,11,o),
(743,12,c),
(756,-17,o),
(771,-63,o),
(776,-95,c),
(825,-95,o),
(872,-94,o),
(906,-77,cs),
(941,-59,o),
(950,-30,o),
(950,24,cs),
(950,408,l)
);
},
{
closed = 1;
nodes = (
(722,314,l),
(699,279,o),
(658,240,o),
(615,213,c),
(637,193,o),
(667,159,o),
(684,136,c),
(730,167,o),
(780,221,o),
(813,277,c)
);
},
{
closed = 1;
nodes = (
(812,231,l),
(770,163,o),
(698,95,o),
(625,56,c),
(650,34,o),
(684,-5,o),
(703,-33,c),
(782,18,o),
(863,103,o),
(915,188,c)
);
}
);
width = 1000;
}
);
note = cid12691;
unicode = 21985;
}
{
glyphname = uni55F2;
layers = (
{
layerId = m01;
shapes = (
{
closed = 1;
nodes = (
(739,731,l),
(651,638,o),
(490,558,o),
(322,523,c),
(329,515,o),
(336,502,o),
(339,494,c),
(509,534,o),
(674,621,o),
(765,719,c)
);
},
{
closed = 1;
nodes = (
(532,817,l),
(486,766,o),
(409,714,o),
(333,681,c),
(340,675,o),
(349,665,o),
(354,658,c),
(428,692,o),
(507,749,o),
(560,808,c)
);
},
{
closed = 1;
nodes = (
(501,713,l),
(602,613,o),
(769,527,o),
(933,491,c),
(938,499,o),
(946,509,o),
(953,516,c),
(788,549,o),
(623,630,o),
(524,727,c)
);
},
{
closed = 1;
nodes = (
(710,801,l),
(789,756,o),
(875,694,o),
(919,651,c),
(938,673,l),
(891,716,o),
(806,777,o),
(730,819,c)
);
},
{
closed = 1;
nodes = (
(469,398,l),
(516,368,o),
(568,326,o),
(593,298,c),
(616,315,l),
(589,344,o),
(538,384,o),
(493,413,c)
);
},
{
closed = 1;
nodes = (
(744,480,l),
(736,480,l),
(736,471,l),
(669,342,o),
(494,244,o),
(349,206,c),
(357,199,o),
(366,188,o),
(371,180,c),
(520,224,o),
(696,324,o),
(770,470,c),
(749,482,l)
);
},
{
closed = 1;
nodes = (
(748,480,l),
(571,480,l),
(540,451,l),
(748,451,l)
);
},
{
closed = 1;
nodes = (
(573,173,l),
(626,136,o),
(683,87,o),
(711,53,c),
(734,71,l),
(705,104,o),
(648,153,o),
(596,190,c)
);
},
{
closed = 1;
nodes = (
(890,265,l),
(882,265,l),
(882,257,l),
(800,95,o),
(579,-8,o),
(384,-45,c),
(391,-52,o),
(399,-64,o),
(403,-72,c),
(601,-29,o),
(826,74,o),
(916,255,c),
(896,267,l)
);
},
{
closed = 1;
nodes = (
(892,265,l),
(690,265,l),
(659,236,l),
(892,236,l)
);
},
{
closed = 1;
nodes = (
(601,553,l),
(557,472,o),
(462,394,o),
(353,351,c),
(360,345,o),
(369,336,o),
(374,330,c),
(483,374,o),
(582,457,o),
(630,544,c)
);
},
{
closed = 1;
nodes = (
(739,345,l),
(680,252,o),
(556,163,o),
(416,115,c),
(423,109,o),
(432,99,o),
(436,93,c),
(578,142,o),
(707,236,o),
(769,336,c)
);
},
{
closed = 1;
nodes = (
(296,720,l),
(98,720,l),
(98,691,l),
(267,691,l),
(267,246,l),
(98,246,l),
(98,217,l),
(296,217,l)
);
},
{
closed = 1;
nodes = (
(113,720,l),
(84,720,l),
(84,130,l),
(113,130,l)
);
}
);
vertWidth = 1000;
width = 1000;
},
{
layerId = "94DDBC6A-1627-4027-9125-871D02041BCD";
shapes = (
{
closed = 1;
nodes = (
(717,730,l),
(636,652,o),
(476,595,o),
(303,582,c),
(324,554,o),
(355,494,o),
(366,464,c),
(542,488,o),
(722,574,o),
(834,688,c)
);
},
{
closed = 1;
nodes = (
(518,854,l),
(475,810,o),
(404,768,o),
(336,745,c),
(362,722,o),
(404,674,o),
(423,649,c),
(492,682,o),
(577,740,o),
(632,800,c)
);
},
{
closed = 1;
nodes = (
(462,684,l),
(554,583,o),
(734,503,o),
(930,476,c),
(942,511,o),
(968,567,o),
(991,598,c),
(806,612,o),
(643,661,o),
(568,725,c)
);
},
{
closed = 1;
nodes = (
(662,794,l),
(731,754,o),
(812,696,o),
(858,654,c),
(971,725,l),
(920,767,o),
(836,822,o),
(767,858,c)
);
},
{
closed = 1;
nodes = (
(449,353,l),
(472,335,o),
(497,308,o),
(509,288,c),
(619,337,l),
(604,356,o),
(577,382,o),
(552,399,c)
);
},
{
closed = 1;
nodes = (
(747,487,l),
(725,487,l),
(725,471,l),
(674,374,o),
(528,297,o),
(346,272,c),
(363,245,o),
(382,201,o),
(389,171,c),
(588,206,o),
(762,311,o),
(840,444,c),
(767,492,l)
);
},
{
closed = 1;
nodes = (
(764,487,l),
(628,487,l),
(560,400,l),
(764,400,l)
);
},
{
closed = 1;
nodes = (
(542,97,l),
(565,75,o),
(590,44,o),
(601,24,c),
(715,70,l),
(702,91,o),
(675,120,o),
(649,141,c)
);
},
{
closed = 1;
nodes = (
(872,234,l),
(847,234,l),
(847,218,l),
(789,103,o),
(623,30,o),
(383,15,c),
(401,-17,o),
(418,-66,o),
(423,-97,c),
(682,-76,o),
(878,27,o),
(969,189,c),
(894,239,l)
);
},
{
closed = 1;
nodes = (
(892,234,l),
(730,234,l),
(658,140,l),
(892,140,l)
);
},
{
closed = 1;
nodes = (
(601,552,l),
(556,492,o),
(462,440,o),
(357,416,c),
(377,392,o),
(401,352,o),
(412,325,c),
(531,358,o),
(643,431,o),
(702,514,c)
);
},
{
closed = 1;
nodes = (
(734,319,l),
(682,246,o),
(564,182,o),
(428,154,c),
(450,127,o),
(475,86,o),
(485,60,c),
(632,97,o),
(769,181,o),
(840,278,c)
);
},
{
closed = 1;
nodes = (
(324,763,l),
(134,763,l),
(134,634,l),
(204,634,l),
(204,307,l),
(134,307,l),
(134,179,l),
(324,179,l)
);
},
{
closed = 1;
nodes = (
(169,763,l),
(53,763,l),
(53,92,l),
(169,92,l)
);
}
);
vertWidth = 1000;
width = 1000;
}
);
note = cid12739;
unicode = 22002;
}
{
glyphname = uni560C;
layers = (
{
layerId = m01;
shapes = (
{
closed = 1;
nodes = (
(404,458,l),
(404,618,l),
(881,618,l),
(881,458,l)
);
},
{
closed = 1;
nodes = (
(911,647,l),
(375,647,l),
(375,428,l),
(911,428,l)
);
},
{
closed = 1;
nodes = (
(901,345,l),
(393,345,l),
(393,316,l),
(901,316,l)
);
},
{
closed = 1;
nodes = (
(950,221,l),
(332,221,l),
(332,191,l),
(950,191,l)
);
},
{
closed = 1;
nodes = (
(472,142,l),
(434,84,o),
(375,26,o),
(318,-16,c),
(326,-20,o),
(337,-31,o),
(342,-36,c),
(397,7,o),
(459,73,o),
(500,133,c)
);
},
{
closed = 1;
nodes = (
(938,778,l),
(346,778,l),
(346,749,l),
(938,749,l)
);
},
{
closed = 1;
nodes = (
(574,770,l),
(545,770,l),
(545,633,l),
(574,633,l)
);
},
{
closed = 1;
nodes = (
(739,770,l),
(710,770,l),
(710,633,l),
(739,633,l)
);
},
{
closed = 1;
nodes = (
(574,635,l),
(545,635,l),
(545,441,l),
(574,441,l)
);
},
{
closed = 1;
nodes = (
(739,635,l),
(710,635,l),
(710,441,l),
(739,441,l)
);
},
{
closed = 1;
nodes = (
(659,211,l),
(629,211,l),
(629,-28,ls),
(629,-38,o),
(627,-42,o),
(614,-42,c),
(600,-44,o),
(562,-44,o),
(505,-42,c),
(510,-52,o),
(516,-63,o),
(517,-71,c),
(578,-71,o),
(616,-71,o),
(635,-65,cs),
(654,-60,o),
(659,-50,o),
(659,-27,cs)
);
},
{
closed = 1;
nodes = (
(763,124,l),
(822,77,o),
(891,9,o),
(924,-36,c),
(948,-15,l),
(915,29,o),
(845,94,o),
(783,141,c)
);
},
{
closed = 1;
nodes = (
(314,720,l),
(98,720,l),
(98,691,l),
(284,691,l),
(284,246,l),
(98,246,l),
(98,217,l),
(314,217,l)
);
},
{
closed = 1;
nodes = (
(113,720,l),
(84,720,l),
(84,130,l),
(113,130,l)
);
}
);
vertWidth = 1000;
width = 1000;
},
{
layerId = "94DDBC6A-1627-4027-9125-871D02041BCD";
shapes = (
{
closed = 1;
nodes = (
(499,504,l),
(499,571,l),
(815,571,l),
(815,504,l)
);
},
{
closed = 1;
nodes = (
(946,666,l),
(377,666,l),
(377,409,l),
(946,409,l)
);
},
{
closed = 1;
nodes = (
(905,386,l),
(416,386,l),
(416,283,l),
(905,283,l)
);
},
{
closed = 1;
nodes = (
(975,256,l),
(344,256,l),
(344,148,l),
(975,148,l)
);
},
{
closed = 1;
nodes = (
(424,141,l),
(397,90,o),
(349,37,o),
(297,3,c),
(326,-17,o),
(375,-61,o),
(397,-84,c),
(453,-40,o),
(514,34,o),
(550,104,c)
);
},
{
closed = 1;
nodes = (
(960,822,l),
(352,822,l),
(352,709,l),
(960,709,l)
);
},
{
closed = 1;
nodes = (
(636,755,l),
(510,755,l),
(510,611,l),
(636,611,l)
);
},
{
closed = 1;
nodes = (
(801,755,l),
(674,755,l),
(674,611,l),
(801,611,l)
);
},
{
closed = 1;
nodes = (
(635,634,l),
(536,634,l),
(536,440,l),
(635,440,l)
);
},
{
closed = 1;
nodes = (
(775,634,l),
(675,634,l),
(675,440,l),
(775,440,l)
);
},
{
closed = 1;
nodes = (
(725,210,l),
(590,210,l),
(590,34,ls),
(590,24,o),
(586,21,o),
(574,21,cs),
(562,21,o),
(520,21,o),
(488,22,c),
(505,-10,o),
(525,-59,o),
(531,-94,c),
(590,-94,o),
(636,-93,o),
(675,-75,cs),
(715,-57,o),
(725,-27,o),
(725,30,cs)
);
},
{
closed = 1;
nodes = (
(737,82,l),
(785,34,o),
(842,-34,o),
(868,-78,c),
(977,-7,l),
(949,35,o),
(893,95,o),
(842,140,c)
);
},
{
closed = 1;
nodes = (
(332,757,l),
(135,757,l),
(135,628,l),
(210,628,l),
(210,301,l),
(135,301,l),
(135,172,l),
(332,172,l)
);
},
{
closed = 1;
nodes = (
(171,757,l),
(53,757,l),
(53,86,l),
(171,86,l)
);
}
);
vertWidth = 1000;
width = 1000;
}
);
note = cid12788;
unicode = 22028;
}
{
glyphname = uni5613;
layers = (
{
layerId = m01;
shapes = (
{
closed = 1;
nodes = (
(429,172,l),
(488,188,o),
(557,207,o),
(627,227,c),
(623,255,l),
(545,233,o),
(473,213,o),
(419,200,c)
);
},
{
closed = 1;
nodes = (
(921,785,l),
(353,785,l),
(353,-70,l),
(382,-70,l),
(382,756,l),
(892,756,l),
(892,-63,l),
(921,-63,l)
);
},
{
closed = 1;
nodes = (
(863,597,l),
(417,597,l),
(417,568,l),
(863,568,l)
);
},
{
closed = 1;
nodes = (
(907,26,l),
(368,26,l),
(368,-4,l),
(907,-4,l)
);
},
{
closed = 1;
nodes = (
(728,695,l),
(763,673,o),
(802,641,o),
(822,618,c),
(841,638,l),
(821,661,o),
(780,691,o),
(747,712,c)
);
},
{
closed = 1;
nodes = (
(475,501,l),
(445,501,l),
(445,276,l),
(475,276,l)
);
},
{
closed = 1;
nodes = (
(800,498,l),
(750,303,o),
(643,165,o),
(482,81,c),
(490,76,o),
(502,65,o),
(507,59,c),
(665,150,o),
(775,288,o),
(829,492,c)
);
},
{
closed = 1;
nodes = (
(617,501,l),
(460,501,l),
(460,472,l),
(587,472,l),
(587,342,l),
(460,342,l),
(460,313,l),
(617,313,l)
);
},
{
closed = 1;
nodes = (
(662,719,l),
(672,373,o),
(704,79,o),
(818,76,cs),
(844,75,o),
(862,111,o),
(872,217,c),
(866,219,o),
(855,224,o),
(848,229,c),
(842,151,o),
(830,108,o),
(816,108,cs),
(738,111,o),
(697,376,o),
(691,719,c)
);
},
{
closed = 1;
nodes = (
(285,720,l),
(99,720,l),
(99,691,l),
(256,691,l),
(256,228,l),
(99,228,l),
(99,198,l),
(285,198,l)
);
},
{
closed = 1;
nodes = (
(113,720,l),
(84,720,l),
(84,116,l),
(113,116,l)
);
}
);
vertWidth = 1000;
width = 1000;
},
{
layerId = "94DDBC6A-1627-4027-9125-871D02041BCD";
shapes = (
{
closed = 1;
nodes = (
(489,157,l),
(540,173,o),
(592,191,o),
(646,210,c),
(635,284,l),
(569,268,o),
(508,252,o),
(461,243,c)
);
},
{
closed = 1;
nodes = (
(954,811,l),
(340,811,l),
(340,-88,l),
(461,-88,l),
(461,698,l),
(827,698,l),
(827,-88,l),
(954,-88,l)
);
},
{
closed = 1;
nodes = (
(812,609,l),
(474,609,l),
(474,527,l),
(812,527,l)
);
},
{
closed = 1;
nodes = (
(892,71,l),
(405,71,l),
(405,-42,l),
(892,-42,l)
);
},
{
closed = 1;
nodes = (
(717,659,l),
(736,641,o),
(757,614,o),
(767,596,c),
(823,636,l),
(812,653,o),
(790,678,o),
(770,695,c)
);
},
{
closed = 1;
nodes = (
(537,500,l),
(478,500,l),
(478,279,l),
(537,279,l)
);
},
{
closed = 1;
nodes = (
(745,507,l),
(722,338,o),
(659,213,o),
(538,139,c),
(556,126,o),
(586,95,o),
(597,80,c),
(724,167,o),
(796,304,o),
(826,498,c)
);
},
{
closed = 1;
nodes = (
(627,500,l),
(508,500,l),
(508,432,l),
(567,432,l),
(567,362,l),
(508,362,l),
(508,294,l),
(627,294,l)
);
},
{
closed = 1;
nodes = (
(631,686,l),
(637,351,o),
(666,85,o),
(771,84,cs),
(798,83,o),
(830,109,o),
(849,207,c),
(834,216,o),
(805,240,o),
(791,258,c),
(787,211,o),
(780,185,o),
(772,185,cs),
(739,186,o),
(717,409,o),
(717,686,c)
);
},
{
closed = 1;
nodes = (
(312,757,l),
(133,757,l),
(133,628,l),
(203,628,l),
(203,301,l),
(133,301,l),
(133,173,l),
(312,173,l)
);
},
{
closed = 1;
nodes = (
(162,757,l),
(55,757,l),
(55,86,l),
(162,86,l)
);
}
);
vertWidth = 1000;
width = 1000;
}
);
note = cid12804;
unicode = 22035;
}
{
glyphname = uni561C;
layers = (
{
layerId = m01;
shapes = (
{
closed = 1;
nodes = (
(291,720,l),
(98,720,l),
(98,691,l),
(262,691,l),
(262,228,l),
(98,228,l),
(98,198,l),
(291,198,l)
);
},
{
closed = 1;
nodes = (
(113,720,l),
(84,720,l),
(84,107,l),
(113,107,l)
);
},
{
closed = 1;
nodes = (
(931,742,l),
(353,742,l),
(353,713,l),
(931,713,l)
);
},
{
closed = 1;
nodes = (
(587,352,l),
(543,271,o),
(453,192,o),
(355,147,c),
(364,141,o),
(377,131,o),
(381,125,c),
(481,174,o),
(572,259,o),
(618,345,c)
);
},
{
closed = 1;
nodes = (
(458,666,l),
(436,589,o),
(386,508,o),
(329,455,c),
(336,451,o),
(349,442,o),
(354,437,c),
(411,491,o),
(462,576,o),
(487,659,c)
);
},
{
closed = 1;
nodes = (
(803,286,l),
(564,286,l),
(549,257,l),
(803,257,l)
);
},
{
closed = 1;
nodes = (
(802,286,l),
(794,286,l),
(794,279,l),
(729,128,o),
(563,12,o),
(331,-44,c),
(338,-50,o),
(347,-62,o),
(351,-70,c),
(588,-10,o),
(759,115,o),
(828,277,c),
(809,288,l)
);
},
{
closed = 1;
nodes = (
(644,830,l),
(615,830,l),
(615,369,l),
(644,369,l)
);
},
{
closed = 1;
nodes = (
(439,592,l),
(470,568,o),
(505,530,o),
(525,500,c),
(548,520,l),
(527,549,o),
(491,586,o),
(460,609,c)
);
},
{
closed = 1;
nodes = (
(800,671,l),
(787,607,o),
(757,541,o),
(721,498,c),
(728,494,o),
(741,485,o),
(746,480,c),
(782,525,o),
(814,597,o),
(829,666,c)
);
},
{
closed = 1;
nodes = (
(785,595,l),
(837,552,o),
(893,493,o),
(921,452,c),
(945,471,l),
(917,512,o),
(860,570,o),
(807,611,c)
);
},
{
closed = 1;
nodes = (
(619,548,l),
(553,453,o),
(421,352,o),
(312,309,c),
(319,303,o),
(329,292,o),
(333,284,c),
(440,332,o),
(574,437,o),
(641,537,c)
);
},
{
closed = 1;
nodes = (
(513,165,l),
(639,114,o),
(800,6,o),
(874,-57,c),
(895,-34,l),
(819,29,o),
(658,136,o),
(532,185,c)
);
},
{
closed = 1;
nodes = (
(619,537,l),
(683,429,o),
(813,329,o),
(934,284,c),
(939,292,o),
(948,303,o),
(955,309,c),
(833,349,o),
(705,444,o),
(643,548,c)
);
}
);
vertWidth = 1000;
width = 1000;
},
{
layerId = "94DDBC6A-1627-4027-9125-871D02041BCD";
shapes = (
{
closed = 1;
nodes = (
(313,777,l),
(126,777,l),
(126,648,l),
(198,648,l),
(198,287,l),
(126,287,l),
(126,158,l),
(313,158,l)
);
},
{
closed = 1;
nodes = (
(164,777,l),
(52,777,l),
(52,88,l),
(164,88,l)
);
},
{
closed = 1;
nodes = (
(951,787,l),
(347,787,l),
(347,669,l),
(951,669,l)
);
},
{
closed = 1;
nodes = (
(555,364,l),
(516,291,o),
(431,219,o),
(333,176,c),
(358,150,o),
(391,108,o),
(408,79,c),
(518,136,o),
(618,232,o),
(668,328,c)
);
},
{
closed = 1;
nodes = (
(425,675,l),
(405,602,o),
(365,534,o),
(314,495,c),
(336,479,o),
(375,443,o),
(391,424,c),
(449,472,o),
(500,560,o),
(527,652,c)
);
},
{
closed = 1;
nodes = (
(796,313,l),
(601,313,l),
(552,218,l),
(796,218,l)
);
},
{
closed = 1;
nodes = (
(775,313,l),
(750,313,l),
(750,297,l),
(683,147,o),
(524,38,o),
(306,-5,c),
(332,-27,o),
(374,-76,o),
(389,-104,c),
(616,-51,o),
(791,83,o),
(875,271,c),
(797,317,l)
);
},
{
closed = 1;
nodes = (
(706,856,l),
(578,856,l),
(578,359,l),
(706,359,l)
);
},
{
closed = 1;
nodes = (
(418,539,l),
(449,515,o),
(486,480,o),
(504,458,c),
(559,542,l),
(540,563,o),
(502,592,o),
(469,613,c)
);
},
{
closed = 1;
nodes = (
(783,674,l),
(773,625,o),
(754,580,o),
(722,548,c),
(743,527,o),
(777,480,o),
(790,459,c),
(838,504,o),
(871,577,o),
(889,650,c)
);
},
{
closed = 1;
nodes = (
(775,574,l),
(823,532,o),
(873,475,o),
(897,436,c),
(966,512,l),
(939,549,o),
(888,601,o),
(842,638,c)
);
},
{
closed = 1;
nodes = (
(588,559,l),
(536,472,o),
(425,392,o),
(300,350,c),
(324,328,o),
(357,286,o),
(374,258,c),
(500,311,o),
(615,416,o),
(673,530,c)
);
},
{
closed = 1;
nodes = (
(500,104,l),
(628,51,o),
(777,-31,o),
(861,-95,c),
(947,8,l),
(856,70,o),
(705,146,o),
(581,194,c)
);
},
{
closed = 1;
nodes = (
(599,541,l),
(661,422,o),
(782,320,o),
(912,276,c),
(928,306,o),
(962,350,o),
(987,372,c),
(856,405,o),
(740,481,o),
(685,569,c)
);
}
);
vertWidth = 1000;
width = 1000;
}
);
note = cid12818;
unicode = 22044;
}
{
glyphname = uni561E;
layers = (
{
layerId = m01;
shapes = (
{
closed = 1;
nodes = (
(907,623,l),
(615,623,l),
(615,594,l),
(907,594,l)
);
},
{
closed = 1;
nodes = (
(889,623,l),
(889,615,ls),
(881,165,o),
(872,12,o),
(850,-17,c),
(842,-30,o),
(834,-32,o),
(819,-32,cs),
(804,-32,o),
(764,-31,o),
(719,-28,c),
(723,-36,o),
(726,-49,o),
(727,-59,c),
(764,-61,o),
(801,-62,o),
(823,-61,cs),
(848,-61,o),
(864,-55,o),
(876,-35,c),
(904,3,o),
(911,137,o),
(918,601,cs),
(918,607,o),
(918,623,o),
(918,623,c)
);
},
{
closed = 1;
nodes = (
(753,829,l),
(723,829,l),
(723,519,ls),
(723,327,o),
(708,119,o),
(569,-48,c),
(576,-53,o),
(587,-61,o),
(592,-66,c),
(734,108,o),
(753,313,o),
(753,520,cs)
);
},
{
closed = 1;
nodes = (
(643,726,l),
(303,726,l),
(303,697,l),
(643,697,l)
);
},
{
closed = 1;
nodes = (
(643,160,l),
(294,160,l),
(294,131,l),
(643,131,l)
);
},
{
closed = 1;
nodes = (
(482,576,l),
(453,576,l),
(453,457,l),
(482,457,l)
);
},
{
closed = 1;
nodes = (
(482,457,l),
(453,457,l),
(453,275,l),
(453,275,l),
(453,-71,l),
(482,-71,l),
(482,275,l),
(482,275,l)
);
},
{
closed = 1;
nodes = (
(395,829,l),
(366,829,l),
(366,563,l),
(571,563,l),
(571,829,l),
(541,829,l),
(541,592,l),
(395,592,l)
);
},
{
closed = 1;
nodes = (
(356,285,l),
(356,445,l),
(583,445,l),
(583,285,l)
);
},
{
closed = 1;
nodes = (
(613,474,l),
(327,474,l),
(327,256,l),
(613,256,l)
);
},
{
closed = 1;
nodes = (
(265,720,l),
(95,720,l),
(95,691,l),
(235,691,l),
(235,246,l),
(95,246,l),
(95,217,l),
(265,217,l)
);
},
{
closed = 1;
nodes = (
(109,720,l),
(80,720,l),
(80,133,l),
(109,133,l)
);
}
);
vertWidth = 1000;
width = 1000;
},
{
layerId = "94DDBC6A-1627-4027-9125-871D02041BCD";
shapes = (
{
closed = 1;
nodes = (
(892,664,l),
(639,664,l),
(639,537,l),
(892,537,l)
);
},
{
closed = 1;
nodes = (
(838,664,l),
(838,635,ls),
(835,214,o),
(833,76,o),
(819,48,cs),
(811,33,o),
(803,29,o),
(792,29,cs),
(777,29,o),
(757,29,o),
(732,31,c),
(751,-4,o),
(763,-57,o),
(765,-93,c),
(801,-93,o),
(833,-93,o),
(858,-87,cs),
(886,-80,o),
(903,-69,o),
(923,-35,cs),
(948,6,o),
(949,168,o),
(952,609,cs),
(953,624,o),
(953,664,o),
(953,664,c)
);
},
{
closed = 1;
nodes = (
(804,855,l),
(692,855,l),
(692,475,ls),
(692,308,o),
(682,130,o),
(602,-32,c),
(632,-51,o),
(671,-81,o),
(694,-106,c),
(788,73,o),
(804,272,o),
(804,475,cs)
);
},
{
closed = 1;
nodes = (
(669,777,l),
(295,777,l),
(295,672,l),
(669,672,l)
);
},
{
closed = 1;
nodes = (
(650,177,l),
(298,177,l),
(298,58,l),
(650,58,l)
);
},
{
closed = 1;
nodes = (
(547,580,l),
(423,580,l),
(423,458,l),
(547,458,l)
);
},
{
closed = 1;
nodes = (
(526,443,l),
(439,443,l),
(439,257,l),
(421,257,l),
(421,-96,l),
(544,-96,l),
(544,257,l),
(526,257,l)
);
},
{
closed = 1;
nodes = (
(462,855,l),
(350,855,l),
(350,533,l),
(619,533,l),
(619,855,l),
(502,855,l),
(502,634,l),
(462,634,l)
);
},
{
closed = 1;
nodes = (
(416,314,l),
(416,399,l),
(551,399,l),
(551,314,l)
);
},
{
closed = 1;
nodes = (
(653,499,l),
(316,499,l),
(316,214,l),
(653,214,l)
);
},
{
closed = 1;
nodes = (
(290,757,l),
(98,757,l),
(98,639,l),
(185,639,l),
(185,299,l),
(98,299,l),
(98,181,l),
(290,181,l)
);
},
{
closed = 1;
nodes = (
(153,757,l),
(50,757,l),
(50,100,l),
(153,100,l)
);
}
);
vertWidth = 1000;
width = 1000;
}
);
note = cid12823;
unicode = 22046;
}
{
glyphname = uni5627;
layers = (
{
layerId = m01;
shapes = (
{
closed = 1;
nodes = (
(868,7,l),
(416,7,l),
(416,-22,l),
(868,-22,l)
);
},
{
closed = 1;
nodes = (
(431,215,l),
(402,215,l),
(402,-72,l),
(431,-72,l)
);
},
{
closed = 1;
nodes = (
(884,215,l),
(854,215,l),
(854,-67,l),
(884,-67,l)
);
},
{
closed = 1;
nodes = (
(655,249,l),
(625,249,l),
(625,-12,l),
(655,-12,l)
);
},
{
closed = 1;
nodes = (
(655,829,l),
(625,829,l),
(625,715,l),
(655,715,l)
);
},
{
closed = 1;
nodes = (
(548,562,l),
(518,562,l),
(518,332,ls),
(518,286,o),
(536,278,o),
(598,278,cs),
(611,278,o),
(744,278,o),
(757,278,cs),
(812,278,o),
(823,301,o),
(827,401,c),
(818,403,o),
(806,408,o),
(798,414,c),
(796,319,o),
(790,307,o),
(755,307,cs),
(728,307,o),
(616,307,o),
(597,307,cs),
(555,307,o),
(548,312,o),
(548,332,cs)
);
},
{
closed = 1;
nodes = (
(551,640,l),
(600,610,o),
(658,566,o),
(688,535,c),
(707,556,l),
(678,586,o),
(619,629,o),
(570,658,c)
);
},
{
closed = 1;
nodes = (
(799,529,l),
(853,477,o),
(906,405,o),
(928,354,c),
(953,373,l),
(933,423,o),
(878,494,o),
(823,545,c)
);
},
{
closed = 1;
nodes = (
(930,734,l),
(368,734,l),
(368,586,l),
(398,586,l),
(398,705,l),
(901,705,l),
(901,586,l),
(930,586,l)
);
},
{
closed = 1;
nodes = (
(433,550,l),
(417,497,o),
(387,431,o),
(347,395,c),
(372,376,l),
(414,417,o),
(443,484,o),
(461,539,c)
);
},
{
closed = 1;
nodes = (
(790,628,l),
(694,468,o),
(522,346,o),
(333,273,c),
(341,267,o),
(354,256,o),
(358,250,c),
(542,328,o),
(716,450,o),
(817,619,c)
);
},
{
closed = 1;
nodes = (
(314,720,l),
(98,720,l),
(98,691,l),
(284,691,l),
(284,246,l),
(98,246,l),
(98,217,l),
(314,217,l)
);
},
{
closed = 1;
nodes = (
(113,720,l),
(84,720,l),
(84,130,l),
(113,130,l)
);
}
);
vertWidth = 1000;
width = 1000;
},
{
layerId = "94DDBC6A-1627-4027-9125-871D02041BCD";
shapes = (
{
closed = 1;
nodes = (
(868,60,l),
(449,60,l),
(449,-64,l),
(868,-64,l)
);
},
{
closed = 1;
nodes = (
(512,197,l),
(381,197,l),
(381,-94,l),
(512,-94,l)
);
},
{
closed = 1;
nodes = (
(927,197,l),
(794,197,l),
(794,-94,l),
(927,-94,l)
);
},
{
closed = 1;
nodes = (
(720,226,l),
(587,226,l),
(587,-33,l),
(720,-33,l)
);
},
{
closed = 1;
nodes = (
(724,854,l),
(583,854,l),
(583,723,l),
(724,723,l)
);
},
{
closed = 1;
nodes = (
(614,570,l),
(503,570,l),
(503,379,ls),
(503,278,o),
(526,246,o),
(631,246,cs),
(651,246,o),
(714,246,o),
(735,246,cs),
(813,246,o),
(844,276,o),
(856,393,c),
(825,400,o),
(778,417,o),
(756,434,c),
(752,360,o),
(747,350,o),
(723,350,cs),
(708,350,o),
(659,350,o),
(647,350,cs),
(619,350,o),
(614,353,o),
(614,381,cs)
);
},
{
closed = 1;
nodes = (
(542,618,l),
(577,590,o),
(622,549,o),
(642,521,c),
(726,596,l),
(703,623,o),
(657,661,o),
(622,686,c)
);
},
{
closed = 1;
nodes = (
(789,511,l),
(824,457,o),
(863,385,o),
(877,339,c),
(979,391,l),
(963,438,o),
(922,506,o),
(885,557,c)
);
},
{
closed = 1;
nodes = (
(955,778,l),
(361,778,l),
(361,597,l),
(485,597,l),
(485,667,l),
(825,667,l),
(825,597,l),
(955,597,l)
);
},
{
closed = 1;
nodes = (
(397,570,l),
(385,518,o),
(359,462,o),
(324,427,c),
(422,373,l),
(460,414,o),
(482,476,o),
(497,534,c)
);
},
{
closed = 1;
nodes = (
(759,631,l),
(679,483,o),
(518,374,o),
(337,315,c),
(358,292,o),
(392,242,o),
(405,218,c),
(594,293,o),
(768,420,o),
(866,595,c)
);
},
{
closed = 1;
nodes = (
(331,757,l),
(136,757,l),
(136,628,l),
(211,628,l),
(211,301,l),
(136,301,l),
(136,172,l),
(331,172,l)
);
},
{
closed = 1;
nodes = (
(168,757,l),
(52,757,l),
(52,86,l),
(168,86,l)
);
}
);
vertWidth = 1000;
width = 1000;
}
);
note = cid12832;
unicode = 22055;
}
{
glyphname = uni5630;
layers = (
{
layerId = m01;
shapes = (
{
closed = 1;
nodes = (
(285,720,l),
(99,720,l),
(99,691,l),
(256,691,l),
(256,228,l),
(99,228,l),
(99,198,l),
(285,198,l)
);
},
{
closed = 1;
nodes = (
(113,720,l),
(84,720,l),
(84,116,l),
(113,116,l)
);
},
{
closed = 1;
nodes = (
(942,320,l),
(307,320,l),
(307,290,l),
(942,290,l)
);
},
{
closed = 1;
nodes = (
(415,210,l),
(471,168,o),
(538,107,o),
(573,70,c),
(595,89,l),
(561,127,o),
(492,185,o),
(436,227,c)
);
},
{
closed = 1;
nodes = (
(738,403,l),
(780,381,o),
(831,349,o),
(858,326,c),
(872,347,l),
(847,370,o),
(796,401,o),
(754,421,c)
);
},
{
closed = 1;
nodes = (
(852,255,l),
(789,124,o),
(656,15,o),
(486,-51,c),
(493,-57,o),
(501,-65,o),
(506,-70,c),
(676,-2,o),
(813,107,o),
(882,244,c)
);
},
{
closed = 1;
nodes = (
(661,670,l),
(706,638,o),
(757,591,o),
(780,557,c),
(798,577,l),
(775,610,o),
(724,656,o),
(678,687,c)
);
},
{
closed = 1;
nodes = (
(847,543,l),
(879,498,o),
(911,437,o),
(922,398,c),
(948,414,l),
(937,452,o),
(905,511,o),
(871,556,c)
);
},
{
closed = 1;
nodes = (
(674,427,l),
(743,432,o),
(823,438,o),
(911,445,c),
(912,470,l),
(820,465,o),
(735,461,o),
(669,458,c)
);
},
{
closed = 1;
nodes = (
(782,817,l),
(763,769,o),
(724,696,o),
(697,653,c),
(719,642,l),
(747,683,o),
(783,750,o),
(810,804,c)
);
},
{
closed = 1;
nodes = (
(864,724,l),
(824,642,o),
(754,522,o),
(700,452,c),
(722,439,l),
(776,510,o),
(844,623,o),
(891,711,c)
);
},
{
closed = 1;
nodes = (
(325,670,l),
(370,637,o),
(421,590,o),
(444,556,c),
(462,576,l),
(439,609,o),
(388,655,o),
(342,686,c)
);
},
{
closed = 1;
nodes = (
(498,543,l),
(528,498,o),
(558,438,o),
(569,399,c),
(595,414,l),
(584,452,o),
(555,511,o),
(524,555,c)
);
},
{
closed = 1;
nodes = (
(314,403,l),
(387,412,o),
(476,424,o),
(570,435,c),
(570,460,l),
(472,449,o),
(378,439,o),
(308,433,c)
);
},
{
closed = 1;
nodes = (
(444,817,l),
(425,769,o),
(386,696,o),
(359,653,c),
(380,642,l),
(409,683,o),
(445,750,o),
(472,804,c)
);
},
{
closed = 1;
nodes = (
(525,724,l),
(484,634,o),
(409,503,o),
(353,426,c),
(375,415,l),
(432,491,o),
(504,617,o),
(553,711,c)
);
},
{
closed = 1;
nodes = (
(594,824,l),
(611,330,o),
(670,-58,o),
(891,-70,cs),
(928,-72,o),
(949,-34,o),
(963,62,c),
(955,64,o),
(944,70,o),
(937,75,c),
(927,0,o),
(913,-40,o),
(890,-38,cs),
(703,-25,o),
(637,333,o),
(623,824,c)
);
},
{
closed = 1;
nodes = (
(422,309,l),
(409,160,o),
(371,21,o),
(245,-48,c),
(252,-52,o),
(263,-62,o),
(267,-67,c),
(396,7,o),
(437,147,o),
(452,309,c)
);
}
);
vertWidth = 1000;
width = 1000;
},
{
layerId = "94DDBC6A-1627-4027-9125-871D02041BCD";
shapes = (
{
closed = 1;
nodes = (
(306,757,l),
(123,757,l),
(123,639,l),
(193,639,l),
(193,299,l),
(123,299,l),
(123,181,l),
(306,181,l)
);
},
{
closed = 1;
nodes = (
(162,757,l),
(50,757,l),
(50,100,l),
(162,100,l)
);
},
{
closed = 1;
nodes = (
(957,339,l),
(321,339,l),
(321,230,l),
(957,230,l)
);
},
{
closed = 1;
nodes = (
(413,143,l),
(455,111,o),
(509,63,o),
(532,30,c),
(619,116,l),
(592,148,o),
(537,192,o),
(494,221,c)
);
},
{
closed = 1;
nodes = (
(750,370,l),
(778,348,o),
(813,315,o),
(828,293,c),
(903,361,l),
(886,383,o),
(850,413,o),
(821,432,c)
);
},
{
closed = 1;
nodes = (
(803,247,l),
(745,131,o),
(633,44,o),
(487,-1,c),
(510,-24,o),
(545,-69,o),
(560,-95,c),
(717,-39,o),
(847,60,o),
(922,202,c)
);
},
{
closed = 1;
nodes = (
(666,650,l),
(707,618,o),
(758,572,o),
(782,540,c),
(833,631,l),
(809,660,o),
(756,703,o),
(715,731,c)
);
},
{
closed = 1;
nodes = (
(852,534,l),
(870,487,o),
(887,424,o),
(890,386,c),
(975,420,l),
(970,457,o),
(951,517,o),
(931,563,c)
);
},
{
closed = 1;
nodes = (
(711,390,l),
(774,399,o),
(844,408,o),
(916,419,c),
(913,510,l),
(828,502,o),
(748,495,o),
(688,491,c)
);
},
{
closed = 1;
nodes = (
(769,853,l),
(756,802,o),
(729,731,o),
(705,684,c),
(786,653,l),
(814,695,o),
(848,760,o),
(882,819,c)
);
},
{
closed = 1;
nodes = (
(848,736,l),
(815,654,o),
(755,543,o),
(706,473,c),
(784,436,l),
(836,502,o),
(899,606,o),
(952,695,c)
);
},
{
closed = 1;
nodes = (
(289,652,l),
(329,620,o),
(381,574,o),
(404,542,c),
(455,638,l),
(431,667,o),
(378,709,o),
(337,737,c)
);
},
{
closed = 1;
nodes = (
(477,530,l),
(497,478,o),
(516,411,o),
(520,369,c),
(604,404,l),
(599,444,o),
(578,510,o),
(556,559,c)
);
},
{
closed = 1;
nodes = (
(322,369,l),
(388,378,o),
(463,389,o),
(539,401,c),
(536,492,l),
(449,484,o),
(366,476,o),
(304,472,c)
);
},
{
closed = 1;
nodes = (
(393,850,l),
(382,799,o),
(359,728,o),
(339,681,c),
(419,651,l),
(443,693,o),
(474,758,o),
(505,817,c)
);
},
{
closed = 1;
nodes = (
(471,730,l),
(441,647,o),
(387,534,o),
(341,463,c),
(419,428,l),
(467,495,o),
(525,601,o),
(573,691,c)
);
},
{
closed = 1;
nodes = (
(556,847,l),
(573,292,o),
(635,-75,o),
(863,-94,cs),
(907,-98,o),
(955,-64,o),
(983,71,c),
(962,84,o),
(914,119,o),
(894,147,c),
(887,78,o),
(877,43,o),
(858,45,cs),
(743,60,o),
(683,395,o),
(675,847,c)
);
},
{
closed = 1;
nodes = (
(393,286,l),
(386,178,o),
(363,70,o),
(248,2,c),
(277,-19,o),
(312,-63,o),
(328,-94,c),
(473,-3,o),
(509,137,o),
(520,286,c)
);
}
);
vertWidth = 1000;
width = 1000;
}
);
note = cid12846;
unicode = 22064;
}
{
glyphname = uni5665;
layers = (
{
layerId = m01;
shapes = (
{
closed = 1;
nodes = (
(938,421,l),
(373,421,l),
(373,391,l),
(938,391,l)
);
},
{
closed = 1;
nodes = (
(947,221,l),
(373,221,l),
(373,191,l),
(947,191,l)
);
},
{
closed = 1;
nodes = (
(868,322,l),
(443,322,l),
(443,292,l),
(868,292,l)
);
},
{
closed = 1;
nodes = (
(561,826,l),
(531,826,l),
(531,495,l),
(561,495,l)
);
},
{
closed = 1;
nodes = (
(732,826,l),
(703,826,l),
(703,495,l),
(732,495,l)
);
},
{
closed = 1;
nodes = (
(536,207,l),
(507,207,l),
(507,-36,l),
(536,-36,l)
);
},
{
closed = 1;
nodes = (
(404,512,l),
(404,602,l),
(871,602,l),
(871,512,l)
);
},
{
closed = 1;
nodes = (
(404,631,l),
(404,719,l),
(871,719,l),
(871,631,l)
);
},
{
closed = 1;
nodes = (
(901,749,l),
(375,749,l),
(375,482,l),
(901,482,l)
);
},
{
closed = 1;
nodes = (
(899,166,l),
(859,138,o),
(788,99,o),
(738,77,c),
(757,57,l),
(808,81,o),
(873,111,o),
(920,148,c)
);
},
{
closed = 1;
nodes = (
(647,206,l),
(696,76,o),
(805,-26,o),
(940,-70,c),
(945,-63,o),
(953,-52,o),
(961,-46,c),
(825,-8,o),
(719,89,o),
(672,214,c)
);
},
{
closed = 1;
nodes = (
(414,-67,l),
(504,-51,o),
(627,-27,o),
(747,-4,c),
(746,24,l),
(618,-1,o),
(489,-24,o),
(405,-38,c)
);
},
{
closed = 1;
nodes = (
(386,421,l),
(357,421,l),
(357,279,ls),
(357,180,o),
(341,47,o),
(250,-52,c),
(257,-56,o),
(269,-64,o),
(274,-70,c),
(367,33,o),
(386,175,o),
(386,279,cs)
);
},
{
closed = 1;
nodes = (
(314,720,l),
(98,720,l),
(98,691,l),
(284,691,l),
(284,246,l),
(98,246,l),
(98,217,l),
(314,217,l)
);
},
{
closed = 1;
nodes = (
(113,720,l),
(84,720,l),
(84,130,l),
(113,130,l)
);
}
);
vertWidth = 1000;
width = 1000;
},
{
layerId = "94DDBC6A-1627-4027-9125-871D02041BCD";
shapes = (
{
closed = 1;
nodes = (
(957,460,l),
(385,460,l),
(385,357,l),
(957,357,l)
);
},
{
closed = 1;
nodes = (
(970,232,l),
(389,232,l),
(389,132,l),
(970,132,l)
);
},
{
closed = 1;
nodes = (
(904,336,l),
(485,336,l),
(485,254,l),
(904,254,l)
);
},
{
closed = 1;
nodes = (
(631,856,l),
(521,856,l),
(521,518,l),
(631,518,l)
);
},
{
closed = 1;
nodes = (
(781,856,l),
(671,856,l),
(671,523,l),
(781,523,l)
);
},
{
closed = 1;
nodes = (
(607,168,l),
(488,168,l),
(488,-8,l),
(607,-8,l)
);
},
{
closed = 1;
nodes = (
(477,565,l),
(477,600,l),
(815,600,l),
(815,565,l)
);
},
{
closed = 1;
nodes = (
(477,677,l),
(477,712,l),
(815,712,l),
(815,677,l)
);
},
{
closed = 1;
nodes = (
(932,794,l),
(365,794,l),
(365,482,l),
(932,482,l)
);
},
{
closed = 1;
nodes = (
(898,162,l),
(871,139,o),
(823,104,o),
(791,87,c),
(849,25,l),
(883,39,o),
(929,62,o),
(973,88,c)
);
},
{
closed = 1;
nodes = (
(642,166,l),
(687,31,o),
(763,-56,o),
(909,-94,c),
(925,-62,o),
(958,-14,o),
(984,10,c),
(859,33,o),
(784,94,o),
(750,184,c)
);
},
{
closed = 1;
nodes = (
(453,-92,l),
(533,-79,o),
(631,-64,o),
(725,-48,c),
(718,57,l),
(611,43,o),
(503,28,o),
(427,20,c)
);
},
{
closed = 1;
nodes = (
(471,460,l),
(345,460,l),
(345,314,ls),
(345,215,o),
(338,76,o),
(262,-22,c),
(292,-36,o),
(349,-74,o),
(371,-95,c),
(455,16,o),
(471,190,o),
(471,312,cs)
);
},
{
closed = 1;
nodes = (
(317,757,l),
(124,757,l),
(124,628,l),
(203,628,l),
(203,301,l),
(124,301,l),
(124,172,l),
(317,172,l)
);
},
{
closed = 1;
nodes = (
(166,757,l),
(53,757,l),
(53,86,l),
(166,86,l)
);
}
);
vertWidth = 1000;
width = 1000;
}
);
note = cid12941;
unicode = 22117;
}
{
glyphname = uni5679;
layers = (
{
layerId = m01;
shapes = (
{
closed = 1;
nodes = (
(657,828,l),
(627,828,l),
(627,656,l),
(657,656,l)
);
},
{
closed = 1;
nodes = (
(476,416,l),
(476,531,l),
(818,531,l),
(818,416,l)
);
},
{
closed = 1;
nodes = (
(847,561,l),
(446,561,l),
(446,386,l),
(847,386,l)
);
},
{
closed = 1;
nodes = (
(943,673,l),
(356,673,l),
(356,518,l),
(385,518,l),
(385,644,l),
(914,644,l),
(914,518,l),
(943,518,l)
);
},
{
closed = 1;
nodes = (
(420,804,l),
(448,768,o),
(476,720,o),
(486,687,c),
(513,699,l),
(501,731,o),
(473,779,o),
(443,815,c)
);
},
{
closed = 1;
nodes = (
(836,817,l),
(820,783,o),
(788,728,o),
(765,696,c),
(787,683,l),
(812,715,o),
(841,762,o),
(866,803,c)
);
},
{
closed = 1;
nodes = (
(882,158,l),
(401,158,l),
(401,129,l),
(882,129,l)
);
},
{
closed = 1;
nodes = (
(882,5,l),
(401,5,l),
(401,-24,l),
(882,-24,l)
);
},
{
closed = 1;
nodes = (
(648,295,l),
(619,295,l),
(619,-10,l),
(648,-10,l)
);
},
{
closed = 1;
nodes = (
(894,307,l),
(388,307,l),
(388,-70,l),
(418,-70,l),
(418,278,l),
(865,278,l),
(865,-70,l),
(894,-70,l)
);
},
{
closed = 1;
nodes = (
(314,720,l),
(98,720,l),
(98,691,l),
(284,691,l),
(284,246,l),
(98,246,l),
(98,217,l),
(314,217,l)
);
},
{
closed = 1;
nodes = (
(113,720,l),
(84,720,l),
(84,130,l),
(113,130,l)
);
}
);
vertWidth = 1000;
width = 1000;
},
{
layerId = "94DDBC6A-1627-4027-9125-871D02041BCD";
shapes = (
{
closed = 1;
nodes = (
(715,847,l),
(577,847,l),
(577,685,l),
(715,685,l)
);
},
{
closed = 1;
nodes = (
(550,445,l),
(550,476,l),
(734,476,l),
(734,445,l)
);
},
{
closed = 1;
nodes = (
(865,576,l),
(426,576,l),
(426,346,l),
(865,346,l)
);
},
{
closed = 1;
nodes = (
(962,716,l),
(328,716,l),
(328,523,l),
(450,523,l),
(450,611,l),
(835,611,l),
(835,523,l),
(962,523,l)
);
},
{
closed = 1;
nodes = (
(376,810,l),
(398,773,o),
(422,723,o),
(430,690,c),
(545,734,l),
(534,765,o),
(509,812,o),
(486,847,c)
);
},
{
closed = 1;
nodes = (
(801,847,l),
(791,811,o),
(769,762,o),
(751,727,c),
(852,694,l),
(876,723,o),
(906,766,o),
(939,811,c)
);
},
{
closed = 1;
nodes = (
(886,173,l),
(431,173,l),
(431,77,l),
(886,77,l)
);
},
{
closed = 1;
nodes = (
(888,41,l),
(433,41,l),
(433,-60,l),
(888,-60,l)
);
},
{
closed = 1;
nodes = (
(697,253,l),
(569,253,l),
(569,1,l),
(697,1,l)
);
},
{
closed = 1;
nodes = (
(910,311,l),
(370,311,l),
(370,-95,l),
(499,-95,l),
(499,205,l),
(775,205,l),
(775,-95,l),
(910,-95,l)
);
},
{
closed = 1;
nodes = (
(310,757,l),
(122,757,l),
(122,628,l),
(199,628,l),
(199,301,l),
(122,301,l),
(122,172,l),
(310,172,l)
);
},
{
closed = 1;
nodes = (
(163,757,l),
(53,757,l),
(53,86,l),
(163,86,l)
);
}
);
vertWidth = 1000;
width = 1000;
}
);
note = cid12979;
unicode = 22137;
}
{
glyphname = uni5693;
layers = (
{
layerId = m01;
shapes = (
{
closed = 1;
nodes = (
(299,720,l),
(98,720,l),
(98,691,l),
(270,691,l),
(270,246,l),
(98,246,l),
(98,217,l),
(299,217,l)
);
},
{
closed = 1;
nodes = (
(113,720,l),
(84,720,l),
(84,133,l),
(113,133,l)
);
},
{
closed = 1;
nodes = (
(612,588,l),
(457,588,l),
(457,559,l),
(612,559,l)
);
},
{
closed = 1;
nodes = (
(905,588,l),
(732,588,l),
(732,559,l),
(905,559,l)
);
},
{
closed = 1;
nodes = (
(787,361,l),
(522,361,l),
(522,331,l),
(787,331,l)
);
},
{
closed = 1;
nodes = (
(919,220,l),
(380,220,l),
(380,190,l),
(919,190,l)
);
},
{
closed = 1;
nodes = (
(661,204,l),
(631,204,l),
(631,-31,ls),
(631,-41,o),
(628,-44,o),
(617,-45,cs),
(604,-46,o),
(565,-46,o),
(511,-45,c),
(516,-54,o),
(521,-64,o),
(523,-72,c),
(584,-72,o),
(620,-72,o),
(638,-66,cs),
(656,-62,o),
(661,-52,o),
(661,-30,cs)
);
},
{
closed = 1;
nodes = (
(934,729,l),
(355,729,l),
(355,598,l),
(384,598,l),
(384,700,l),
(905,700,l),
(905,603,l),
(934,603,l)
);
},
{
closed = 1;
nodes = (
(655,831,l),
(625,831,l),
(625,712,l),
(655,712,l)
);
},
{
closed = 1;
nodes = (
(481,655,l),
(454,577,o),
(391,494,o),
(317,439,c),
(325,436,o),
(334,429,o),
(340,422,c),
(414,480,o),
(480,568,o),
(512,651,c)
);
},
{
closed = 1;
nodes = (
(606,588,l),
(600,588,l),
(600,580,l),
(564,450,o),
(463,332,o),
(337,274,c),
(344,268,o),
(351,258,o),
(355,251,c),
(484,313,o),
(590,440,o),
(630,581,c),
(612,590,l)
);
},
{
closed = 1;
nodes = (
(903,588,l),
(897,588,l),
(897,580,l),
(872,524,o),
(816,450,o),
(773,416,c),
(780,411,o),
(790,403,o),
(796,397,c),
(838,435,o),
(898,510,o),
(928,579,c),
(909,590,l)
);
},
{
closed = 1;
nodes = (
(419,521,l),
(464,497,o),
(515,460,o),
(539,429,c),
(557,452,l),
(533,480,o),
(482,518,o),
(436,539,c)
);
},
{
closed = 1;
nodes = (
(774,122,l),
(829,74,o),
(892,6,o),
(922,-38,c),
(943,-19,l),
(914,24,o),
(850,89,o),
(795,136,c)
);
},
{
closed = 1;
nodes = (
(362,458,l),
(405,431,o),
(455,392,o),
(481,365,c),
(498,386,l),
(474,413,o),
(423,450,o),
(381,476,c)
);
},
{
closed = 1;
nodes = (
(653,635,l),
(700,469,o),
(809,326,o),
(936,263,c),
(941,271,o),
(950,281,o),
(956,286,c),
(832,343,o),
(725,481,o),
(678,643,c)
);
},
{
closed = 1;
nodes = (
(483,134,l),
(449,78,o),
(396,22,o),
(343,-19,c),
(351,-23,o),
(364,-33,o),
(369,-38,c),
(420,4,o),
(476,66,o),
(512,127,c)
);
}
);
vertWidth = 1000;
width = 1000;
},
{
layerId = "94DDBC6A-1627-4027-9125-871D02041BCD";
shapes = (
{
closed = 1;
nodes = (
(312,757,l),
(133,757,l),
(133,628,l),
(203,628,l),
(203,301,l),
(133,301,l),
(133,173,l),
(312,173,l)
);
},
{
closed = 1;
nodes = (
(162,757,l),
(55,757,l),
(55,86,l),
(162,86,l)
);
},
{
closed = 1;
nodes = (
(582,612,l),
(446,612,l),
(446,532,l),
(582,532,l)
);
},
{
closed = 1;
nodes = (
(886,604,l),
(759,604,l),
(759,523,l),
(886,523,l)
);
},
{
closed = 1;
nodes = (
(754,384,l),
(524,384,l),
(524,281,l),
(754,281,l)
);
},
{
closed = 1;
nodes = (
(866,244,l),
(402,244,l),
(402,136,l),
(866,136,l)
);
},
{
closed = 1;
nodes = (
(699,200,l),
(572,200,l),
(572,15,ls),
(572,5,o),
(568,3,o),
(559,2,cs),
(549,2,o),
(518,2,o),
(494,4,c),
(508,-24,o),
(524,-65,o),
(529,-96,c),
(582,-96,o),
(623,-95,o),
(657,-80,cs),
(691,-65,o),
(699,-40,o),
(699,11,cs)
);
},
{
closed = 1;
nodes = (
(958,785,l),
(334,785,l),
(334,617,l),
(458,617,l),
(458,676,l),
(828,676,l),
(828,619,l),
(958,619,l)
);
},
{
closed = 1;
nodes = (
(694,856,l),
(556,856,l),
(556,716,l),
(694,716,l)
);
},
{
closed = 1;
nodes = (
(417,656,l),
(397,574,o),
(344,494,o),
(281,450,c),
(305,436,o),
(339,402,o),
(355,378,c),
(429,435,o),
(493,537,o),
(520,642,c)
);
},
{
closed = 1;
nodes = (
(565,612,l),
(546,612,l),
(546,596,l),
(516,458,o),
(421,339,o),
(304,287,c),
(326,266,o),
(355,222,o),
(368,195,c),
(505,266,o),
(608,401,o),
(651,591,c),
(583,616,l)
);
},
{
closed = 1;
nodes = (
(871,604,l),
(855,604,l),
(855,585,l),
(837,532,o),
(790,461,o),
(751,422,c),
(774,408,o),
(812,378,o),
(831,360,c),
(879,410,o),
(933,487,o),
(965,568,c),
(889,609,l)
);
},
{
closed = 1;
nodes = (
(412,480,l),
(440,464,o),
(475,439,o),
(493,421,c),
(533,479,l),
(515,496,o),
(480,518,o),
(451,532,c)
);
},
{
closed = 1;
nodes = (
(730,72,l),
(768,28,o),
(812,-34,o),
(831,-73,c),
(941,-15,l),
(919,24,o),
(872,82,o),
(834,124,c)
);
},
{
closed = 1;
nodes = (
(352,413,l),
(380,395,o),
(414,367,o),
(430,346,c),
(479,400,l),
(462,420,o),
(428,445,o),
(399,462,c)
);
},
{
closed = 1;
nodes = (
(624,638,l),
(673,442,o),
(756,291,o),
(908,212,c),
(925,242,o),
(959,286,o),
(985,308,c),
(849,369,o),
(767,502,o),
(729,660,c)
);
},
{
closed = 1;
nodes = (
(405,114,l),
(385,67,o),
(348,17,o),
(306,-17,c),
(335,-31,o),
(386,-61,o),
(411,-80,c),
(453,-41,o),
(498,23,o),
(524,83,c)
);
}
);
vertWidth = 1000;
width = 1000;
}
);
note = cid13022;
unicode = 22163;
}
{
glyphname = uni56BE;
layers = (
{
layerId = m01;
shapes = (
{
closed = 1;
nodes = (
(299,713,l),
(98,713,l),
(98,683,l),
(270,683,l),
(270,280,l),
(98,280,l),
(98,251,l),
(299,251,l)
);
},
{
closed = 1;
nodes = (
(113,713,l),
(84,713,l),
(84,157,l),
(113,157,l)
);
},
{
closed = 1;
nodes = (
(902,225,l),
(438,225,l),
(438,195,l),
(902,195,l)
);
},
{
closed = 1;
nodes = (
(951,741,l),
(339,741,l),
(339,712,l),
(951,712,l)
);
},
{
closed = 1;
nodes = (
(902,112,l),
(438,112,l),
(438,82,l),
(902,82,l)
);
},
{
closed = 1;
nodes = (
(950,-2,l),
(437,-2,l),
(437,-31,l),
(950,-31,l)
);
},
{
closed = 1;
nodes = (
(929,336,l),
(451,336,l),
(450,336,l),
(422,306,l),
(422,-70,l),
(451,-70,l),
(451,307,l),
(929,307,l)
);
},
{
closed = 1;
nodes = (
(682,433,l),
(670,404,o),
(643,357,o),
(624,328,c),
(648,318,l),
(668,344,o),
(691,384,o),
(711,421,c)
);
},
{
closed = 1;
nodes = (
(674,327,l),
(645,327,l),
(645,-21,l),
(674,-21,l)
);
},
{
closed = 1;
nodes = (
(544,830,l),
(515,830,l),
(515,645,l),
(544,645,l)
);
},
{
closed = 1;
nodes = (
(771,830,l),
(742,830,l),
(742,645,l),
(771,645,l)
);
},
{
closed = 1;
nodes = (
(416,470,l),
(416,591,l),
(573,591,l),
(573,470,l)
);
},
{
closed = 1;
nodes = (
(602,621,l),
(386,621,l),
(386,440,l),
(602,440,l)
);
},
{
closed = 1;
nodes = (
(714,470,l),
(714,591,l),
(873,591,l),
(873,470,l)
);
},
{
closed = 1;
nodes = (
(903,621,l),
(684,621,l),
(684,440,l),
(903,440,l)
);
},
{
closed = 1;
nodes = (
(491,438,l),
(448,344,o),
(378,253,o),
(304,191,c),
(312,187,o),
(325,178,o),
(329,173,c),
(401,236,o),
(474,331,o),
(520,430,c)
);
}
);
vertWidth = 1000;
width = 1000;
},
{
layerId = "94DDBC6A-1627-4027-9125-871D02041BCD";
shapes = (
{
closed = 1;
nodes = (
(325,739,l),
(128,739,l),
(128,610,l),
(203,610,l),
(203,249,l),
(128,249,l),
(128,120,l),
(325,120,l)
);
},
{
closed = 1;
nodes = (
(170,739,l),
(50,739,l),
(50,59,l),
(170,59,l)
);
},
{
closed = 1;
nodes = (
(921,255,l),
(479,255,l),
(479,167,l),
(921,167,l)
);
},
{
closed = 1;
nodes = (
(974,791,l),
(345,791,l),
(345,685,l),
(974,685,l)
);
},
{
closed = 1;
nodes = (
(921,144,l),
(479,144,l),
(479,56,l),
(921,56,l)
);
},
{
closed = 1;
nodes = (
(968,32,l),
(477,32,l),
(477,-68,l),
(968,-68,l)
);
},
{
closed = 1;
nodes = (
(956,375,l),
(541,375,l),
(488,375,l),
(408,294,l),
(408,-96,l),
(541,-96,l),
(541,278,l),
(956,278,l)
);
},
{
closed = 1;
nodes = (
(649,450,l),
(643,418,o),
(629,375,o),
(616,342,c),
(721,315,l),
(741,342,o),
(768,382,o),
(795,425,c)
);
},
{
closed = 1;
nodes = (
(751,328,l),
(618,328,l),
(618,-28,l),
(751,-28,l)
);
},
{
closed = 1;
nodes = (
(597,854,l),
(467,854,l),
(467,656,l),
(597,656,l)
);
},
{
closed = 1;
nodes = (
(843,854,l),
(712,854,l),
(712,656,l),
(843,656,l)
);
},
{
closed = 1;
nodes = (
(471,516,l),
(471,559,l),
(523,559,l),
(523,516,l)
);
},
{
closed = 1;
nodes = (
(637,645,l),
(363,645,l),
(363,431,l),
(637,431,l)
);
},
{
closed = 1;
nodes = (
(775,516,l),
(775,559,l),
(827,559,l),
(827,516,l)
);
},
{
closed = 1;
nodes = (
(943,645,l),
(666,645,l),
(666,431,l),
(943,431,l)
);
},
{
closed = 1;
nodes = (
(472,468,l),
(432,371,o),
(361,274,o),
(287,213,c),
(313,190,o),
(359,137,o),
(378,112,c),
(460,188,o),
(545,311,o),
(597,430,c)
);
}
);
vertWidth = 1000;
width = 1000;
}
);
note = cid13103;
unicode = 22206;
}
{
glyphname = uni56EA;
layers = (
{
layerId = m01;
shapes = (
{
closed = 1;
nodes = (
(886,690,l),
(123,690,l),
(123,-74,l),
(152,-74,l),
(152,661,l),
(857,661,l),
(857,-66,l),
(886,-66,l)
);
},
{
closed = 1;
nodes = (
(475,833,l),
(460,792,o),
(429,728,o),
(407,690,c),
(431,681,l),
(455,719,o),
(482,775,o),
(505,822,c)
);
},
{
closed = 1;
nodes = (
(874,22,l),
(137,22,l),
(137,-8,l),
(874,-8,l)
);
},
{
closed = 1;
nodes = (
(254,509,l),
(428,401,o),
(625,244,o),
(732,129,c),
(755,150,l),
(646,264,o),
(447,420,o),
(274,527,c)
);
},
{
closed = 1;
nodes = (
(515,615,l),
(459,503,o),
(346,389,o),
(222,318,c),
(230,315,o),
(239,307,o),
(244,301,c),
(366,371,o),
(482,489,o),
(544,607,c)
);
},
{
closed = 1;
nodes = (
(737,527,l),
(643,341,o),
(459,175,o),
(259,96,c),
(265,89,o),
(272,78,o),
(276,69,c),
(476,152,o),
(665,325,o),
(765,518,c)
);
}
);
vertWidth = 1000;
width = 1000;
},
{
layerId = "94DDBC6A-1627-4027-9125-871D02041BCD";
shapes = (
{
closed = 1;
nodes = (
(925,728,l),
(80,728,l),
(80,-95,l),
(224,-95,l),
(224,594,l),
(774,594,l),
(774,-87,l),
(925,-87,l)
);
},
{
closed = 1;
nodes = (
(413,857,l),
(402,803,o),
(380,732,o),
(358,681,c),
(496,652,l),
(523,696,o),
(559,761,o),
(591,831,c)
);
},
{
closed = 1;
nodes = (
(851,94,l),
(144,94,l),
(144,-40,l),
(851,-40,l)
);
},
{
closed = 1;
nodes = (
(239,485,l),
(386,374,o),
(551,216,o),
(639,100,c),
(752,179,l),
(658,291,o),
(489,445,o),
(342,552,c)
);
},
{
closed = 1;
nodes = (
(475,591,l),
(427,498,o),
(322,405,o),
(204,351,c),
(234,329,o),
(271,291,o),
(289,264,c),
(417,330,o),
(536,447,o),
(597,568,c)
);
},
{
closed = 1;
nodes = (
(668,525,l),
(591,383,o),
(429,253,o),
(247,187,c),
(274,161,o),
(308,115,o),
(325,83,c),
(517,158,o),
(693,315,o),
(781,492,c)
);
}
);
vertWidth = 1000;
width = 1000;
}
);
note = cid13182;
unicode = 22250;
}
{
glyphname = uni5783;
layers = (
{
layerId = m01;
shapes = (
{
closed = 1;
nodes = (
(356,570,l),
(60,570,l),
(60,540,l),
(356,540,l)
);
},
{
closed = 1;
nodes = (
(224,810,l),
(194,810,l),
(194,170,l),
(224,170,l)
);
},
{
closed = 1;
nodes = (
(56,91,l),
(143,125,o),
(264,171,o),
(378,215,c),
(374,243,l),
(251,197,o),
(127,150,o),
(45,122,c)
);
},
{
closed = 1;
nodes = (
(665,820,l),
(635,820,l),
(635,613,l),
(665,613,l)
);
},
{
closed = 1;
nodes = (
(933,626,l),
(390,626,l),
(390,597,l),
(933,597,l)
);
},
{
closed = 1;
nodes = (
(465,510,l),
(505,365,o),
(537,175,o),
(542,67,c),
(572,76,l),
(568,180,o),
(534,368,o),
(491,516,c)
);
},
{
closed = 1;
nodes = (
(813,528,l),
(789,382,o),
(749,193,o),
(715,71,c),
(742,61,l),
(776,184,o),
(819,374,o),
(845,521,c)
);
},
{
closed = 1;
nodes = (
(953,-9,l),
(343,-9,l),
(343,-38,l),
(953,-38,l)
);
}
);
vertWidth = 1000;
width = 1000;
},
{
layerId = "94DDBC6A-1627-4027-9125-871D02041BCD";
shapes = (
{
closed = 1;
nodes = (
(360,616,l),
(40,616,l),
(40,479,l),
(360,479,l)
);
},
{
closed = 1;
nodes = (
(275,840,l),
(135,840,l),
(135,169,l),
(275,169,l)
);
},
{
closed = 1;
nodes = (
(60,32,l),
(158,66,o),
(278,108,o),
(388,150,c),
(363,285,l),
(238,245,o),
(104,203,o),
(16,181,c)
);
},
{
closed = 1;
nodes = (
(735,845,l),
(589,845,l),
(589,624,l),
(735,624,l)
);
},
{
closed = 1;
nodes = (
(953,684,l),
(381,684,l),
(381,548,l),
(953,548,l)
);
},
{
closed = 1;
nodes = (
(449,503,l),
(480,371,o),
(502,203,o),
(502,101,c),
(640,135,l),
(637,238,o),
(610,401,o),
(575,530,c)
);
},
{
closed = 1;
nodes = (
(755,534,l),
(742,401,o),
(712,233,o),
(682,127,c),
(813,98,l),
(847,203,o),
(887,373,o),
(911,509,c)
);
},
{
closed = 1;
nodes = (
(975,84,l),
(349,84,l),
(349,-53,l),
(975,-53,l)
);
}
);
vertWidth = 1000;
width = 1000;
}
);
note = cid13410;
unicode = 22403;
}
{
glyphname = uni579B;
layers = (
{
layerId = m01;
shapes = (
{
closed = 1;
nodes = (
(942,311,l),
(346,311,l),
(346,282,l),
(942,282,l)
);
},
{
closed = 1;
nodes = (
(654,441,l),
(624,441,l),
(624,-71,l),
(654,-71,l)
);
},
{
closed = 1;
nodes = (
(653,287,l),
(722,164,o),
(835,49,o),
(946,-12,c),
(951,-3,o),
(961,7,o),
(967,13,c),
(855,68,o),
(744,179,o),
(679,299,c)
);
},
{
closed = 1;
nodes = (
(600,300,l),
(538,175,o),
(415,59,o),
(292,8,c),
(299,2,o),
(308,-9,o),
(313,-16,c),
(435,40,o),
(562,158,o),
(625,289,c)
);
},
{
closed = 1;
nodes = (
(326,575,l),
(60,575,l),
(60,546,l),
(326,546,l)
);
},
{
closed = 1;
nodes = (
(212,820,l),
(182,820,l),
(182,163,l),
(212,163,l)
);
},
{
closed = 1;
nodes = (
(58,82,l),
(137,120,o),
(244,171,o),
(346,219,c),
(339,248,l),
(230,196,o),
(118,143,o),
(45,111,c)
);
},
{
closed = 1;
nodes = (
(520,788,l),
(490,788,l),
(490,679,ls),
(490,607,o),
(470,514,o),
(360,436,c),
(367,432,o),
(377,422,o),
(382,415,c),
(495,498,o),
(520,600,o),
(520,679,cs)
);
},
{
closed = 1;
nodes = (
(765,788,l),
(508,788,l),
(508,759,l),
(765,759,l)
);
},
{
closed = 1;
nodes = (
(784,788,l),
(755,788,l),
(755,516,ls),
(755,473,o),
(766,464,o),
(810,464,cs),
(820,464,o),
(885,464,o),
(895,464,cs),
(939,464,o),
(948,493,o),
(950,615,c),
(941,618,o),
(929,622,o),
(921,629,c),
(919,509,o),
(915,494,o),
(892,494,cs),
(877,494,o),
(822,494,o),
(811,494,cs),
(788,494,o),
(784,498,o),
(784,515,cs)
);
}
);
width = 1000;
},
{
layerId = "94DDBC6A-1627-4027-9125-871D02041BCD";
shapes = (
{
closed = 1;
nodes = (
(962,340,l),
(375,340,l),
(375,210,l),
(962,210,l)
);
},
{
closed = 1;
nodes = (
(731,444,l),
(590,444,l),
(590,-95,l),
(731,-95,l)
);
},
{
closed = 1;
nodes = (
(653,221,l),
(710,111,o),
(802,-6,o),
(891,-71,c),
(913,-35,o),
(958,18,o),
(989,46,c),
(901,94,o),
(804,180,o),
(753,262,c)
);
},
{
closed = 1;
nodes = (
(572,267,l),
(517,176,o),
(410,88,o),
(301,42,c),
(331,13,o),
(374,-40,o),
(395,-75,c),
(510,-13,o),
(617,101,o),
(682,225,c)
);
},
{
closed = 1;
nodes = (
(347,619,l),
(40,619,l),
(40,482,l),
(347,482,l)
);
},
{
closed = 1;
nodes = (
(267,840,l),
(132,840,l),
(132,169,l),
(267,169,l)
);
},
{
closed = 1;
nodes = (
(64,46,l),
(156,79,o),
(267,120,o),
(370,160,c),
(345,292,l),
(226,255,o),
(99,216,o),
(16,195,c)
);
},
{
closed = 1;
nodes = (
(599,830,l),
(463,830,l),
(463,697,ls),
(463,632,o),
(453,558,o),
(354,503,c),
(380,483,o),
(432,425,o),
(449,397,c),
(572,470,o),
(599,592,o),
(599,694,cs)
);
},
{
closed = 1;
nodes = (
(760,830,l),
(530,830,l),
(530,696,l),
(760,696,l)
);
},
{
closed = 1;
nodes = (
(843,830,l),
(711,830,l),
(711,593,ls),
(711,480,o),
(737,444,o),
(826,444,cs),
(844,444,o),
(862,444,o),
(880,444,cs),
(947,444,o),
(976,480,o),
(987,603,c),
(955,612,o),
(904,633,o),
(881,654,c),
(879,576,o),
(876,562,o),
(866,562,cs),
(863,562,o),
(856,562,o),
(853,562,cs),
(845,562,o),
(843,565,o),
(843,595,cs)
);
}
);
width = 1000;
}
);
note = cid13416;
unicode = 22427;
}
{
glyphname = uni57B5;
layers = (
{
layerId = m01;
shapes = (
{
closed = 1;
nodes = (
(665,830,l),
(635,830,l),
(635,667,l),
(665,667,l)
);
},
{
closed = 1;
nodes = (
(935,683,l),
(381,683,l),
(381,506,l),
(411,506,l),
(411,654,l),
(906,654,l),
(906,508,l),
(935,508,l)
);
},
{
closed = 1;
nodes = (
(596,610,l),
(548,469,o),
(470,262,o),
(417,145,c),
(445,136,l),
(497,254,o),
(575,460,o),
(625,604,c)
);
},
{
closed = 1;
nodes = (
(952,425,l),
(351,425,l),
(351,395,l),
(952,395,l)
);
},
{
closed = 1;
nodes = (
(819,419,l),
(771,138,o),
(620,14,o),
(336,-47,c),
(343,-54,o),
(353,-66,o),
(357,-73,c),
(639,-3,o),
(799,122,o),
(850,414,c)
);
},
{
closed = 1;
nodes = (
(448,187,l),
(613,115,o),
(814,2,o),
(915,-76,c),
(935,-52,l),
(831,27,o),
(632,136,o),
(468,208,c)
);
},
{
closed = 1;
nodes = (
(347,581,l),
(60,581,l),
(60,552,l),
(347,552,l)
);
},
{
closed = 1;
nodes = (
(221,821,l),
(191,821,l),
(191,186,l),
(221,186,l)
);
},
{
closed = 1;
nodes = (
(57,107,l),
(140,142,o),
(253,190,o),
(361,235,c),
(355,265,l),
(239,216,o),
(123,167,o),
(45,136,c)
);
}
);
vertWidth = 1000;
width = 1000;
},
{
layerId = "94DDBC6A-1627-4027-9125-871D02041BCD";
shapes = (
{
closed = 1;
nodes = (
(734,855,l),
(587,855,l),
(587,657,l),
(734,657,l)
);
},
{
closed = 1;
nodes = (
(966,747,l),
(372,747,l),
(372,532,l),
(507,532,l),
(507,621,l),
(824,621,l),
(824,532,l),
(966,532,l)
);
},
{
closed = 1;
nodes = (
(570,592,l),
(525,451,o),
(456,273,o),
(403,161,c),
(531,106,l),
(589,231,o),
(662,412,o),
(718,567,c)
);
},
{
closed = 1;
nodes = (
(975,461,l),
(367,461,l),
(367,328,l),
(975,328,l)
);
},
{
closed = 1;
nodes = (
(752,378,l),
(721,160,o),
(589,68,o),
(335,31,c),
(360,0,o),
(397,-65,o),
(407,-100,c),
(699,-38,o),
(848,83,o),
(911,367,c)
);
},
{
closed = 1;
nodes = (
(465,167,l),
(599,93,o),
(784,-22,o),
(868,-98,c),
(973,14,l),
(879,90,o),
(688,196,o),
(560,262,c)
);
},
{
closed = 1;
nodes = (
(356,619,l),
(40,619,l),
(40,482,l),
(356,482,l)
);
},
{
closed = 1;
nodes = (
(269,845,l),
(131,845,l),
(131,174,l),
(269,174,l)
);
},
{
closed = 1;
nodes = (
(72,36,l),
(165,72,o),
(278,116,o),
(384,159,c),
(360,286,l),
(234,247,o),
(100,206,o),
(16,185,c)
);
}
);
vertWidth = 1000;
width = 1000;
}
);
note = cid13474;
unicode = 22453;
}
{
glyphname = uni57C2;
layers = (
{
layerId = m01;
shapes = (
{
closed = 1;
nodes = (
(428,309,l),
(428,442,l),
(886,442,l),
(886,309,l)
);
},
{
closed = 1;
nodes = (
(428,472,l),
(428,603,l),
(886,603,l),
(886,472,l)
);
},
{
closed = 1;
nodes = (
(916,632,l),
(399,632,l),
(399,279,l),
(916,279,l)
);
},
{
closed = 1;
nodes = (
(940,771,l),
(371,771,l),
(371,742,l),
(940,742,l)
);
},
{
closed = 1;
nodes = (
(437,235,l),
(512,59,o),
(694,-38,o),
(942,-70,c),
(946,-62,o),
(953,-51,o),
(960,-45,c),
(713,-17,o),
(533,77,o),
(462,244,c)
);
},
{
closed = 1;
nodes = (
(664,758,l),
(634,758,l),
(634,370,ls),
(634,209,o),
(622,38,o),
(279,-44,c),
(284,-51,o),
(291,-63,o),
(295,-70,c),
(644,20,o),
(664,197,o),
(664,370,cs)
);
},
{
closed = 1;
nodes = (
(356,579,l),
(60,579,l),
(60,550,l),
(356,550,l)
);
},
{
closed = 1;
nodes = (
(225,821,l),
(195,821,l),
(195,178,l),
(225,178,l)
);
},
{
closed = 1;
nodes = (
(56,99,l),
(143,133,o),
(263,180,o),
(378,226,c),
(372,255,l),
(250,207,o),
(127,158,o),
(45,129,c)
);
}
);
vertWidth = 1000;
width = 1000;
},
{
layerId = "94DDBC6A-1627-4027-9125-871D02041BCD";
shapes = (
{
closed = 1;
nodes = (
(522,377,l),
(522,416,l),
(800,416,l),
(800,377,l)
);
},
{
closed = 1;
nodes = (
(522,511,l),
(522,549,l),
(800,549,l),
(800,511,l)
);
},
{
closed = 1;
nodes = (
(939,652,l),
(390,652,l),
(390,274,l),
(939,274,l)
);
},
{
closed = 1;
nodes = (
(956,821,l),
(375,821,l),
(375,694,l),
(956,694,l)
);
},
{
closed = 1;
nodes = (
(408,234,l),
(497,36,o),
(633,-60,o),
(900,-93,c),
(918,-54,o),
(954,6,o),
(984,37,c),
(742,53,o),
(602,121,o),
(536,260,c)
);
},
{
closed = 1;
nodes = (
(729,752,l),
(591,752,l),
(591,351,ls),
(591,202,o),
(549,71,o),
(267,18,c),
(297,-11,o),
(335,-66,o),
(351,-96,c),
(660,-19,o),
(729,152,o),
(729,350,cs)
);
},
{
closed = 1;
nodes = (
(356,619,l),
(36,619,l),
(36,482,l),
(356,482,l)
);
},
{
closed = 1;
nodes = (
(267,839,l),
(129,839,l),
(129,174,l),
(267,174,l)
);
},
{
closed = 1;
nodes = (
(60,34,l),
(160,73,o),
(282,121,o),
(394,168,c),
(365,303,l),
(239,257,o),
(104,209,o),
(16,183,c)
);
}
);
vertWidth = 1000;
width = 1000;
}
);
note = cid13491;
unicode = 22466;
}
{
glyphname = uni5807;
layers = (
{
layerId = m01;
shapes = (
{
closed = 1;
nodes = (
(934,737,l),
(69,737,l),
(69,708,l),
(934,708,l)
);
},
{
closed = 1;
nodes = (
(317,831,l),
(287,831,l),
(287,581,l),
(719,581,l),
(719,831,l),
(690,831,l),
(690,611,l),
(317,611,l)
);
},
{
closed = 1;
nodes = (
(893,248,l),
(116,248,l),
(116,219,l),
(893,219,l)
);
},
{
closed = 1;
nodes = (
(856,127,l),
(149,127,l),
(149,97,l),
(856,97,l)
);
},
{
closed = 1;
nodes = (
(943,-2,l),
(60,-2,l),
(60,-31,l),
(943,-31,l)
);
},
{
closed = 1;
nodes = (
(512,608,l),
(482,608,l),
(482,-18,l),
(512,-18,l)
);
},
{
closed = 1;
nodes = (
(198,354,l),
(198,478,l),
(805,478,l),
(805,354,l)
);
},
{
closed = 1;
nodes = (
(834,508,l),
(169,508,l),
(169,325,l),
(834,325,l)
);
}
);
vertWidth = 1000;
width = 1000;
},
{
layerId = "94DDBC6A-1627-4027-9125-871D02041BCD";
shapes = (
{
closed = 1;
nodes = (
(941,802,l),
(63,802,l),
(63,693,l),
(941,693,l)
);
},
{
closed = 1;
nodes = (
(370,855,l),
(231,855,l),
(231,567,l),
(778,567,l),
(778,855,l),
(631,855,l),
(631,662,l),
(370,662,l)
);
},
{
closed = 1;
nodes = (
(888,290,l),
(113,290,l),
(113,188,l),
(888,188,l)
);
},
{
closed = 1;
nodes = (
(854,163,l),
(151,163,l),
(151,67,l),
(854,67,l)
);
},
{
closed = 1;
nodes = (
(960,41,l),
(41,41,l),
(41,-66,l),
(960,-66,l)
);
},
{
closed = 1;
nodes = (
(570,603,l),
(427,603,l),
(427,-5,l),
(570,-5,l)
);
},
{
closed = 1;
nodes = (
(273,411,l),
(273,444,l),
(728,444,l),
(728,411,l)
);
},
{
closed = 1;
nodes = (
(872,539,l),
(138,539,l),
(138,316,l),
(872,316,l)
);
}
);
vertWidth = 1000;
width = 1000;
}
);
note = cid13605;
unicode = 22535;
}
{
glyphname = uni586B;
layers = (
{
layerId = m01;
shapes = (
{
closed = 1;
nodes = (
(841,493,l),
(440,493,l),
(440,464,l),
(841,464,l)
);
},
{
closed = 1;
nodes = (
(841,379,l),
(440,379,l),
(440,350,l),
(841,350,l)
);
},
{
closed = 1;
nodes = (
(841,265,l),
(440,265,l),
(440,235,l),
(841,235,l)
);
},
{
closed = 1;
nodes = (
(857,608,l),
(425,608,l),
(425,136,l),
(454,136,l),
(454,578,l),
(827,578,l),
(827,136,l),
(857,136,l)
);
},
{
closed = 1;
nodes = (
(942,733,l),
(341,733,l),
(341,704,l),
(942,704,l)
);
},
{
closed = 1;
nodes = (
(952,150,l),
(316,150,l),
(316,121,l),
(952,121,l)
);
},
{
closed = 1;
nodes = (
(652,831,l),
(623,831,l),
(623,593,l),
(652,593,l)
);
},
{
closed = 1;
nodes = (
(711,71,l),
(794,26,o),
(879,-28,o),
(931,-71,c),
(957,-51,l),
(902,-8,o),
(815,45,o),
(731,88,c)
);
},
{
closed = 1;
nodes = (
(528,87,l),
(468,34,o),
(373,-16,o),
(288,-50,c),
(295,-55,o),
(307,-66,o),
(312,-71,c),
(393,-35,o),
(491,21,o),
(556,77,c)
);
},
{
closed = 1;
nodes = (
(347,581,l),
(60,581,l),
(60,552,l),
(347,552,l)
);
},
{
closed = 1;
nodes = (
(224,821,l),
(194,821,l),
(194,181,l),
(224,181,l)
);
},
{
closed = 1;
nodes = (
(58,99,l),
(142,135,o),
(258,186,o),
(367,233,c),
(361,262,l),
(243,212,o),
(124,160,o),
(45,129,c)
);
}
);
vertWidth = 1000;
width = 1000;
},
{
layerId = "94DDBC6A-1627-4027-9125-871D02041BCD";
shapes = (
{
closed = 1;
nodes = (
(841,534,l),
(489,534,l),
(489,451,l),
(841,451,l)
);
},
{
closed = 1;
nodes = (
(841,426,l),
(489,426,l),
(489,343,l),
(841,343,l)
);
},
{
closed = 1;
nodes = (
(841,317,l),
(489,317,l),
(489,234,l),
(841,234,l)
);
},
{
closed = 1;
nodes = (
(894,645,l),
(421,645,l),
(421,170,l),
(552,170,l),
(552,559,l),
(756,559,l),
(756,170,l),
(894,170,l)
);
},
{
closed = 1;
nodes = (
(959,793,l),
(351,793,l),
(351,677,l),
(959,677,l)
);
},
{
closed = 1;
nodes = (
(976,208,l),
(318,208,l),
(318,88,l),
(976,88,l)
);
},
{
closed = 1;
nodes = (
(724,855,l),
(583,855,l),
(583,589,l),
(724,589,l)
);
},
{
closed = 1;
nodes = (
(680,37,l),
(742,-3,o),
(813,-59,o),
(850,-95,c),
(984,-30,l),
(937,8,o),
(851,65,o),
(780,107,c)
);
},
{
closed = 1;
nodes = (
(493,101,l),
(450,62,o),
(367,26,o),
(287,5,c),
(318,-18,o),
(369,-69,o),
(393,-96,c),
(476,-64,o),
(572,-8,o),
(630,54,c)
);
},
{
closed = 1;
nodes = (
(347,619,l),
(40,619,l),
(40,482,l),
(347,482,l)
);
},
{
closed = 1;
nodes = (
(267,838,l),
(132,838,l),
(132,167,l),
(267,167,l)
);
},
{
closed = 1;
nodes = (
(70,49,l),
(163,89,o),
(276,140,o),
(379,190,c),
(345,324,l),
(226,274,o),
(99,223,o),
(16,195,c)
);
}
);
vertWidth = 1000;
width = 1000;
}
);
note = cid13770;
unicode = 22635;
}
{
glyphname = uni5920;
layers = (
{
layerId = m01;
shapes = (
{
closed = 1;
nodes = (
(265,831,l),
(226,745,o),
(141,649,o),
(45,583,c),
(53,579,o),
(63,572,o),
(69,566,c),
(166,634,o),
(254,734,o),
(297,826,c)
);
},
{
closed = 1;
nodes = (
(418,727,l),
(213,727,l),
(192,698,l),
(418,698,l)
);
},
{
closed = 1;
nodes = (
(416,727,l),
(409,727,l),
(409,719,l),
(347,551,o),
(187,429,o),
(42,377,c),
(49,372,o),
(58,361,o),
(62,353,c),
(212,412,o),
(374,534,o),
(441,719,c),
(422,729,l)
);
},
{
closed = 1;
nodes = (
(140,639,l),
(200,604,o),
(265,555,o),
(296,520,c),
(318,540,l),
(286,576,o),
(221,624,o),
(161,657,c)
);
},
{
closed = 1;
nodes = (
(281,463,l),
(238,364,o),
(144,256,o),
(37,182,c),
(44,179,o),
(54,171,o),
(60,164,c),
(168,237,o),
(265,350,o),
(313,458,c)
);
},
{
closed = 1;
nodes = (
(450,353,l),
(237,353,l),
(216,324,l),
(450,324,l)
);
},
{
closed = 1;
nodes = (
(450,353,l),
(445,353,l),
(445,345,l),
(381,141,o),
(209,4,o),
(46,-54,c),
(53,-60,o),
(62,-70,o),
(66,-77,c),
(233,-14,o),
(406,125,o),
(476,346,c),
(457,355,l)
);
},
{
closed = 1;
nodes = (
(143,242,l),
(210,200,o),
(281,143,o),
(314,103,c),
(337,124,l),
(301,166,o),
(230,222,o),
(165,260,c)
);
},
{
closed = 1;
nodes = (
(916,661,l),
(535,661,l),
(535,631,l),
(916,631,l)
);
},
{
closed = 1;
nodes = (
(903,661,l),
(903,652,ls),
(893,170,o),
(879,6,o),
(851,-28,cs),
(842,-41,o),
(831,-43,o),
(814,-42,cs),
(794,-42,o),
(738,-42,o),
(677,-37,c),
(683,-45,o),
(686,-58,o),
(687,-67,c),
(736,-71,o),
(789,-72,o),
(818,-71,cs),
(845,-70,o),
(863,-65,o),
(878,-45,cs),
(912,-2,o),
(921,149,o),
(932,637,cs),
(932,643,o),
(932,661,o),
(932,661,c)
);
},
{
closed = 1;
nodes = (
(585,831,l),
(553,705,o),
(491,572,o),
(425,487,c),
(432,484,o),
(445,475,o),
(451,470,c),
(516,558,o),
(579,695,o),
(615,825,c)
);
},
{
closed = 1;
nodes = (
(769,481,l),
(541,481,l),
(541,452,l),
(739,452,l),
(739,211,l),
(541,211,l),
(541,181,l),
(769,181,l)
);
},
{
closed = 1;
nodes = (
(555,481,l),
(525,481,l),
(525,93,l),
(555,93,l)
);
}
);
vertWidth = 1000;
width = 1000;
},
{
layerId = "94DDBC6A-1627-4027-9125-871D02041BCD";
shapes = (
{
closed = 1;
nodes = (
(206,854,l),
(173,782,o),
(110,704,o),
(9,648,c),
(36,630,o),
(75,587,o),
(92,558,c),
(209,634,o),
(282,726,o),
(332,832,c)
);
},
{
closed = 1;
nodes = (
(382,774,l),
(215,774,l),
(138,672,l),
(382,672,l)
);
},
{
closed = 1;
nodes = (
(371,774,l),
(348,774,l),
(348,755,l),
(303,612,o),
(173,503,o),
(16,457,c),
(40,433,o),
(72,386,o),
(86,356,c),
(269,422,o),
(412,542,o),
(475,744,c),
(393,778,l)
);
},
{
closed = 1;
nodes = (
(114,588,l),
(146,566,o),
(185,532,o),
(203,510,c),
(291,581,l),
(270,604,o),
(229,634,o),
(197,654,c)
);
},
{
closed = 1;
nodes = (
(230,473,l),
(193,385,o),
(123,290,o),
(8,220,c),
(35,202,o),
(75,158,o),
(93,129,c),
(224,218,o),
(305,329,o),
(360,451,c)
);
},
{
closed = 1;
nodes = (
(403,380,l),
(236,380,l),
(162,275,l),
(403,275,l)
);
},
{
closed = 1;
nodes = (
(383,380,l),
(359,380,l),
(359,360,l),
(318,185,o),
(193,61,o),
(24,10,c),
(49,-16,o),
(81,-65,o),
(96,-96,c),
(294,-22,o),
(433,114,o),
(490,354,c),
(406,384,l)
);
},
{
closed = 1;
nodes = (
(121,181,l),
(157,156,o),
(202,117,o),
(223,91,c),
(317,168,l),
(294,194,o),
(246,229,o),
(210,251,c)
);
},
{
closed = 1;
nodes = (
(857,709,l),
(573,709,l),
(573,575,l),
(857,575,l)
);
},
{
closed = 1;
nodes = (
(820,709,l),
(820,678,ls),
(815,250,o),
(810,87,o),
(786,55,cs),
(776,40,o),
(767,36,o),
(751,36,cs),
(729,36,o),
(689,36,o),
(644,40,c),
(668,1,o),
(684,-58,o),
(686,-97,c),
(736,-98,o),
(786,-98,o),
(820,-91,cs),
(857,-83,o),
(882,-70,o),
(908,-29,cs),
(941,21,o),
(947,185,o),
(953,646,cs),
(954,662,o),
(954,709,o),
(954,709,c)
);
},
{
closed = 1;
nodes = (
(549,855,l),
(519,735,o),
(459,615,o),
(392,542,c),
(424,521,o),
(481,471,o),
(505,444,c),
(580,526,o),
(652,671,o),
(692,820,c)
);
},
{
closed = 1;
nodes = (
(772,498,l),
(556,498,l),
(556,380,l),
(656,380,l),
(656,248,l),
(556,248,l),
(556,130,l),
(772,130,l)
);
},
{
closed = 1;
nodes = (
(614,498,l),
(499,498,l),
(499,84,l),
(614,84,l)
);
}
);
vertWidth = 1000;
width = 1000;
}
);
note = cid14081;
unicode = 22816;
}
{
glyphname = uni5950;
layers = (
{
layerId = m01;
shapes = (
{
closed = 1;
nodes = (
(935,199,l),
(66,199,l),
(66,170,l),
(935,170,l)
);
},
{
closed = 1;
nodes = (
(510,183,l),
(569,27,o),
(722,-45,o),
(939,-72,c),
(943,-63,o),
(951,-52,o),
(958,-45,c),
(742,-23,o),
(594,44,o),
(538,191,c)
);
},
{
closed = 1;
nodes = (
(612,752,l),
(302,752,l),
(279,722,l),
(612,722,l)
);
},
{
closed = 1;
nodes = (
(835,600,l),
(171,600,l),
(171,235,l),
(200,235,l),
(200,571,l),
(806,571,l),
(806,235,l),
(835,235,l)
);
},
{
closed = 1;
nodes = (
(589,588,l),
(560,588,l),
(560,416,ls),
(560,373,o),
(575,367,o),
(633,367,cs),
(644,367,o),
(773,367,o),
(785,367,cs),
(820,367,o),
(831,374,o),
(834,386,c),
(824,388,o),
(814,391,o),
(806,397,c),
(804,396,o),
(800,396,o),
(779,396,cs),
(756,396,o),
(649,396,o),
(631,396,cs),
(594,396,o),
(589,399,o),
(589,416,cs)
);
},
{
closed = 1;
nodes = (
(401,589,l),
(395,444,o),
(361,386,o),
(224,352,c),
(231,347,o),
(239,335,o),
(242,328,c),
(385,367,o),
(424,431,o),
(430,589,c)
);
},
{
closed = 1;
nodes = (
(334,831,l),
(282,736,o),
(183,610,o),
(53,518,c),
(61,514,o),
(72,505,o),
(77,498,c),
(210,595,o),
(309,723,o),
(370,825,c)
);
},
{
closed = 1;
nodes = (
(607,752,l),
(601,752,l),
(601,745,l),
(574,694,o),
(525,626,o),
(481,588,c),
(488,584,o),
(498,579,o),
(504,574,c),
(548,615,o),
(600,679,o),
(632,741,c),
(613,754,l)
);
},
{
closed = 1;
nodes = (
(522,310,l),
(492,310,l),
(492,268,ls),
(492,183,o),
(456,34,o),
(58,-48,c),
(66,-56,o),
(74,-66,o),
(78,-73,c),
(484,12,o),
(522,168,o),
(522,268,cs)
);
}
);
vertWidth = 1000;
width = 1000;
},
{
layerId = "94DDBC6A-1627-4027-9125-871D02041BCD";
shapes = (
{
closed = 1;
nodes = (
(950,254,l),
(49,254,l),
(49,133,l),
(950,133,l)
);
},
{
closed = 1;
nodes = (
(435,189,l),
(516,4,o),
(634,-73,o),
(894,-96,c),
(911,-55,o),
(948,6,o),
(978,37,c),
(750,43,o),
(626,89,o),
(568,207,c)
);
},
{
closed = 1;
nodes = (
(580,799,l),
(327,799,l),
(246,696,l),
(580,696,l)
);
},
{
closed = 1;
nodes = (
(883,652,l),
(131,652,l),
(131,276,l),
(266,276,l),
(266,538,l),
(741,538,l),
(741,276,l),
(883,276,l)
);
},
{
closed = 1;
nodes = (
(637,594,l),
(524,594,l),
(524,485,ls),
(524,394,o),
(544,365,o),
(644,365,cs),
(664,365,o),
(712,365,o),
(733,365,cs),
(794,365,o),
(825,381,o),
(838,433,c),
(807,439,o),
(762,455,o),
(741,469,c),
(738,463,o),
(734,461,o),
(718,461,cs),
(707,461,o),
(671,461,o),
(662,461,cs),
(641,461,o),
(637,463,o),
(637,486,cs)
);
},
{
closed = 1;
nodes = (
(356,594,l),
(354,487,o),
(345,439,o),
(236,411,c),
(259,390,o),
(288,346,o),
(297,319,c),
(443,362,o),
(465,446,o),
(468,594,c)
);
},
{
closed = 1;
nodes = (
(279,857,l),
(233,766,o),
(151,664,o),
(30,587,c),
(60,567,o),
(105,520,o),
(125,489,c),
(261,587,o),
(353,703,o),
(423,830,c)
);
},
{
closed = 1;
nodes = (
(568,799,l),
(537,799,l),
(537,774,l),
(521,735,o),
(478,666,o),
(440,623,c),
(471,606,o),
(517,577,o),
(545,556,c),
(591,605,o),
(651,684,o),
(685,744,c),
(589,804,l)
);
},
{
closed = 1;
nodes = (
(568,331,l),
(423,331,l),
(423,249,ls),
(423,172,o),
(367,72,o),
(29,23,c),
(57,-8,o),
(95,-62,o),
(113,-95,c),
(502,-36,o),
(568,121,o),
(568,244,cs)
);
}
);
vertWidth = 1000;
width = 1000;
}
);
note = cid14151;
unicode = 22864;
}
